<svg width="48" height="48" viewBox="0 0 48 48" fill="none" xmlns="http://www.w3.org/2000/svg">
<g clip-path="url(#clip0)">
<path d="M47.9529 22.7446C47.9288 22.2756 47.6722 21.8497 47.2689 21.6092C46.8657 21.3687 46.369 21.3453 45.9449 21.5467C44.7951 22.093 43.5617 22.3699 42.2788 22.3699C37.558 22.3699 33.7174 18.5265 33.7174 13.8022C33.7174 12.6198 33.9537 11.4746 34.42 10.3982C34.649 9.86928 34.5322 9.25425 34.1252 8.84614C33.7181 8.43794 33.1034 8.31953 32.5739 8.54735C31.9069 8.83424 31.1979 8.97965 30.4669 8.97965C27.5205 8.97965 25.1234 6.58058 25.1234 3.63174C25.1234 3.03041 25.2237 2.43769 25.4215 1.8703C25.5709 1.44156 25.5042 0.967071 25.2423 0.596274C24.9805 0.225384 24.5557 0.00375015 24.1017 0.00103129L24.0764 0.000656277C24.051 0.000375015 24.0256 0 24 0C17.5931 0 11.5697 2.49657 7.03944 7.02976C2.50944 11.5627 0.0146484 17.5895 0.0146484 24C0.0146484 30.4104 2.50944 36.4372 7.03944 40.9701C11.5697 45.5034 17.5931 47.9999 24 47.9999C30.4068 47.9999 36.4302 45.5033 40.9605 40.9701C45.4905 36.4372 47.9853 30.4104 47.9853 24C47.9854 23.5859 47.9744 23.1635 47.9529 22.7446ZM38.9711 38.982C34.9721 42.9836 29.6552 45.1874 24 45.1874C18.3447 45.1874 13.0279 42.9836 9.02889 38.982C5.02973 34.9802 2.82726 29.6595 2.82726 24C2.82726 18.3404 5.02973 13.0197 9.02889 9.01799C12.6354 5.40913 17.3137 3.26254 22.3456 2.8759C22.3223 3.1266 22.3107 3.3787 22.3107 3.63184C22.3107 8.13155 25.9696 11.7924 30.4668 11.7924C30.6741 11.7924 30.8804 11.7847 31.0852 11.7694C30.9651 12.4354 30.9047 13.1142 30.9047 13.8022C30.9047 20.0774 36.007 25.1826 42.2787 25.1826C43.2626 25.1826 44.225 25.0597 45.1574 24.8158C44.9562 30.1691 42.7775 35.1732 38.9711 38.982Z" fill="#00CBA6"/>
<path d="M13.8833 22.8161C16.4385 22.8161 18.5174 20.7362 18.5174 18.1798C18.5174 15.6234 16.4385 13.5436 13.8833 13.5436C11.3279 13.5436 9.24902 15.6234 9.24902 18.1798C9.24902 20.7362 11.3279 22.8161 13.8833 22.8161ZM13.8833 16.3562C14.8877 16.3562 15.7048 17.1743 15.7048 18.1798C15.7048 19.1853 14.8877 20.0035 13.8833 20.0035C12.8789 20.0035 12.0616 19.1853 12.0616 18.1798C12.0616 17.1743 12.8788 16.3562 13.8833 16.3562Z" fill="#00CBA6"/>
<path d="M14.787 26.9965C12.4145 26.9965 10.4844 28.9275 10.4844 31.301C10.4844 33.6744 12.4145 35.6055 14.787 35.6055C17.1596 35.6055 19.0898 33.6744 19.0898 31.301C19.0898 28.9275 17.1596 26.9965 14.787 26.9965ZM14.787 32.7929C13.9654 32.7929 13.297 32.1236 13.297 31.301C13.297 30.4784 13.9654 29.8091 14.787 29.8091C15.6087 29.8091 16.2771 30.4784 16.2771 31.301C16.2771 32.1236 15.6087 32.7929 14.787 32.7929Z" fill="#00CBA6"/>
<path d="M34.2357 27.7513C31.6805 27.7513 29.6016 29.8312 29.6016 32.3876C29.6016 34.944 31.6805 37.0239 34.2357 37.0239C36.7911 37.0239 38.87 34.944 38.87 32.3876C38.87 29.8312 36.7911 27.7513 34.2357 27.7513ZM34.2357 34.2113C33.2313 34.2113 32.4142 33.3931 32.4142 32.3876C32.4142 31.3821 33.2313 30.564 34.2357 30.564C35.2401 30.564 36.0574 31.3821 36.0574 32.3876C36.0574 33.3931 35.2401 34.2113 34.2357 34.2113Z" fill="#00CBA6"/>
<path d="M25.927 35.6176C25.1641 35.6176 24.5457 36.2364 24.5457 36.9998C24.5457 37.7632 25.1641 38.3821 25.927 38.3821C26.6899 38.3821 27.3084 37.7632 27.3084 36.9998C27.3084 36.2364 26.6899 35.6176 25.927 35.6176Z" fill="#00CBA6"/>
<path d="M17.6834 9.45077C18.4463 9.45077 19.0647 8.83189 19.0647 8.06846C19.0647 7.30504 18.4463 6.68616 17.6834 6.68616C16.9205 6.68616 16.302 7.30504 16.302 8.06846C16.302 8.83189 16.9205 9.45077 17.6834 9.45077Z" fill="#00CBA6"/>
<path d="M8.0823 28.4027C8.84521 28.4027 9.46367 27.7838 9.46367 27.0204C9.46367 26.2569 8.84521 25.6381 8.0823 25.6381C7.31939 25.6381 6.70093 26.2569 6.70093 27.0204C6.70093 27.7838 7.31939 28.4027 8.0823 28.4027Z" fill="#00CBA6"/>
<path d="M21.3562 19.4812C20.5933 19.4812 19.9749 20.1001 19.9749 20.8635C19.9749 21.6269 20.5933 22.2457 21.3562 22.2457C22.1191 22.2457 22.7376 21.6269 22.7376 20.8635C22.7376 20.1001 22.1192 19.4812 21.3562 19.4812Z" fill="#00CBA6"/>
<path d="M29.6265 26.4061C30.3894 26.4061 31.0078 25.7872 31.0078 25.0238C31.0078 24.2604 30.3894 23.6415 29.6265 23.6415C28.8636 23.6415 28.2451 24.2604 28.2451 25.0238C28.2451 25.7872 28.8636 26.4061 29.6265 26.4061Z" fill="#00CBA6"/>
</g>
<defs>
<clipPath id="clip0">
<rect width="48" height="48" fill="white"/>
</clipPath>
</defs>
</svg>
