<svg width="56" height="56" viewBox="0 0 56 56" fill="none" xmlns="http://www.w3.org/2000/svg">
<rect width="56" height="56" rx="4" fill="#E6FAF6"/>
<g clip-path="url(#clip0)">
<path d="M28.5438 25.54V26.7466C28.5438 27.1299 28.6204 27.4514 28.7714 27.7019C28.9798 28.0476 29.3219 28.2457 29.7102 28.2457C30.0907 28.2457 30.4688 28.0604 30.8339 27.6953L34.8194 23.7098C35.6945 22.8348 35.6945 21.4109 34.8194 20.5359L30.8339 16.5504C30.4688 16.1851 30.0907 16 29.7102 16C29.1296 16 28.5438 16.4636 28.5438 17.4991V18.595C22.8855 18.9291 18.2013 23.2715 17.5051 28.9567C17.4661 29.2742 17.6467 29.5782 17.9442 29.6959C18.0285 29.7292 18.1162 29.7454 18.2028 29.7454C18.4221 29.7454 18.6349 29.6426 18.7704 29.4575C20.6377 26.9061 23.6359 25.3829 26.7904 25.3829C27.3749 25.3829 27.9627 25.4356 28.5438 25.54Z" fill="#00CBA6"/>
<path d="M38.0432 26.3041C37.7456 26.1862 37.4061 26.2843 37.217 26.5427C35.3499 29.0939 32.3517 30.6172 29.1972 30.6172C28.6127 30.6172 28.0249 30.5644 27.4437 30.4601V29.2534C27.4437 28.2179 26.8578 27.7543 26.2774 27.7543C25.8969 27.7543 25.5187 27.9396 25.1535 28.3049L21.168 32.2902C20.2931 33.1652 20.2931 34.5891 21.1682 35.4643L25.1535 39.4496C25.5187 39.8149 25.8969 40 26.2774 40C26.8578 40 27.4437 39.5364 27.4437 38.5009V37.4051C33.1022 37.0709 37.7863 32.7285 38.4824 27.0435C38.5214 26.7258 38.3409 26.4218 38.0432 26.3041Z" fill="#00CBA6"/>
</g>
<defs>
<clipPath id="clip0">
<rect width="24" height="24" fill="white" transform="translate(16 16)"/>
</clipPath>
</defs>
</svg>
