<svg width="64" height="64" viewBox="0 0 64 64" fill="none" xmlns="http://www.w3.org/2000/svg">
<rect width="64" height="64" rx="4" fill="#E6FAF6"/>
<g clip-path="url(#clip0)">
<path d="M32.5439 29.54V30.7466C32.5439 31.1299 32.6204 31.4514 32.7715 31.7019C32.9799 32.0476 33.3219 32.2457 33.7103 32.2457C34.0908 32.2457 34.4689 32.0604 34.834 31.6953L38.8195 27.7098C39.6945 26.8348 39.6945 25.4109 38.8195 24.5359L34.834 20.5504C34.4689 20.1851 34.0908 20 33.7103 20C33.1297 20 32.5439 20.4636 32.5439 21.4991V22.595C26.8856 22.9291 22.2014 27.2715 21.5052 32.9567C21.4662 33.2742 21.6468 33.5782 21.9443 33.6959C22.0285 33.7292 22.1162 33.7454 22.2028 33.7454C22.4222 33.7454 22.635 33.6426 22.7705 33.4575C24.6378 30.9061 27.6359 29.3829 30.7905 29.3829C31.375 29.3829 31.9627 29.4356 32.5439 29.54Z" fill="#00CBA6"/>
<path d="M42.0432 30.304C41.7456 30.1861 41.4062 30.2842 41.217 30.5426C39.3499 33.0938 36.3517 34.617 33.1972 34.617C32.6127 34.617 32.0249 34.5643 31.4438 34.4599V33.2533C31.4438 32.2178 30.8578 31.7542 30.2774 31.7542C29.8969 31.7542 29.5188 31.9395 29.1535 32.3048L25.168 36.2901C24.2931 37.1651 24.2931 38.589 25.1682 39.4642L29.1535 43.4495C29.5188 43.8148 29.8969 43.9999 30.2774 43.9999C30.8578 43.9999 31.4438 43.5363 31.4438 42.5008V41.4049C37.1023 41.0708 41.7863 36.7284 42.4825 31.0434C42.5215 30.7257 42.3409 30.4217 42.0432 30.304Z" fill="#00CBA6"/>
</g>
<defs>
<clipPath id="clip0">
<rect width="24" height="24" fill="white" transform="translate(20 20)"/>
</clipPath>
</defs>
</svg>
