<svg width="56" height="56" viewBox="0 0 56 56" fill="none" xmlns="http://www.w3.org/2000/svg">
<rect width="56" height="56" rx="4" fill="white"/>
<path fill-rule="evenodd" clip-rule="evenodd" d="M30.7368 18.762H24.0838C22.0248 18.762 20.2498 20.431 20.2498 22.491V33.204C20.2498 35.38 21.9088 37.115 24.0838 37.115H32.0728C34.1328 37.115 35.8018 35.265 35.8018 33.204V24.038L30.7368 18.762Z" fill="#00CBA6" stroke="#00CBA6" stroke-width="1.5" stroke-linecap="round" stroke-linejoin="round"/>
<path fill-rule="evenodd" clip-rule="evenodd" d="M30.677 18.5181V21.4271C30.677 22.8471 31.826 23.9991 33.245 24.0021C34.562 24.0051 35.909 24.0061 36 24.0001" fill="#80E5D3"/>
<path d="M30.677 18.5181V21.4271C30.677 22.8471 31.826 23.9991 33.245 24.0021C34.562 24.0051 35.909 24.0061 36 24.0001L30.677 18.5181Z" stroke="#80E5D3" stroke-linecap="round" stroke-linejoin="round"/>
<path d="M30.284 31.5579H24.887" stroke="white" stroke-width="1.5" stroke-linecap="round" stroke-linejoin="round"/>
<path d="M28.2425 26.6057H24.8865" stroke="white" stroke-width="1.5" stroke-linecap="round" stroke-linejoin="round"/>
</svg>
