<svg width="56" height="56" viewBox="0 0 56 56" fill="none" xmlns="http://www.w3.org/2000/svg">
<rect width="56" height="56" rx="4" fill="white"/>
<path d="M37.468 17.478C37.342 17.15 36.858 17.078 36.636 17.314C35.631 18.199 34.342 18.685 33.001 18.685C31.153 18.685 29.439 17.765 28.418 16.224C28.3251 16.084 28.1691 16 28.0011 16C27.834 16 27.6771 16.084 27.585 16.223C26.5611 17.764 24.847 18.684 22.999 18.684C21.643 18.684 20.341 18.187 19.333 17.284C19.186 17.152 18.976 17.1199 18.795 17.2C18.615 17.28 18.499 17.4589 18.499 17.656V28.4989C18.499 34.7429 27.379 39.7279 27.757 39.937C27.832 39.979 27.916 40 27.999 40C28.0821 40 28.1661 39.979 28.2411 39.939C28.6191 39.73 37.4991 34.744 37.4991 28.501V17.701C37.5051 17.626 37.495 17.55 37.468 17.478Z" fill="#00CBA6"/>
<path d="M24.25 27.4167L26.75 29.9167L31.75 24.5" stroke="white" stroke-width="1.5" stroke-linecap="round" stroke-linejoin="round"/>
</svg>
