<svg width="32" height="32" viewBox="0 0 32 32" fill="none" xmlns="http://www.w3.org/2000/svg">
<rect width="32" height="32" rx="2" fill="white"/>
<path fill-rule="evenodd" clip-rule="evenodd" d="M17.0898 21.8182V16.5107H18.9054L19.1778 14.4417H17.0898V13.1209C17.0898 12.5221 17.2586 12.114 18.1352 12.114L19.2512 12.1135V10.2629C19.0582 10.2383 18.3957 10.1819 17.6246 10.1819C16.0143 10.1819 14.9119 11.1459 14.9119 12.916V14.4417H13.0908V16.5107H14.9119V21.8182H17.0898Z" fill="#00CBA6"/>
<mask id="mask0" style="mask-type:alpha" maskUnits="userSpaceOnUse" x="13" y="10" width="7" height="12">
<path fill-rule="evenodd" clip-rule="evenodd" d="M17.0898 21.8182V16.5107H18.9054L19.1778 14.4417H17.0898V13.1209C17.0898 12.5221 17.2586 12.114 18.1352 12.114L19.2512 12.1135V10.2629C19.0582 10.2383 18.3957 10.1819 17.6246 10.1819C16.0143 10.1819 14.9119 11.1459 14.9119 12.916V14.4417H13.0908V16.5107H14.9119V21.8182H17.0898Z" fill="white"/>
</mask>
<g mask="url(#mask0)">
</g>
</svg>
