<svg width="32" height="32" viewBox="0 0 32 32" fill="none" xmlns="http://www.w3.org/2000/svg">
<rect width="32" height="32" rx="2" fill="white"/>
<path fill-rule="evenodd" clip-rule="evenodd" d="M22.5453 12.0974C22.0902 12.299 21.6019 12.4358 21.0889 12.4968C21.6128 12.1832 22.0137 11.6856 22.2038 11.0946C21.7124 11.3851 21.17 11.596 20.5921 11.7104C20.1294 11.2167 19.4711 10.9092 18.741 10.9092C17.3403 10.9092 16.2047 12.0449 16.2047 13.4448C16.2047 13.6433 16.2271 13.8373 16.2703 14.0227C14.1627 13.9168 12.2939 12.9071 11.0431 11.3727C10.8244 11.7467 10.7 12.1824 10.7 12.6475C10.7 13.5275 11.1481 14.3039 11.828 14.7582C11.4123 14.7443 11.0214 14.6299 10.6792 14.4399V14.4715C10.6792 15.6999 11.5537 16.7252 12.7134 16.9585C12.5009 17.0157 12.2769 17.0473 12.0451 17.0473C11.8813 17.0473 11.7229 17.0311 11.5676 17.0002C11.8906 18.0084 12.827 18.7416 13.9364 18.7617C13.0688 19.4416 11.9748 19.8456 10.7866 19.8456C10.5818 19.8456 10.3802 19.8333 10.1816 19.8109C11.3042 20.5317 12.6369 20.952 14.0693 20.952C18.7349 20.952 21.2852 17.0875 21.2852 13.7361L21.2767 13.4077C21.775 13.0523 22.2061 12.6058 22.5453 12.0974Z" fill="#00CBA6"/>
<mask id="mask0" style="mask-type:alpha" maskUnits="userSpaceOnUse" x="10" y="10" width="13" height="11">
<path fill-rule="evenodd" clip-rule="evenodd" d="M22.5453 12.0974C22.0902 12.299 21.6019 12.4358 21.0889 12.4968C21.6128 12.1832 22.0137 11.6856 22.2038 11.0946C21.7124 11.3851 21.17 11.596 20.5921 11.7104C20.1294 11.2167 19.4711 10.9092 18.741 10.9092C17.3403 10.9092 16.2047 12.0449 16.2047 13.4448C16.2047 13.6433 16.2271 13.8373 16.2703 14.0227C14.1627 13.9168 12.2939 12.9071 11.0431 11.3727C10.8244 11.7467 10.7 12.1824 10.7 12.6475C10.7 13.5275 11.1481 14.3039 11.828 14.7582C11.4123 14.7443 11.0214 14.6299 10.6792 14.4399V14.4715C10.6792 15.6999 11.5537 16.7252 12.7134 16.9585C12.5009 17.0157 12.2769 17.0473 12.0451 17.0473C11.8813 17.0473 11.7229 17.0311 11.5676 17.0002C11.8906 18.0084 12.827 18.7416 13.9364 18.7617C13.0688 19.4416 11.9748 19.8456 10.7866 19.8456C10.5818 19.8456 10.3802 19.8333 10.1816 19.8109C11.3042 20.5317 12.6369 20.952 14.0693 20.952C18.7349 20.952 21.2852 17.0875 21.2852 13.7361L21.2767 13.4077C21.775 13.0523 22.2061 12.6058 22.5453 12.0974Z" fill="white"/>
</mask>
<g mask="url(#mask0)">
</g>
</svg>
