<svg width="64" height="64" viewBox="0 0 64 64" fill="none" xmlns="http://www.w3.org/2000/svg">
<rect width="64" height="64" rx="4" fill="#E6FAF6"/>
<path d="M41.468 21.478C41.342 21.15 40.858 21.078 40.636 21.314C39.631 22.199 38.342 22.685 37.001 22.685C35.153 22.685 33.439 21.765 32.418 20.224C32.3251 20.084 32.1691 20 32.0011 20C31.834 20 31.6771 20.084 31.585 20.223C30.5611 21.764 28.847 22.684 26.999 22.684C25.643 22.684 24.341 22.187 23.333 21.284C23.186 21.152 22.976 21.1199 22.795 21.2C22.615 21.28 22.499 21.4589 22.499 21.656V32.4989C22.499 38.7429 31.379 43.7279 31.757 43.937C31.832 43.979 31.916 44 31.999 44C32.0821 44 32.1661 43.979 32.2411 43.939C32.6191 43.73 41.4991 38.744 41.4991 32.501V21.701C41.5051 21.626 41.495 21.55 41.468 21.478Z" fill="#00CBA6"/>
<path d="M28.25 31.4167L30.75 33.9167L35.75 28.5" stroke="white" stroke-width="1.5" stroke-linecap="round" stroke-linejoin="round"/>
</svg>
