<svg width="48" height="48" viewBox="0 0 48 48" fill="none" xmlns="http://www.w3.org/2000/svg">
<rect width="48" height="48" rx="4" fill="white"/>
<path fill-rule="evenodd" clip-rule="evenodd" d="M29.8572 32.417C31.7322 32.417 33.2502 30.898 33.2502 29.024V26.324C32.0102 26.324 31.0102 25.324 31.0102 24.085C31.0102 22.845 32.0102 21.846 33.2502 21.846L33.2482 19.143C33.2482 17.269 31.7302 15.75 29.8562 15.75H18.1442C16.2702 15.75 14.7512 17.269 14.7512 19.143L14.7502 21.933C15.9892 21.933 16.9892 22.845 16.9892 24.085C16.9892 25.324 15.9892 26.324 14.7502 26.324V29.024C14.7502 30.898 16.2682 32.417 18.1422 32.417H29.8572Z" fill="#00CBA6" stroke="#00CBA6" stroke-width="1.5" stroke-linecap="round" stroke-linejoin="round"/>
<path fill-rule="evenodd" clip-rule="evenodd" d="M23.9998 25.8545L25.7398 26.7695C25.9028 26.8545 26.0938 26.7165 26.0628 26.5355L25.7298 24.5965L27.1388 23.2255C27.2708 23.0965 27.1978 22.8735 27.0158 22.8465L25.0698 22.5635L24.1988 20.7995C24.1178 20.6345 23.8828 20.6345 23.8008 20.7995L22.9298 22.5635L20.9848 22.8465C20.8028 22.8735 20.7298 23.0965 20.8618 23.2255L22.2698 24.5965L21.9368 26.5355C21.9058 26.7165 22.0968 26.8545 22.2598 26.7695L23.9998 25.8545Z" fill="white" stroke="white" stroke-width="1.5" stroke-linecap="round" stroke-linejoin="round"/>
</svg>
