<svg width="64" height="64" viewBox="0 0 64 64" fill="none" xmlns="http://www.w3.org/2000/svg">
<rect width="64" height="64" rx="4" fill="white"/>
<g clip-path="url(#clip0)">
<path d="M32.544 29.54V30.7466C32.544 31.1299 32.6205 31.4514 32.7716 31.7019C32.9799 32.0476 33.322 32.2457 33.7103 32.2457C34.0908 32.2457 34.469 32.0604 34.8341 31.6953L38.8195 27.7098C39.6946 26.8348 39.6946 25.4109 38.8195 24.5359L34.8341 20.5504C34.469 20.1851 34.0908 20 33.7103 20C33.1297 20 32.544 20.4636 32.544 21.4991V22.595C26.8856 22.9291 22.2014 27.2715 21.5053 32.9567C21.4663 33.2742 21.6468 33.5782 21.9444 33.6959C22.0286 33.7292 22.1163 33.7454 22.2029 33.7454C22.4223 33.7454 22.635 33.6426 22.7705 33.4575C24.6378 30.9061 27.636 29.3829 30.7905 29.3829C31.375 29.3829 31.9628 29.4356 32.544 29.54Z" fill="#00CBA6"/>
<path d="M42.0433 30.3039C41.7457 30.1859 41.4063 30.2841 41.2171 30.5424C39.35 33.0937 36.3518 34.6169 33.1973 34.6169C32.6128 34.6169 32.025 34.5642 31.4439 34.4598V33.2531C31.4439 32.2177 30.8579 31.7541 30.2775 31.7541C29.897 31.7541 29.5189 31.9394 29.1536 32.3047L25.1681 36.2899C24.2932 37.165 24.2932 38.5888 25.1683 39.4641L29.1536 43.4494C29.5189 43.8147 29.897 43.9998 30.2775 43.9998C30.8579 43.9998 31.4439 43.5362 31.4439 42.5007V41.4048C37.1024 41.0706 41.7864 36.7283 42.4826 31.0432C42.5216 30.7256 42.341 30.4216 42.0433 30.3039Z" fill="#00CBA6"/>
</g>
<defs>
<clipPath id="clip0">
<rect width="24" height="24" fill="white" transform="translate(20 20)"/>
</clipPath>
</defs>
</svg>
