<svg width="64" height="64" viewBox="0 0 64 64" fill="none" xmlns="http://www.w3.org/2000/svg">
<rect width="64" height="64" rx="4" fill="#E6FAF6"/>
<g clip-path="url(#clip0)">
<path d="M32.5438 29.54V30.7466C32.5438 31.1299 32.6204 31.4514 32.7714 31.7019C32.9798 32.0476 33.3219 32.2457 33.7102 32.2457C34.0907 32.2457 34.4688 32.0604 34.8339 31.6953L38.8194 27.7098C39.6945 26.8348 39.6945 25.4109 38.8194 24.5359L34.8339 20.5504C34.4688 20.1851 34.0907 20 33.7102 20C33.1296 20 32.5438 20.4636 32.5438 21.4991V22.595C26.8855 22.9291 22.2013 27.2715 21.5051 32.9567C21.4661 33.2742 21.6467 33.5782 21.9442 33.6959C22.0285 33.7292 22.1162 33.7454 22.2028 33.7454C22.4221 33.7454 22.6349 33.6426 22.7704 33.4575C24.6377 30.9061 27.6359 29.3829 30.7904 29.3829C31.3749 29.3829 31.9627 29.4356 32.5438 29.54Z" fill="#00CBA6"/>
<path d="M42.0432 30.3039C41.7456 30.1859 41.4061 30.2841 41.217 30.5424C39.3499 33.0937 36.3517 34.6169 33.1972 34.6169C32.6127 34.6169 32.0249 34.5642 31.4437 34.4598V33.2531C31.4437 32.2177 30.8578 31.7541 30.2774 31.7541C29.8969 31.7541 29.5187 31.9394 29.1535 32.3047L25.168 36.2899C24.2931 37.165 24.2931 38.5888 25.1682 39.4641L29.1535 43.4494C29.5187 43.8147 29.8969 43.9998 30.2774 43.9998C30.8578 43.9998 31.4437 43.5362 31.4437 42.5007V41.4048C37.1022 41.0706 41.7863 36.7283 42.4824 31.0432C42.5214 30.7256 42.3409 30.4216 42.0432 30.3039Z" fill="#00CBA6"/>
</g>
<defs>
<clipPath id="clip0">
<rect width="24" height="24" fill="white" transform="translate(20 20)"/>
</clipPath>
</defs>
</svg>
