<svg width="48" height="48" viewBox="0 0 48 48" fill="none" xmlns="http://www.w3.org/2000/svg">
<rect width="48" height="48" rx="4" fill="white"/>
<path fill-rule="evenodd" clip-rule="evenodd" d="M28.3345 14.75H19.6655C16.6445 14.75 14.7505 16.889 14.7505 19.916V28.084C14.7505 31.111 16.6355 33.25 19.6655 33.25H28.3335C31.3645 33.25 33.2505 31.111 33.2505 28.084V19.916C33.2505 16.889 31.3645 14.75 28.3345 14.75Z" fill="#00CBA6" stroke="#00CBA6" stroke-width="1.5" stroke-linecap="round" stroke-linejoin="round"/>
<path fill-rule="evenodd" clip-rule="evenodd" d="M22.6925 23.9999C22.6925 25.0219 21.8635 25.8519 20.8405 25.8519C19.8185 25.8519 18.9895 25.0219 18.9895 23.9999C18.9895 22.9779 19.8185 22.1479 20.8405 22.1479C21.8635 22.1479 22.6925 22.9779 22.6925 23.9999Z" stroke="white" stroke-width="1.5" stroke-linecap="round" stroke-linejoin="round"/>
<path d="M22.6924 24H29.0104V25.852" stroke="white" stroke-width="1.5" stroke-linecap="round" stroke-linejoin="round"/>
<path d="M26.1816 25.8515V23.9995" stroke="white" stroke-width="1.5" stroke-linecap="round" stroke-linejoin="round"/>
</svg>
