<svg width="48" height="48" viewBox="0 0 48 48" fill="none" xmlns="http://www.w3.org/2000/svg">
<rect width="48" height="48" rx="4" fill="white"/>
<path d="M33.468 13.478C33.342 13.15 32.858 13.078 32.636 13.314C31.631 14.199 30.342 14.685 29.001 14.685C27.153 14.685 25.439 13.765 24.418 12.224C24.3251 12.084 24.1691 12 24.0011 12C23.834 12 23.6771 12.084 23.585 12.223C22.5611 13.764 20.847 14.684 18.999 14.684C17.643 14.684 16.341 14.187 15.333 13.284C15.186 13.152 14.976 13.1199 14.795 13.2C14.615 13.28 14.499 13.4589 14.499 13.656V24.4989C14.499 30.7429 23.379 35.7279 23.757 35.937C23.832 35.979 23.916 36 23.999 36C24.0821 36 24.1661 35.979 24.2411 35.939C24.6191 35.73 33.4991 30.744 33.4991 24.501V13.701C33.5051 13.626 33.495 13.55 33.468 13.478Z" fill="#00CBA6"/>
<path d="M20.25 23.4167L22.75 25.9167L27.75 20.5" stroke="white" stroke-width="1.5" stroke-linecap="round" stroke-linejoin="round"/>
</svg>
