<svg width="64" height="64" viewBox="0 0 64 64" fill="none" xmlns="http://www.w3.org/2000/svg">
<rect width="64" height="64" rx="4" fill="#E6FAF6"/>
<path d="M32 31.4782C34.017 31.4782 35.6521 29.8431 35.6521 27.826C35.6521 25.809 34.017 24.1738 32 24.1738C29.9829 24.1738 28.3478 25.809 28.3478 27.826C28.3478 29.8431 29.9829 31.4782 32 31.4782Z" fill="#00CBA6"/>
<path d="M39.3045 33.565C40.7452 33.565 41.9132 32.3971 41.9132 30.9563C41.9132 29.5156 40.7452 28.3477 39.3045 28.3477C37.8637 28.3477 36.6958 29.5156 36.6958 30.9563C36.6958 32.3971 37.8637 33.565 39.3045 33.565Z" fill="#00CBA6"/>
<path d="M24.7697 33.565C26.2104 33.565 27.3784 32.3971 27.3784 30.9563C27.3784 29.5156 26.2104 28.3477 24.7697 28.3477C23.329 28.3477 22.161 29.5156 22.161 30.9563C22.161 32.3971 23.329 33.565 24.7697 33.565Z" fill="#00CBA6"/>
<path d="M31.9999 32.522C28.2601 32.522 25.2173 35.5647 25.2173 39.3046C25.2173 39.5926 25.451 39.8263 25.739 39.8263H38.2608C38.5488 39.8263 38.7825 39.5926 38.7825 39.3046C38.7825 35.5647 35.7397 32.522 31.9999 32.522Z" fill="#00CBA6"/>
<path d="M25.6692 34.7216C25.3499 34.6537 25.0254 34.6089 24.6956 34.6089C22.1068 34.6089 20 36.7157 20 39.3045C20 39.5925 20.2338 39.8263 20.5218 39.8263H24.2699C24.2115 39.6625 24.1739 39.4882 24.1739 39.3045C24.1739 37.5922 24.7332 36.0113 25.6692 34.7216Z" fill="#00CBA6"/>
<path d="M39.3043 34.6089C38.9745 34.6089 38.65 34.6537 38.3307 34.7216C39.2667 36.0113 39.826 37.5922 39.826 39.3045C39.826 39.4882 39.7884 39.6624 39.73 39.8263H43.4781C43.7661 39.8263 43.9999 39.5925 43.9999 39.3045C43.9999 36.7157 41.8931 34.6089 39.3043 34.6089Z" fill="#00CBA6"/>
</svg>
