<svg width="48" height="48" viewBox="0 0 48 48" fill="none" xmlns="http://www.w3.org/2000/svg">
<rect opacity="0.2" width="48" height="48" rx="4" fill="white"/>
<path d="M28.02 22.9138C29.841 22.9138 31.317 21.4378 31.317 19.6168C31.317 17.7968 29.841 16.3198 28.02 16.3198" stroke="white" stroke-width="1.5" stroke-linecap="round" stroke-linejoin="round"/>
<path d="M29.5361 26.4966C30.0801 26.5336 30.6201 26.6116 31.1531 26.7296C31.8921 26.8766 32.7821 27.1796 33.0981 27.8426C33.3001 28.2676 33.3001 28.7626 33.0981 29.1876C32.7831 29.8506 31.8921 30.1536 31.1531 30.3056" stroke="white" stroke-width="1.5" stroke-linecap="round" stroke-linejoin="round"/>
<path fill-rule="evenodd" clip-rule="evenodd" d="M21.5915 27.2065C25.2815 27.2065 28.4335 27.7655 28.4335 29.9985C28.4335 32.2325 25.3015 32.8105 21.5915 32.8105C17.9015 32.8105 14.7505 32.2525 14.7505 30.0185C14.7505 27.7845 17.8815 27.2065 21.5915 27.2065Z" fill="white" stroke="white" stroke-width="1.5" stroke-linecap="round" stroke-linejoin="round"/>
<path fill-rule="evenodd" clip-rule="evenodd" d="M21.5915 24.019C19.1575 24.019 17.2075 22.068 17.2075 19.634C17.2075 17.201 19.1575 15.25 21.5915 15.25C24.0255 15.25 25.9765 17.201 25.9765 19.634C25.9765 22.068 24.0255 24.019 21.5915 24.019Z" fill="white" stroke="white" stroke-width="1.5" stroke-linecap="round" stroke-linejoin="round"/>
</svg>
