<svg width="64" height="64" viewBox="0 0 64 64" fill="none" xmlns="http://www.w3.org/2000/svg">
<path d="M51.5331 25.2485C51.5331 25.2485 50.0851 43.2085 49.2451 50.7739C48.8451 54.3872 46.6131 56.5045 42.9571 56.5712C35.9998 56.6965 29.0344 56.7045 22.0798 56.5579C18.5624 56.4859 16.3678 54.3419 15.9758 50.7925C15.1304 43.1605 13.6904 25.2485 13.6904 25.2485" stroke="#AAACAD" stroke-width="3" stroke-linecap="round" stroke-linejoin="round"/>
<path d="M55.2218 16.6392H10.0005" stroke="#AAACAD" stroke-width="3" stroke-linecap="round" stroke-linejoin="round"/>
<path d="M46.5082 16.6391C44.4149 16.6391 42.6122 15.1591 42.2016 13.1085L41.5536 9.86581C41.1536 8.36981 39.7989 7.33514 38.2549 7.33514H26.9669C25.4229 7.33514 24.0682 8.36981 23.6682 9.86581L23.0202 13.1085C22.6096 15.1591 20.8069 16.6391 18.7136 16.6391" stroke="#AAACAD" stroke-width="3" stroke-linecap="round" stroke-linejoin="round"/>
<path d="M39 49L41 25" stroke="#AAACAD" stroke-width="3" stroke-linecap="round" stroke-linejoin="round"/>
<path d="M27 49L25 25" stroke="#AAACAD" stroke-width="3" stroke-linecap="round" stroke-linejoin="round"/>
</svg>
