<svg width="64" height="64" viewBox="0 0 64 64" fill="none" xmlns="http://www.w3.org/2000/svg">
<path d="M8.30847 23.1856L9.24551 24.3569H9.24551L8.30847 23.1856ZM30.4623 5.4625L29.5253 4.29119V4.29119L30.4623 5.4625ZM33.5377 5.4625L32.6007 6.6338L32.6007 6.6338L33.5377 5.4625ZM55.6916 23.1856L56.6286 22.0143L55.6916 23.1856ZM33.6467 44.5965L32.6435 43.4813L32.6433 43.4815L33.6467 44.5965ZM30.3533 44.5965L31.3568 43.4815L31.3567 43.4815L30.3533 44.5965ZM55.1154 25.1077V53.4631H58.1154V25.1077H55.1154ZM51.6923 56.8862H12.3077V59.8862H51.6923V56.8862ZM8.88464 53.4631V25.1077H5.88464V53.4631H8.88464ZM9.24551 24.3569L31.3994 6.6338L29.5253 4.29119L7.37143 22.0143L9.24551 24.3569ZM32.6007 6.6338L54.7545 24.3569L56.6286 22.0143L34.4748 4.29119L32.6007 6.6338ZM31.3994 6.6338C31.7505 6.35286 32.2495 6.35286 32.6007 6.6338L34.4748 4.29119C33.028 3.13373 30.9721 3.13373 29.5253 4.29119L31.3994 6.6338ZM12.3077 56.8862C10.4172 56.8862 8.88464 55.3536 8.88464 53.4631H5.88464C5.88464 57.0105 8.76035 59.8862 12.3077 59.8862V56.8862ZM55.1154 53.4631C55.1154 55.3536 53.5828 56.8862 51.6923 56.8862V59.8862C55.2397 59.8862 58.1154 57.0105 58.1154 53.4631H55.1154ZM58.1154 25.1077C58.1154 23.9043 57.5684 22.7661 56.6286 22.0143L54.7545 24.3569C54.9826 24.5393 55.1154 24.8156 55.1154 25.1077H58.1154ZM8.88464 25.1077C8.88464 24.8156 9.01742 24.5394 9.24551 24.3569L7.37143 22.0143C6.43169 22.7661 5.88464 23.9043 5.88464 25.1077H8.88464ZM55.4103 23.0017L32.6435 43.4813L34.6499 45.7117L57.4166 25.2321L55.4103 23.0017ZM31.3567 43.4815L8.59958 23.0019L6.59279 25.2319L29.3499 45.7115L31.3567 43.4815ZM32.6433 43.4815C32.2776 43.8106 31.7225 43.8106 31.3568 43.4815L29.3499 45.7114C30.8565 47.0673 33.1436 47.0673 34.6502 45.7114L32.6433 43.4815ZM45.702 32.2419H18.2885V35.2419H45.702V32.2419ZM24.5185 39.0692L6.88389 54.3288L8.84694 56.5974L26.4816 41.3377L24.5185 39.0692ZM56.2396 55.8919L39.5415 39.191L37.42 41.3121L54.1181 58.013L56.2396 55.8919Z" fill="#80E5D3"/>
</svg>
