<svg width="56" height="56" viewBox="0 0 56 56" fill="none" xmlns="http://www.w3.org/2000/svg">
<rect width="56" height="56" rx="4" fill="#2B3031"/>
<path fill-rule="evenodd" clip-rule="evenodd" d="M28.02 18C22.21 18 18 22.7461 18 28.015C18 29.6975 18.49 31.4291 19.35 33.0115C19.51 33.2729 19.53 33.6024 19.42 33.9139L18.75 36.1572C18.6 36.698 19.06 37.0976 19.57 36.9374L21.59 36.3375C22.14 36.1572 22.57 36.3866 23.08 36.698C24.54 37.5583 26.36 38 28 38C32.96 38 38 34.1642 38 27.985C38 22.656 33.7 18 28.02 18Z" fill="#00CBA6" stroke="#00CBA6" stroke-width="1.5" stroke-linecap="round" stroke-linejoin="round"/>
<path fill-rule="evenodd" clip-rule="evenodd" d="M23.6952 29.3909C23.0504 29.3909 22.5266 28.8671 22.5266 28.2223C22.5266 27.5795 23.0504 27.0557 23.6952 27.0557C24.3399 27.0557 24.8638 27.5795 24.8638 28.2223C24.8638 28.8671 24.3399 29.3909 23.6952 29.3909ZM28.238 29.3909C27.5933 29.3909 27.0695 28.8671 27.0695 28.2223C27.0695 27.5795 27.5933 27.0557 28.238 27.0557C28.8828 27.0557 29.4066 27.5795 29.4066 28.2223C29.4066 28.8671 28.8828 29.3909 28.238 29.3909ZM31.6124 28.2223C31.6124 28.8671 32.1362 29.3909 32.781 29.3909C33.4258 29.3909 33.9496 28.8671 33.9496 28.2223C33.9496 27.5795 33.4258 27.0557 32.781 27.0557C32.1362 27.0557 31.6124 27.5795 31.6124 28.2223Z" fill="#2B3031"/>
</svg>
