<svg width="56" height="56" viewBox="0 0 56 56" fill="none" xmlns="http://www.w3.org/2000/svg">
<rect width="56" height="56" rx="4" fill="#2B3031"/>
<path fill-rule="evenodd" clip-rule="evenodd" d="M36.8067 23.6236L36.1842 22.5435C35.6577 21.6296 34.4907 21.3143 33.5755 21.8387C33.1399 22.0953 32.6201 22.1682 32.1307 22.0411C31.6413 21.914 31.2226 21.5975 30.9668 21.1614C30.8023 20.8841 30.7139 20.5684 30.7105 20.246C30.7254 19.7292 30.5304 19.2284 30.17 18.8577C29.8096 18.4869 29.3145 18.2779 28.7975 18.2781H27.5435C27.037 18.2781 26.5513 18.4799 26.194 18.8389C25.8367 19.198 25.6372 19.6846 25.6396 20.1911C25.6246 21.2369 24.7725 22.0768 23.7266 22.0767C23.4042 22.0734 23.0885 21.9849 22.8112 21.8204C21.8961 21.296 20.7291 21.6113 20.2025 22.5252L19.5343 23.6236C19.0084 24.5364 19.3194 25.7026 20.23 26.2323C20.8219 26.574 21.1865 27.2056 21.1865 27.8891C21.1865 28.5725 20.8219 29.2041 20.23 29.5458C19.3206 30.0719 19.0092 31.2353 19.5343 32.1454L20.1659 33.2346C20.4126 33.6798 20.8266 34.0083 21.3162 34.1474C21.8058 34.2866 22.3306 34.2249 22.7746 33.976C23.2111 33.7213 23.7312 33.6516 24.2193 33.7822C24.7075 33.9128 25.1232 34.233 25.3742 34.6717C25.5387 34.9489 25.6271 35.2646 25.6305 35.587C25.6305 36.6435 26.487 37.5 27.5435 37.5H28.7975C29.8505 37.5001 30.7055 36.6491 30.7105 35.5962C30.7081 35.088 30.9089 34.6 31.2682 34.2407C31.6275 33.8814 32.1155 33.6807 32.6236 33.6831C32.9452 33.6917 33.2596 33.7798 33.5389 33.9394C34.4517 34.4653 35.6179 34.1544 36.1476 33.2438L36.8067 32.1454C37.0618 31.7075 37.1318 31.186 37.0012 30.6964C36.8706 30.2067 36.5502 29.7894 36.111 29.5367C35.6718 29.284 35.3514 28.8666 35.2208 28.3769C35.0902 27.8873 35.1603 27.3658 35.4154 26.928C35.5812 26.6383 35.8214 26.3982 36.111 26.2323C37.0161 25.7029 37.3264 24.5435 36.8067 23.6328V23.6236Z" fill="#00CBA6" stroke="#00CBA6" stroke-width="1.5" stroke-linecap="round" stroke-linejoin="round"/>
<circle cx="28.1751" cy="27.8891" r="2.63616" fill="#2B3031" stroke="#2B3031" stroke-width="1.5" stroke-linecap="round" stroke-linejoin="round"/>
</svg>
