<svg width="56" height="56" viewBox="0 0 56 56" fill="none" xmlns="http://www.w3.org/2000/svg">
<rect width="56" height="56" rx="4" fill="#2B3031"/>
<path d="M32.02 26.9133C33.841 26.9133 35.317 25.4373 35.317 23.6163C35.317 21.7963 33.841 20.3193 32.02 20.3193" stroke="#00CBA6" stroke-width="1.5" stroke-linecap="round" stroke-linejoin="round"/>
<path d="M33.5361 30.4963C34.0801 30.5333 34.6201 30.6113 35.1531 30.7293C35.8921 30.8763 36.7821 31.1793 37.0981 31.8423C37.3001 32.2673 37.3001 32.7623 37.0981 33.1873C36.7831 33.8503 35.8921 34.1533 35.1531 34.3053" stroke="#00CBA6" stroke-width="1.5" stroke-linecap="round" stroke-linejoin="round"/>
<path fill-rule="evenodd" clip-rule="evenodd" d="M25.5914 31.2063C29.2814 31.2063 32.4334 31.7653 32.4334 33.9983C32.4334 36.2323 29.3014 36.8103 25.5914 36.8103C21.9014 36.8103 18.7504 36.2523 18.7504 34.0183C18.7504 31.7843 21.8814 31.2063 25.5914 31.2063Z" fill="#00CBA6" stroke="#00CBA6" stroke-width="1.5" stroke-linecap="round" stroke-linejoin="round"/>
<path fill-rule="evenodd" clip-rule="evenodd" d="M25.5914 28.0188C23.1574 28.0188 21.2074 26.0678 21.2074 23.6338C21.2074 21.2008 23.1574 19.2498 25.5914 19.2498C28.0254 19.2498 29.9764 21.2008 29.9764 23.6338C29.9764 26.0678 28.0254 28.0188 25.5914 28.0188Z" fill="#00CBA6" stroke="#00CBA6" stroke-width="1.5" stroke-linecap="round" stroke-linejoin="round"/>
</svg>
