<svg width="40" height="40" viewBox="0 0 40 40" fill="none" xmlns="http://www.w3.org/2000/svg">
<circle opacity="0.25" cx="20" cy="20" r="19.5" stroke="white"/>
<path fill-rule="evenodd" clip-rule="evenodd" d="M13.9936 15.2484C14.2045 14.8992 15.3664 13.6292 16.1956 13.6675C16.4434 13.6881 16.6625 13.838 16.8405 14.0119C17.2493 14.4111 18.4194 15.9207 18.4858 16.2384C18.6474 17.0175 17.719 17.4666 18.0031 18.2519C18.7275 20.0244 19.9757 21.2725 21.749 21.9962C22.5336 22.2803 22.9828 21.352 23.7619 21.5142C24.0789 21.5806 25.5893 22.7507 25.9885 23.1594C26.1617 23.3367 26.3124 23.5565 26.3329 23.8044C26.3637 24.6773 25.0149 25.8555 24.752 26.0062C24.1317 26.4498 23.3224 26.4423 22.3357 25.9836C19.5827 24.8382 15.1829 20.5215 14.0162 17.6645C13.5698 16.6834 13.539 15.8687 13.9936 15.2484Z" fill="#00CBA6"/>
</svg>
