<svg width="64" height="64" viewBox="0 0 64 64" fill="none" xmlns="http://www.w3.org/2000/svg">
<rect opacity="0.1" width="64" height="64" rx="4" fill="white"/>
<g clip-path="url(#clip0)">
<path d="M32.544 29.54V30.7466C32.544 31.1299 32.6205 31.4514 32.7716 31.7019C32.9799 32.0476 33.322 32.2457 33.7103 32.2457C34.0908 32.2457 34.469 32.0604 34.8341 31.6953L38.8195 27.7098C39.6946 26.8348 39.6946 25.4109 38.8195 24.5359L34.8341 20.5504C34.469 20.1851 34.0908 20 33.7103 20C33.1297 20 32.544 20.4636 32.544 21.4991V22.595C26.8856 22.9291 22.2014 27.2715 21.5053 32.9567C21.4663 33.2742 21.6468 33.5782 21.9444 33.6959C22.0286 33.7292 22.1163 33.7454 22.2029 33.7454C22.4223 33.7454 22.635 33.6426 22.7705 33.4575C24.6378 30.9061 27.636 29.3829 30.7905 29.3829C31.375 29.3829 31.9628 29.4356 32.544 29.54Z" fill="#00CBA6"/>
<path d="M42.043 30.304C41.7455 30.1861 41.406 30.2843 41.2169 30.5426C39.3497 33.0938 36.3516 34.6171 33.197 34.6171C32.6126 34.6171 32.0248 34.5643 31.4436 34.46V33.2533C31.4436 32.2178 30.8577 31.7542 30.2772 31.7542C29.8967 31.7542 29.5186 31.9395 29.1533 32.3048L25.1679 36.2901C24.293 37.1652 24.293 38.589 25.168 39.4642L29.1533 43.4495C29.5186 43.8148 29.8967 44 30.2772 44C30.8577 44 31.4436 43.5363 31.4436 42.5009V41.405C37.1021 41.0708 41.7861 36.7285 42.4823 31.0434C42.5213 30.7257 42.3408 30.4218 42.043 30.304Z" fill="#00CBA6"/>
</g>
<defs>
<clipPath id="clip0">
<rect width="24" height="24" fill="white" transform="translate(20 20)"/>
</clipPath>
</defs>
</svg>
