<svg width="90" height="90" viewBox="0 0 90 90" fill="none" xmlns="http://www.w3.org/2000/svg">
<path d="M83 0H88C89.1046 0 90 0.895431 90 2V4H83V0Z" fill="#926900"/>
<path d="M0 83L-2.18557e-07 88C-2.66839e-07 89.1046 0.89543 90 2 90L4 90L4 83L0 83Z" fill="#926900"/>
<path d="M48 0L0 48V88L88 0H48Z" fill="url(#paint0_linear)"/>
<path d="M9.1295 53.9318L11.4135 51.6478C11.6162 51.4451 11.8283 51.2943 12.0499 51.1953C12.2761 51.0915 12.5 51.0373 12.7216 51.0326C12.9432 51.0279 13.1624 51.0774 13.3792 51.1811C13.5961 51.2754 13.7988 51.4168 13.9873 51.6054C14.1759 51.7939 14.3102 51.9801 14.3904 52.164C14.4705 52.3384 14.5106 52.5105 14.5106 52.6802C14.5153 52.8452 14.4847 53.0031 14.4187 53.1539C14.3574 53.3001 14.2725 53.4321 14.1641 53.5499L14.2065 53.5924C14.315 53.4839 14.4517 53.3896 14.6167 53.3095C14.7864 53.2247 14.9702 53.1775 15.1682 53.1681C15.3662 53.1492 15.5736 53.1775 15.7904 53.2529C16.0026 53.3236 16.2147 53.4651 16.4268 53.6772C16.6248 53.8752 16.778 54.0944 16.8865 54.3348C16.9949 54.5658 17.0562 54.8015 17.0703 55.0419C17.0845 55.2823 17.0515 55.518 16.9713 55.749C16.8865 55.9753 16.7521 56.1804 16.5683 56.3642L14.0651 58.8674L9.1295 53.9318ZM14.2065 57.142L15.5076 55.841C15.6867 55.6618 15.781 55.478 15.7904 55.2894C15.7952 55.0961 15.7103 54.9123 15.5359 54.7379L15.2955 54.4974C15.1211 54.323 14.9372 54.2382 14.7439 54.2429C14.5507 54.2476 14.3645 54.3395 14.1853 54.5187L12.8842 55.8197L14.2065 57.142ZM12.1206 55.0561L13.2731 53.9035C13.4429 53.7338 13.5301 53.557 13.5348 53.3731C13.5348 53.1846 13.4523 53.0078 13.2873 52.8428L13.0681 52.6236C12.9031 52.4586 12.7287 52.3785 12.5448 52.3832C12.3563 52.3832 12.1771 52.4681 12.0074 52.6378L10.8548 53.7903L12.1206 55.0561ZM19.1074 53.8251L14.1718 48.8895L17.4245 45.6368L18.2518 46.4641L15.9325 48.7834L17.1275 49.9784L19.1781 47.9278L20.0054 48.7551L17.9548 50.8057L19.2135 52.0644L21.5328 49.7451L22.3601 50.5724L19.1074 53.8251ZM25.3201 47.7821C24.8958 48.2064 24.4598 48.4916 24.0119 48.6377C23.5688 48.7791 23.1186 48.8333 22.6614 48.8003L22.6826 47.5629C23.0503 47.5912 23.3897 47.5535 23.7008 47.4497C24.0167 47.3413 24.3019 47.1598 24.5564 46.9053C24.844 46.6177 24.9995 46.3396 25.0231 46.0709C25.042 45.7975 24.9453 45.5547 24.7332 45.3426C24.5682 45.1776 24.3867 45.0904 24.1887 45.0809C23.9907 45.0715 23.7385 45.1729 23.4321 45.385L22.8947 45.781C21.7539 46.6106 20.7828 46.6248 19.9814 45.8234C19.7599 45.6018 19.5996 45.3614 19.5006 45.1022C19.4063 44.8382 19.3733 44.5648 19.4016 44.2819C19.4299 43.9991 19.5195 43.7162 19.6703 43.4334C19.8212 43.1411 20.0356 42.8559 20.3138 42.5778C20.6862 42.2054 21.0727 41.9414 21.4734 41.7858C21.8741 41.6303 22.2937 41.5737 22.7321 41.6161L22.6967 42.8536C22.4233 42.8253 22.1523 42.8512 21.8836 42.9313C21.6149 43.0115 21.3485 43.1835 21.0845 43.4475C20.8158 43.7162 20.665 43.9708 20.632 44.2112C20.599 44.4422 20.6744 44.6496 20.8583 44.8335C21.0468 45.022 21.2401 45.1069 21.4381 45.088C21.6361 45.0692 21.8765 44.9607 22.1593 44.7627L22.7038 44.388C23.2931 43.9779 23.821 43.7704 24.2877 43.7657C24.7544 43.7516 25.1928 43.9496 25.6029 44.3597C25.8386 44.5954 26.0107 44.8523 26.1191 45.1304C26.2275 45.3991 26.2723 45.6843 26.2535 45.986C26.2346 46.2783 26.1474 46.5776 25.9918 46.8841C25.841 47.1858 25.6171 47.4851 25.3201 47.7821ZM26.0682 38.6477L30.1765 42.756L29.2431 43.6894L25.1348 39.5811L23.7347 40.9812L22.9074 40.1538L26.6409 36.4203L27.4683 37.2476L26.0682 38.6477ZM34.2307 38.8714C33.8065 39.2957 33.3704 39.5809 32.9226 39.727C32.4795 39.8685 32.0293 39.9227 31.572 39.8897L31.5932 38.6522C31.9609 38.6805 32.3003 38.6428 32.6115 38.5391C32.9273 38.4307 33.2125 38.2492 33.4671 37.9946C33.7546 37.7071 33.9102 37.4289 33.9338 37.1602C33.9526 36.8868 33.856 36.644 33.6438 36.4319C33.4789 36.2669 33.2974 36.1797 33.0994 36.1703C32.9014 36.1609 32.6492 36.2622 32.3428 36.4743L31.8054 36.8703C30.6646 37.7 29.6935 37.7141 28.8921 36.9128C28.6705 36.6912 28.5103 36.4508 28.4113 36.1915C28.317 35.9275 28.284 35.6541 28.3123 35.3713C28.3405 35.0884 28.4301 34.8056 28.581 34.5227C28.7318 34.2305 28.9463 33.9453 29.2244 33.6671C29.5968 33.2947 29.9834 33.0307 30.3841 32.8752C30.7848 32.7196 31.2043 32.663 31.6427 32.7055L31.6074 33.9429C31.334 33.9146 31.0629 33.9405 30.7942 34.0207C30.5255 34.1008 30.2592 34.2729 29.9952 34.5369C29.7265 34.8056 29.5756 35.0601 29.5426 35.3005C29.5096 35.5315 29.5851 35.739 29.7689 35.9228C29.9575 36.1114 30.1507 36.1962 30.3487 36.1774C30.5467 36.1585 30.7871 36.0501 31.07 35.8521L31.6144 35.4773C32.2037 35.0672 32.7317 34.8598 33.1984 34.8551C33.6651 34.8409 34.1035 35.0389 34.5136 35.449C34.7493 35.6847 34.9214 35.9417 35.0298 36.2198C35.1382 36.4885 35.183 36.7737 35.1641 37.0754C35.1453 37.3677 35.0581 37.667 34.9025 37.9734C34.7516 38.2751 34.5277 38.5745 34.2307 38.8714ZM37.2878 35.6447L32.3522 30.7091L35.6049 27.4564L36.4322 28.2837L34.1129 30.603L35.3079 31.798L37.3585 29.7474L38.1858 30.5748L36.1352 32.6254L37.3938 33.884L39.7131 31.5647L40.5405 32.392L37.2878 35.6447ZM41.8812 31.0513L36.9456 26.1157L37.879 25.1823L41.9873 29.2906L43.9318 27.346L44.7591 28.1734L41.8812 31.0513ZM45.9222 27.0103L40.9866 22.0747L41.92 21.1413L46.0283 25.2496L47.9728 23.305L48.8001 24.1323L45.9222 27.0103ZM49.9632 22.9693L45.0276 18.0337L48.2803 14.781L49.1076 15.6083L46.7883 17.9276L47.9833 19.1226L50.0339 17.072L50.8612 17.8993L48.8106 19.9499L50.0693 21.2086L52.3886 18.8893L53.2159 19.7166L49.9632 22.9693ZM55.49 17.4425L54.5566 18.3758L49.621 13.4402L51.8484 11.2128C52.0747 10.9866 52.3128 10.8192 52.5626 10.7108C52.8124 10.6024 53.067 10.5552 53.3263 10.5694C53.5855 10.5741 53.8425 10.6377 54.097 10.7603C54.3563 10.8781 54.6014 11.0526 54.8324 11.2836C55.1718 11.623 55.3863 11.993 55.4759 12.3937C55.5702 12.7897 55.5159 13.1927 55.3132 13.6029L58.3326 14.5999L57.2931 15.6393L54.4718 14.6565L53.5879 15.5403L55.49 17.4425ZM54.0051 13.5534C54.1842 13.3742 54.2785 13.1857 54.2879 12.9877C54.2927 12.785 54.2054 12.5941 54.0263 12.4149L53.701 12.0897C53.5219 11.9105 53.3333 11.8257 53.1354 11.8351C52.9374 11.8445 52.7488 11.9388 52.5697 12.1179L51.3676 13.32L52.803 14.7554L54.0051 13.5534Z" fill="#2B3031"/>
<defs>
<linearGradient id="paint0_linear" x1="70.5" y1="0" x2="0" y2="70.5" gradientUnits="userSpaceOnUse">
<stop stop-color="#FFC01D"/>
<stop offset="0.489583" stop-color="#FFE872"/>
<stop offset="1" stop-color="#FFC01D"/>
</linearGradient>
</defs>
</svg>
