<svg width="24" height="24" viewBox="0 0 24 24" fill="none" xmlns="http://www.w3.org/2000/svg">
<path d="M3.71997 18C4.80797 17.04 5.71997 16.048 6.45597 15.024C7.19197 13.968 7.67197 12.976 7.89597 12.048H7.79997C6.90397 12.048 6.21597 11.76 5.73597 11.184C5.25597 10.608 5.01597 9.952 5.01597 9.216V8.928C5.01597 8.096 5.28797 7.408 5.83197 6.864C6.37597 6.288 7.09597 6 7.99197 6C8.91997 6 9.63997 6.304 10.152 6.912C10.696 7.52 10.968 8.256 10.968 9.12V9.552C10.968 10.256 10.84 10.992 10.584 11.76C10.328 12.528 9.97597 13.296 9.52797 14.064C9.11197 14.832 8.59997 15.552 7.99197 16.224C7.41597 16.896 6.79197 17.488 6.11997 18H3.71997ZM13.032 18C14.12 17.04 15.032 16.048 15.768 15.024C16.504 13.968 16.984 12.976 17.208 12.048H17.112C16.216 12.048 15.528 11.76 15.048 11.184C14.568 10.608 14.328 9.952 14.328 9.216V8.928C14.328 8.096 14.6 7.408 15.144 6.864C15.688 6.288 16.408 6 17.304 6C18.232 6 18.952 6.304 19.464 6.912C20.008 7.52 20.28 8.256 20.28 9.12V9.552C20.28 10.256 20.152 10.992 19.896 11.76C19.64 12.528 19.288 13.296 18.84 14.064C18.424 14.832 17.912 15.552 17.304 16.224C16.728 16.896 16.104 17.488 15.432 18H13.032Z" fill="#00CBA6"/>
</svg>
