<svg width="32" height="32" viewBox="0 0 32 32" fill="none" xmlns="http://www.w3.org/2000/svg">
<path d="M4.95996 24C6.41063 22.72 7.62663 21.3973 8.60796 20.032C9.58929 18.624 10.2293 17.3013 10.528 16.064H10.4C9.20529 16.064 8.28796 15.68 7.64796 14.912C7.00796 14.144 6.68796 13.2693 6.68796 12.288V11.904C6.68796 10.7947 7.05063 9.87733 7.77596 9.152C8.50129 8.384 9.46129 8 10.656 8C11.8933 8 12.8533 8.40533 13.536 9.216C14.2613 10.0267 14.624 11.008 14.624 12.16V12.736C14.624 13.6747 14.4533 14.656 14.112 15.68C13.7706 16.704 13.3013 17.728 12.704 18.752C12.1493 19.776 11.4666 20.736 10.656 21.632C9.88796 22.528 9.05596 23.3173 8.15996 24H4.95996ZM17.376 24C18.8266 22.72 20.0426 21.3973 21.024 20.032C22.0053 18.624 22.6453 17.3013 22.944 16.064H22.816C21.6213 16.064 20.704 15.68 20.064 14.912C19.424 14.144 19.104 13.2693 19.104 12.288V11.904C19.104 10.7947 19.4666 9.87733 20.192 9.152C20.9173 8.384 21.8773 8 23.072 8C24.3093 8 25.2693 8.40533 25.952 9.216C26.6773 10.0267 27.04 11.008 27.04 12.16V12.736C27.04 13.6747 26.8693 14.656 26.528 15.68C26.1866 16.704 25.7173 17.728 25.12 18.752C24.5653 19.776 23.8826 20.736 23.072 21.632C22.304 22.528 21.472 23.3173 20.576 24H17.376Z" fill="#00CBA6"/>
</svg>
