<svg width="56" height="56" viewBox="0 0 56 56" fill="none" xmlns="http://www.w3.org/2000/svg">
<rect width="56" height="56" rx="4" fill="#E6FAF6"/>
<path fill-rule="evenodd" clip-rule="evenodd" d="M30.7368 18.7618H24.0838C22.0248 18.7618 20.2498 20.4308 20.2498 22.4908V33.2038C20.2498 35.3798 21.9088 37.1148 24.0838 37.1148H32.0728C34.1328 37.1148 35.8018 35.2648 35.8018 33.2038V24.0378L30.7368 18.7618Z" fill="#00CBA6" stroke="#00CBA6" stroke-width="1.5" stroke-linecap="round" stroke-linejoin="round"/>
<path fill-rule="evenodd" clip-rule="evenodd" d="M30.677 18.518V21.427C30.677 22.847 31.826 23.999 33.245 24.002C34.562 24.005 35.909 24.006 36 24" fill="#80E5D3"/>
<path d="M30.677 18.518V21.427C30.677 22.847 31.826 23.999 33.245 24.002C34.562 24.005 35.909 24.006 36 24L30.677 18.518Z" stroke="#80E5D3" stroke-linecap="round" stroke-linejoin="round"/>
<path d="M30.2841 31.5577H24.8871" stroke="white" stroke-width="1.5" stroke-linecap="round" stroke-linejoin="round"/>
<path d="M28.2426 26.6056H24.8866" stroke="white" stroke-width="1.5" stroke-linecap="round" stroke-linejoin="round"/>
</svg>
