<svg width="80" height="80" viewBox="0 0 80 80" fill="none" xmlns="http://www.w3.org/2000/svg">
<circle cx="40" cy="40" r="32" stroke="#D5D6D6" stroke-width="4"/>
<path d="M40 8C57.6731 8 72 22.3269 72 40C72 57.6731 57.6731 72 40 72C34.7805 72 29.8529 70.7504 25.5 68.534" stroke="#F9F9F9" stroke-width="12" stroke-linecap="round" stroke-linejoin="round"/>
<path d="M40 8C57.6731 8 72 22.3269 72 40C72 57.6731 57.6731 72 40 72C34.7805 72 29.8529 70.7504 25.5 68.534" stroke="#00CBA6" stroke-width="4" stroke-linecap="round" stroke-linejoin="round"/>
<path d="M29.6226 45.168C29.0813 45.168 28.5959 45.0793 28.1666 44.902C27.7466 44.7247 27.3873 44.4727 27.0886 44.146C26.7993 43.81 26.5753 43.4087 26.4166 42.942C26.2579 42.4753 26.1786 41.948 26.1786 41.36C26.1786 40.6507 26.2859 39.9833 26.5006 39.358C26.7153 38.7327 26.9906 38.1587 27.3266 37.636C27.6626 37.1133 28.0359 36.6513 28.4466 36.25C28.8666 35.8393 29.2773 35.4987 29.6786 35.228H31.7786C31.2279 35.6293 30.7333 36.0167 30.2946 36.39C29.8559 36.7633 29.4733 37.146 29.1466 37.538C28.8199 37.93 28.5446 38.3453 28.3206 38.784C28.1059 39.2227 27.9379 39.7033 27.8166 40.226L27.9146 40.254C28.0173 40.058 28.1339 39.876 28.2646 39.708C28.4046 39.5307 28.5633 39.3767 28.7406 39.246C28.9273 39.1153 29.1373 39.0127 29.3706 38.938C29.6039 38.8633 29.8746 38.826 30.1826 38.826C30.5933 38.826 30.9713 38.896 31.3166 39.036C31.6713 39.176 31.9746 39.3813 32.2266 39.652C32.4879 39.9133 32.6886 40.2307 32.8286 40.604C32.9779 40.9773 33.0526 41.3927 33.0526 41.85C33.0526 42.3447 32.9686 42.7973 32.8006 43.208C32.6419 43.6093 32.4133 43.9547 32.1146 44.244C31.8159 44.5333 31.4519 44.762 31.0226 44.93C30.6026 45.0887 30.1359 45.168 29.6226 45.168ZM29.6226 43.88C30.1919 43.88 30.6353 43.7307 30.9526 43.432C31.2699 43.124 31.4286 42.676 31.4286 42.088V41.892C31.4286 41.304 31.2699 40.8607 30.9526 40.562C30.6353 40.254 30.1919 40.1 29.6226 40.1C29.0533 40.1 28.6099 40.254 28.2926 40.562C27.9753 40.8607 27.8166 41.304 27.8166 41.892V42.088C27.8166 42.676 27.9753 43.124 28.2926 43.432C28.6099 43.7307 29.0533 43.88 29.6226 43.88ZM40.6211 36.6H36.2811L36.0291 40.058H36.1271C36.2391 39.862 36.3558 39.6893 36.4771 39.54C36.5985 39.3813 36.7385 39.246 36.8971 39.134C37.0558 39.022 37.2378 38.938 37.4431 38.882C37.6485 38.8167 37.8911 38.784 38.1711 38.784C38.5911 38.784 38.9785 38.854 39.3331 38.994C39.6971 39.134 40.0098 39.3347 40.2711 39.596C40.5418 39.8573 40.7518 40.1793 40.9011 40.562C41.0505 40.9353 41.1251 41.36 41.1251 41.836C41.1251 42.3213 41.0458 42.7693 40.8871 43.18C40.7378 43.5907 40.5138 43.9453 40.2151 44.244C39.9165 44.5333 39.5478 44.762 39.1091 44.93C38.6798 45.0887 38.1898 45.168 37.6391 45.168C37.2005 45.168 36.8131 45.1167 36.4771 45.014C36.1411 44.9207 35.8425 44.7947 35.5811 44.636C35.3291 44.468 35.1051 44.2813 34.9091 44.076C34.7225 43.8613 34.5545 43.642 34.4051 43.418L35.5531 42.508C35.6745 42.704 35.8005 42.8813 35.9311 43.04C36.0618 43.1987 36.2111 43.3387 36.3791 43.46C36.5471 43.5813 36.7338 43.6747 36.9391 43.74C37.1538 43.8053 37.3965 43.838 37.6671 43.838C38.2458 43.838 38.6891 43.6793 38.9971 43.362C39.3145 43.0447 39.4731 42.606 39.4731 42.046V41.878C39.4731 41.318 39.3145 40.8793 38.9971 40.562C38.6891 40.2447 38.2458 40.086 37.6671 40.086C37.2471 40.086 36.9111 40.1653 36.6591 40.324C36.4071 40.4827 36.1925 40.66 36.0151 40.856L34.7131 40.674L35.0771 35.228H40.6211V36.6ZM44.1577 45L50.9337 35.228H52.3477L45.5717 45H44.1577ZM44.7877 40.604C44.0317 40.604 43.453 40.3707 43.0517 39.904C42.6503 39.428 42.4497 38.7373 42.4497 37.832C42.4497 36.9267 42.6503 36.2407 43.0517 35.774C43.453 35.298 44.0317 35.06 44.7877 35.06C45.5437 35.06 46.1223 35.298 46.5237 35.774C46.925 36.2407 47.1257 36.9267 47.1257 37.832C47.1257 38.7373 46.925 39.428 46.5237 39.904C46.1223 40.3707 45.5437 40.604 44.7877 40.604ZM44.7877 39.666C45.4503 39.666 45.7817 39.1853 45.7817 38.224V37.44C45.7817 36.4787 45.4503 35.998 44.7877 35.998C44.125 35.998 43.7937 36.4787 43.7937 37.44V38.224C43.7937 39.1853 44.125 39.666 44.7877 39.666ZM51.7177 45.168C50.9617 45.168 50.383 44.9347 49.9817 44.468C49.5803 43.992 49.3797 43.3013 49.3797 42.396C49.3797 41.4907 49.5803 40.8047 49.9817 40.338C50.383 39.862 50.9617 39.624 51.7177 39.624C52.4737 39.624 53.0523 39.862 53.4537 40.338C53.855 40.8047 54.0557 41.4907 54.0557 42.396C54.0557 43.3013 53.855 43.992 53.4537 44.468C53.0523 44.9347 52.4737 45.168 51.7177 45.168ZM51.7177 44.23C52.3803 44.23 52.7117 43.7493 52.7117 42.788V42.004C52.7117 41.0427 52.3803 40.562 51.7177 40.562C51.055 40.562 50.7237 41.0427 50.7237 42.004V42.788C50.7237 43.7493 51.055 44.23 51.7177 44.23Z" fill="#2B3031"/>
</svg>
