<svg width="84" height="84" viewBox="0 0 84 84" fill="none" xmlns="http://www.w3.org/2000/svg">
<g clip-path="url(#clip0)">
<path d="M6.65464 72.712H8.13864L14.4946 54.456H17.1546L23.4826 72.712H24.9666V74H18.3586V72.712H20.8786L19.1426 67.644H11.5266L9.79064 72.712H12.3106V74H6.65464V72.712ZM11.9186 66.3H18.7226L15.4466 56.5H15.2786L11.9186 66.3ZM32.5452 74.336C31.4999 74.336 30.5666 74.1587 29.7452 73.804C28.9426 73.4307 28.2612 72.9173 27.7012 72.264C27.1412 71.592 26.7119 70.7987 26.4132 69.884C26.1146 68.9507 25.9652 67.9147 25.9652 66.776C25.9652 65.6187 26.1239 64.5733 26.4412 63.64C26.7772 62.7067 27.2439 61.9133 27.8412 61.26C28.4386 60.6067 29.1479 60.1027 29.9692 59.748C30.8092 59.3933 31.7332 59.216 32.7412 59.216C34.2532 59.216 35.4479 59.5427 36.3252 60.196C37.2212 60.8307 37.6692 61.6427 37.6692 62.632C37.6692 63.2293 37.5106 63.696 37.1932 64.032C36.8946 64.368 36.4746 64.536 35.9332 64.536C35.3546 64.536 34.9252 64.368 34.6452 64.032C34.3652 63.696 34.2252 63.2947 34.2252 62.828C34.2252 62.4173 34.3279 62.0627 34.5332 61.764C34.7386 61.4653 35.0279 61.232 35.4012 61.064V60.98C35.1586 60.8307 34.8412 60.7187 34.4492 60.644C34.0759 60.5693 33.5906 60.532 32.9932 60.532C32.3399 60.532 31.7332 60.6533 31.1732 60.896C30.6319 61.1387 30.1652 61.484 29.7732 61.932C29.3812 62.3613 29.0732 62.8747 28.8492 63.472C28.6252 64.0507 28.5132 64.6853 28.5132 65.376V67.448C28.5132 68.2133 28.6159 68.9133 28.8212 69.548C29.0266 70.164 29.3159 70.696 29.6892 71.144C30.0812 71.592 30.5386 71.9373 31.0612 72.18C31.6026 72.4227 32.2092 72.544 32.8812 72.544C34.0199 72.544 34.9159 72.3107 35.5692 71.844C36.2226 71.3587 36.7452 70.7333 37.1372 69.968L38.0332 70.556C37.8652 71.0413 37.6226 71.5173 37.3052 71.984C36.9879 72.432 36.6052 72.8333 36.1572 73.188C35.7092 73.524 35.1772 73.7947 34.5612 74C33.9639 74.224 33.2919 74.336 32.5452 74.336ZM39.9827 72.712H42.0547V61.372L39.9827 61.008V60.056L44.2947 59.216V61.736H44.4347C44.5654 61.4373 44.7241 61.1387 44.9107 60.84C45.1161 60.5413 45.3587 60.2707 45.6387 60.028C45.9374 59.7853 46.2734 59.5893 46.6467 59.44C47.0387 59.2907 47.4867 59.216 47.9907 59.216C48.8121 59.216 49.4654 59.412 49.9507 59.804C50.4547 60.196 50.7067 60.7653 50.7067 61.512C50.7067 62.072 50.5667 62.5107 50.2867 62.828C50.0067 63.1453 49.6427 63.304 49.1947 63.304C48.6907 63.304 48.2894 63.1733 47.9907 62.912C47.6921 62.632 47.5427 62.2773 47.5427 61.848C47.5427 61.4747 47.6174 61.176 47.7667 60.952C47.9347 60.7093 48.1214 60.5693 48.3267 60.532V60.476C48.2521 60.4573 48.1587 60.448 48.0467 60.448C47.9347 60.4293 47.7947 60.42 47.6267 60.42C47.2347 60.42 46.8427 60.5227 46.4507 60.728C46.0587 60.9147 45.7041 61.1667 45.3867 61.484C45.0881 61.7827 44.8361 62.128 44.6307 62.52C44.4441 62.912 44.3507 63.304 44.3507 63.696V72.712H46.9827V74H39.9827V72.712ZM58.3328 72.964C59.0235 72.964 59.6208 72.852 60.1248 72.628C60.6475 72.3853 61.0675 72.0587 61.3848 71.648C61.7208 71.2187 61.9635 70.724 62.1128 70.164C62.2808 69.5853 62.3648 68.96 62.3648 68.288V65.264C62.3648 64.592 62.2808 63.976 62.1128 63.416C61.9635 62.8373 61.7208 62.3427 61.3848 61.932C61.0675 61.5027 60.6475 61.176 60.1248 60.952C59.6208 60.7093 59.0235 60.588 58.3328 60.588C57.6235 60.588 57.0168 60.7093 56.5128 60.952C56.0088 61.176 55.5888 61.5027 55.2528 61.932C54.9355 62.3427 54.6928 62.8373 54.5248 63.416C54.3755 63.976 54.3008 64.592 54.3008 65.264V68.288C54.3008 68.96 54.3755 69.5853 54.5248 70.164C54.6928 70.724 54.9355 71.2187 55.2528 71.648C55.5888 72.0587 56.0088 72.3853 56.5128 72.628C57.0168 72.852 57.6235 72.964 58.3328 72.964ZM58.3328 74.336C57.3435 74.336 56.4381 74.1587 55.6168 73.804C54.7955 73.4493 54.0955 72.9453 53.5168 72.292C52.9381 71.62 52.4901 70.8267 52.1728 69.912C51.8555 68.9787 51.6968 67.9333 51.6968 66.776C51.6968 65.6373 51.8555 64.6013 52.1728 63.668C52.4901 62.7347 52.9381 61.9413 53.5168 61.288C54.0955 60.616 54.7955 60.1027 55.6168 59.748C56.4381 59.3933 57.3435 59.216 58.3328 59.216C59.3221 59.216 60.2275 59.3933 61.0488 59.748C61.8701 60.1027 62.5701 60.616 63.1488 61.288C63.7275 61.9413 64.1755 62.7347 64.4928 63.668C64.8101 64.6013 64.9688 65.6373 64.9688 66.776C64.9688 67.9333 64.8101 68.9787 64.4928 69.912C64.1755 70.8267 63.7275 71.62 63.1488 72.292C62.5701 72.9453 61.8701 73.4493 61.0488 73.804C60.2275 74.1587 59.3221 74.336 58.3328 74.336ZM72.7375 74.336C71.8602 74.336 71.0948 74.1587 70.4415 73.804C69.7882 73.4307 69.3588 73.02 69.1535 72.572H69.0415V74H67.3615V69.66H69.0415V70.248C69.0415 71.0507 69.2935 71.704 69.7975 72.208C70.3015 72.712 71.1322 72.964 72.2895 72.964C73.3535 72.964 74.1748 72.7773 74.7535 72.404C75.3508 72.012 75.6495 71.396 75.6495 70.556C75.6495 69.2493 74.8562 68.4187 73.2695 68.064L71.5895 67.7C70.2082 67.4013 69.1628 66.8973 68.4535 66.188C67.7628 65.4787 67.4175 64.508 67.4175 63.276C67.4175 62.0067 67.8562 61.0173 68.7335 60.308C69.6108 59.58 70.7868 59.216 72.2615 59.216C73.1575 59.216 73.8855 59.356 74.4455 59.636C75.0242 59.916 75.4068 60.28 75.5935 60.728H75.7055V59.552H77.3855V63.892H75.7055V62.828C75.7055 61.3347 74.6602 60.588 72.5695 60.588C71.6175 60.588 70.8708 60.7747 70.3295 61.148C69.8068 61.5027 69.5455 62.072 69.5455 62.856C69.5455 63.5093 69.7602 64.06 70.1895 64.508C70.6188 64.9373 71.2068 65.236 71.9535 65.404L73.5215 65.74C74.9588 66.0387 76.0322 66.5333 76.7415 67.224C77.4695 67.9147 77.8335 68.876 77.8335 70.108C77.8335 70.7053 77.7122 71.2653 77.4695 71.788C77.2455 72.292 76.9095 72.74 76.4615 73.132C76.0322 73.5053 75.5002 73.7947 74.8655 74C74.2495 74.224 73.5402 74.336 72.7375 74.336Z" fill="#161819"/>
<path opacity="0.35" d="M30 12L54 36M30 36L54 12" stroke="#00CBA6" stroke-width="6" stroke-linecap="round" stroke-linejoin="round"/>
<circle cx="54" cy="24" r="3" fill="#00CBA6"/>
<circle cx="42" cy="36" r="3" fill="#00CBA6"/>
<circle cx="30" cy="24" r="3" fill="#00CBA6"/>
<circle cx="42" cy="12" r="3" fill="#00CBA6"/>
</g>
<defs>
<clipPath id="clip0">
<rect width="84" height="84" fill="white"/>
</clipPath>
</defs>
</svg>
