<svg width="66" height="44" viewBox="0 0 66 44" fill="none" xmlns="http://www.w3.org/2000/svg">
<g clip-path="url(#clip0)">
<path d="M60.0665 43.9611C57.0243 43.9611 55.2202 42.4042 55.0821 40.1621H57.9907C57.9907 40.9096 58.4049 41.9044 60.2047 41.9662C61.4519 41.9662 62.1421 41.219 62.1421 40.6572C62.004 39.7859 60.8949 39.7241 59.7903 39.5337C58.543 39.3529 57.5766 39.1005 56.8816 38.791C55.9152 38.2912 55.3581 37.2296 55.3581 36.1109C55.3581 34.116 57.0243 32.5591 59.9284 32.5591C62.6992 32.5591 64.4987 33.9924 64.6319 36.1727H61.8661C61.8661 35.6154 61.728 34.6778 60.0663 34.6778C58.9572 34.6778 58.267 34.8634 58.1289 35.6727C58.1289 36.7963 60.4807 36.7343 62.2802 37.1676C63.9417 37.6056 65.0508 38.6625 65.0508 40.1621C65.0508 42.9043 62.8371 43.9611 60.0665 43.9611ZM7.06104 25.5634L16.6111 20.0171L21.7335 28.8056H8.86058" fill="black"/>
<path fill-rule="evenodd" clip-rule="evenodd" d="M28.5181 32.5381V43.6305H25.7681V32.5381H28.5181Z" fill="black"/>
<path d="M2.62809 38.2484C2.62809 39.9907 4.15139 41.4238 5.80804 41.4238C7.61236 41.4238 8.99298 39.9907 8.99298 38.2484C8.99298 36.5679 7.61236 35.073 5.80804 35.073C4.15139 35.073 2.62809 36.5679 2.62809 38.2484ZM5.67013 43.9804C2.62788 43.9804 0 41.4238 0 38.2484C0 35.073 2.62809 32.5785 5.67013 32.5785C6.91739 32.5785 8.02652 32.8927 8.99298 33.5733V32.7021H11.7637V43.728H8.99319V43.0425C8.16487 43.6662 6.91761 43.9804 5.67035 43.9804H5.67013ZM42.6336 28.8031L29.3466 5.6279L38.8964 0.0197754L55.5065 28.8031H42.6336ZM15.3628 38.2484C15.3628 39.9907 16.7484 41.4238 18.5478 41.4238C20.2044 41.4238 21.7327 39.9907 21.7327 38.2484C21.7327 36.5679 20.2044 35.073 18.5478 35.073C16.7482 35.073 15.3628 36.5679 15.3628 38.2484ZM18.4097 43.9804C15.2247 43.9804 12.735 41.4238 12.735 38.2484C12.735 35.073 15.2247 32.5785 18.4097 32.5785C19.6521 32.5785 20.7615 32.8927 21.7327 33.5733V28.9031H24.4987V43.728H21.7325V43.0425C20.7613 43.6662 19.6521 43.9804 18.4094 43.9804H18.4097ZM18.2733 15.658L27.9612 10.1785L38.6206 28.8024H28.5137V31.5446H25.7475V28.8024L18.2733 15.658ZM63.2555 31.6309C62.5605 31.6309 61.8703 31.0073 61.8703 30.2598C61.8703 29.5124 62.5605 28.8887 63.2555 28.8887C64.0838 28.8887 64.6411 29.5126 64.6411 30.2598C64.6411 31.007 64.0838 31.6311 63.2555 31.6311V31.6309ZM63.2555 29.0793C62.5605 29.0793 62.1464 29.6362 62.1464 30.2598C62.1464 30.8834 62.5605 31.4453 63.2555 31.4453C63.9459 31.4453 64.3601 30.8837 64.3601 30.2598C64.3601 29.636 63.9459 29.0793 63.2555 29.0793Z" fill="black"/>
<path d="M63.5408 31.0119L63.2645 30.3883H62.9885V31.0119H62.779V29.517H63.4026C63.5408 29.517 63.8168 29.7076 63.8168 29.9551C63.8168 30.2025 63.6787 30.3265 63.5408 30.3883L63.8168 31.0119H63.5408ZM63.2645 29.7076H62.9885V30.2027H63.2645C63.5408 30.2027 63.5408 30.1409 63.5408 29.9551C63.5408 29.8267 63.5408 29.7076 63.2645 29.7076ZM44.9739 38.2483C44.9739 39.9907 46.3595 41.4238 48.1588 41.4238C49.8203 41.4238 51.339 39.9907 51.339 38.2483C51.339 36.5678 49.8203 35.0729 48.1588 35.0729C46.3593 35.0729 44.9739 36.5678 44.9739 38.2483ZM48.0162 43.9803C44.836 43.9803 42.346 41.4238 42.346 38.2483C42.346 35.0729 44.836 32.5784 48.0159 32.5784C49.2634 32.5784 50.3726 32.8926 51.339 33.5733V32.702H53.9717V43.7279H51.3392V43.0425C50.3726 43.6661 49.2634 43.9803 48.0159 43.9803H48.0162ZM32.2487 38.2483C32.2487 39.9907 33.772 41.4238 35.4334 41.4238C37.2332 41.4238 38.6183 39.9907 38.6183 38.2483C38.6183 36.5678 37.233 35.0729 35.4334 35.0729C33.772 35.0729 32.2487 36.5678 32.2487 38.2483ZM38.6183 28.903H41.3843V43.7279H38.6183V43.0425C37.7853 43.6661 36.6761 43.9803 35.4334 43.9803C32.2487 43.9803 29.6206 41.4238 29.6206 38.2483C29.6206 35.0729 32.2487 32.5784 35.4334 32.5784C36.6759 32.5784 37.7853 32.8926 38.6183 33.5733V28.903Z" fill="black"/>
</g>
<defs>
<clipPath id="clip0">
<rect width="65.0503" height="44" fill="white"/>
</clipPath>
</defs>
</svg>
