<svg width="72" height="72" viewBox="0 0 72 72" fill="none" xmlns="http://www.w3.org/2000/svg">
<path fill-rule="evenodd" clip-rule="evenodd" d="M56.406 48.1886V56.756H53.2527V48.1886H56.406ZM46.2737 50.0708C47.9833 50.0708 49.3848 51.1175 49.3848 52.4017C49.3848 53.6911 47.9833 54.7378 46.2737 54.7378C44.564 54.7378 43.1629 53.6911 43.1629 52.4017C43.1629 51.1175 44.564 50.0708 46.2737 50.0708ZM47.1051 48.1886L44.5218 45.2736H48.3755L51.9255 50.0708C52.2714 50.5613 52.5329 51.3976 52.5702 52.2385C52.6969 54.8308 49.7352 56.9659 46.2737 56.9659C42.8122 56.9659 39.9771 54.8405 39.9771 52.2385C39.9767 49.632 42.5178 47.5951 47.1051 48.1886ZM32.2884 52.9863C32.2884 54.1491 33.3671 54.7378 34.2546 54.7378C35.1421 54.7378 36.3243 54.0837 36.3243 52.9863V48.1886H39.3088V52.9863C39.3088 56.3119 36.3662 56.9797 34.2546 56.9797C32.1479 56.9797 29.1444 56.3119 29.1444 52.9863V48.1886H32.2884V52.9863ZM22.8239 45.2736L30.0688 56.7556H26.4531L25.1779 54.7378H18.1716L16.8493 56.7556H13.1592L19.9044 46.3759L18.882 45.2736H22.8239ZM23.8892 52.6729H19.5028L21.7264 49.258L23.8892 52.6729Z" fill="black"/>
<path fill-rule="evenodd" clip-rule="evenodd" d="M56.0222 36.4629C56.9097 36.5332 57.7412 36.4439 58.61 36.2433C59.1019 36.1046 59.5828 35.9297 60.0488 35.72C60.4983 35.4921 60.9294 35.2297 61.3383 34.9352C61.7341 34.6259 62.1058 34.287 62.4503 33.9215C62.7799 33.5425 63.0812 33.1398 63.3516 32.7165C63.6784 32.1603 63.9261 31.6 64.1367 30.9882C64.2768 30.4791 64.384 29.9841 64.4498 29.4653C64.4778 29.0593 64.4871 28.6663 64.4778 28.2648C64.4311 27.5969 64.3142 26.9851 64.1367 26.3408C64.0103 25.9804 63.8698 25.625 63.7158 25.2755C63.3658 24.5841 62.9549 23.9909 62.4503 23.4023C62.1043 23.0396 61.7326 22.7023 61.3383 22.393C60.8272 22.023 60.2793 21.7066 59.7033 21.4491C59.2263 21.2611 58.7362 21.1082 58.2369 20.9915C57.5293 20.8662 56.8108 20.813 56.0924 20.8328C54.887 20.9306 53.6772 21.2997 52.6589 21.9631C52.5891 22.0142 52.5099 22.0796 52.4397 22.1308C53.2431 23.341 53.7754 24.7514 54.0978 26.1574C54.1912 26.6105 54.2659 27.0643 54.3126 27.5215C54.4665 28.9738 54.3219 30.4454 53.92 31.8469C53.5789 33.0007 53.0511 34.1684 52.3553 35.1541C53.4109 35.912 54.7332 36.3692 56.0222 36.4629ZM50.2441 26.0647C50.1117 25.7031 49.9557 25.3505 49.7772 25.0092C49.3566 25.8033 49.0533 26.6486 48.9173 27.5409C48.843 28.0497 48.8101 28.564 48.843 29.0825C48.9128 30.1896 49.2684 31.3008 49.7958 32.2776C50.132 31.6004 50.3845 30.9318 50.5384 30.1896C50.7954 28.9188 50.7158 27.5734 50.3322 26.3307L50.2441 26.0647ZM44.1059 36.3886C45.0916 36.225 45.9795 35.8929 46.8528 35.4163L47.1886 35.2157C47.0018 34.9632 46.8382 34.6737 46.684 34.4026C46.1584 33.4727 45.7593 32.4768 45.4973 31.4413C45.3487 30.8378 45.2441 30.2244 45.1843 29.6058C45.1095 28.6718 45.1473 27.7323 45.2967 26.8073C45.5817 25.1306 46.2032 23.5565 47.1598 22.1551C46.7538 21.8887 46.3332 21.6411 45.885 21.4543C45.1237 21.1365 44.3203 20.9217 43.4937 20.8608C41.7743 20.7301 40.093 21.1271 38.6449 22.0617C39.6725 23.6077 40.3078 25.42 40.5648 27.2559C40.6208 27.8117 40.6582 28.3395 40.6537 28.8998C40.6257 29.998 40.4389 31.0677 40.1117 32.1185C39.7614 33.2349 39.2429 34.2584 38.6079 35.2389C40.2148 36.2948 42.2046 36.6874 44.1059 36.3886ZM36.524 25.9949C36.3885 25.6202 36.2214 25.2577 36.0246 24.9113C35.7261 25.4858 35.4688 26.0789 35.3007 26.7005C35.1371 27.34 35.0347 27.9992 35.0347 28.6622C35.0392 29.0828 35.0766 29.5079 35.1561 29.9188C35.3315 30.7712 35.6322 31.5929 36.0485 32.3571C36.3096 31.8477 36.5341 31.3154 36.688 30.7641C36.828 30.2079 36.9311 29.6708 36.964 29.1011C36.9965 28.3253 36.9405 27.5503 36.7627 26.798C36.7021 26.5317 36.6133 26.2519 36.524 25.9949ZM31.695 25.8642C31.9983 24.673 32.4843 23.5707 33.1286 22.5241L33.3766 22.1554L33.414 22.0994C32.5212 21.5481 31.5639 21.1652 30.5318 20.9643C29.7844 20.8193 28.9716 20.8051 28.2144 20.866C27.1592 21.0158 26.1544 21.343 25.2486 21.9033C25.141 21.9735 25.0241 22.0527 24.9263 22.1319C25.735 23.3421 26.262 24.7526 26.5847 26.1585C26.7483 26.9081 26.8406 27.6715 26.8604 28.4385C26.869 29.1342 26.819 29.8294 26.711 30.5168C26.6327 30.9655 26.5312 31.4098 26.4069 31.848C26.0663 33.0019 25.5381 34.1695 24.8422 35.1552C27.3038 36.9168 30.9009 36.9351 33.3908 35.2112C32.4379 33.7866 31.7884 32.2216 31.5037 30.5306C31.3154 29.3633 31.3044 28.1743 31.4712 27.0038C31.531 26.6206 31.6057 26.2425 31.695 25.8642ZM22.6836 25.9385C22.5624 25.6205 22.422 25.3102 22.2634 25.0092C21.8476 25.8033 21.5436 26.6486 21.4084 27.5409C21.3333 28.0497 21.3004 28.564 21.3333 29.0825C21.4039 30.1896 21.7587 31.3008 22.2817 32.2776C22.5342 31.7685 22.749 31.2687 22.8984 30.7174C23.3376 29.1897 23.2536 27.4292 22.6836 25.9385ZM17.8348 30.7641C17.6644 29.8386 17.6034 28.8964 17.6529 27.9567C17.7874 25.8793 18.4761 23.8759 19.6475 22.1551C19.2456 21.8887 18.8206 21.6411 18.3768 21.4543C17.6107 21.1365 16.8072 20.9217 15.9851 20.8608C15.3733 20.8141 14.7659 20.8474 14.1585 20.9217C13.776 20.9917 13.3971 21.0806 13.0234 21.188C12.4205 21.3898 11.8399 21.6527 11.2906 21.9728C10.868 22.2421 10.4666 22.5435 10.0901 22.8741C9.72342 23.2177 9.38445 23.5896 9.0763 23.9865C8.70623 24.4966 8.39145 25.0447 8.13724 25.6214C7.94683 26.098 7.79226 26.5882 7.67482 27.0878L7.60945 27.4756C7.54124 28.002 7.51476 28.5331 7.53026 29.0638C7.55379 29.4608 7.60945 29.8486 7.67519 30.2408C7.85747 31.0069 8.10064 31.6889 8.46483 32.3896C8.65402 32.7165 8.85831 33.0343 9.07704 33.3421C9.46925 33.8471 9.88984 34.2812 10.371 34.7018C10.7678 35.0128 11.1862 35.2954 11.623 35.5474C12.1975 35.8373 12.7765 36.0704 13.398 36.2433C13.7716 36.3318 14.1641 36.4069 14.547 36.4532C14.9766 36.4812 15.3923 36.4999 15.8174 36.4764C16.955 36.3947 18.0643 36.0832 19.0783 35.5609L19.3442 35.4159L19.6759 35.2154C19.3629 34.7854 19.1011 34.2812 18.8583 33.8046C18.3867 32.8397 18.0427 31.8176 17.8348 30.7641ZM63.5384 37.8827C63.0876 38.2056 62.6215 38.5065 62.1417 38.7844C61.642 39.0371 61.1307 39.2662 60.6095 39.4709C60.072 39.6532 59.53 39.812 58.9742 39.9382L58.4091 40.0409C57.4188 40.1623 56.4237 40.2139 55.4331 40.1063C54.244 39.9736 53.0817 39.6618 51.9858 39.1814C51.21 38.8294 50.4713 38.4006 49.7809 37.9014C49.0103 38.4385 48.2158 38.9013 47.3474 39.2655C46.1548 39.7564 44.8916 40.0542 43.6053 40.1478C42.7076 40.1996 41.8068 40.1526 40.9193 40.0077C39.1394 39.6857 37.463 38.9943 35.9868 37.9387C35.3563 38.3825 34.6974 38.7795 33.9922 39.1015C32.5351 39.7649 30.9931 40.1294 29.3911 40.1668C28.3355 40.1806 27.2888 40.0686 26.2609 39.8026C24.8131 39.4239 23.4908 38.7795 22.2675 37.901C21.6224 38.3492 20.9732 38.7418 20.268 39.0735C18.8056 39.7507 17.2084 40.1339 15.5966 40.1668C14.9239 40.1761 14.2654 40.1201 13.602 40.0406C13.0382 39.9396 12.48 39.8102 11.9293 39.6528C11.3969 39.4717 10.8732 39.266 10.3597 39.0365C9.86472 38.7841 9.38298 38.5065 8.91643 38.2047C8.3152 37.7773 7.74535 37.3075 7.21126 36.7987C6.82878 36.3974 6.46567 35.9781 6.12317 35.5422C5.80251 35.091 5.50323 34.6249 5.22633 34.1456C4.97263 33.6449 4.74046 33.1336 4.53045 32.613C4.3486 32.076 4.19278 31.5305 4.06353 30.9785C3.96405 30.4077 3.89238 29.8324 3.84875 29.2547L3.83008 28.666L3.84875 28.0728L3.89059 27.489L3.96567 26.9141L4.06353 26.349L4.19913 25.7883L4.34854 25.2467L4.53045 24.7145L4.74074 24.1867L4.9742 23.6776L5.22633 23.1823L5.50648 22.6963L5.80082 22.2335L6.12317 21.7808L6.46421 21.3512C6.8284 20.9265 7.21127 20.5295 7.60833 20.1459C8.02992 19.7854 8.46633 19.4425 8.91643 19.1183C9.38529 18.8203 9.86685 18.5428 10.3597 18.2865C10.8732 18.0556 11.397 17.8482 11.9293 17.6649C12.481 17.5107 13.0365 17.3751 13.602 17.2824C14.429 17.1793 15.2601 17.1233 16.0919 17.1704C17.1475 17.2496 18.1751 17.455 19.1657 17.8009C20.1293 18.1534 21.0468 18.6208 21.8984 19.193L22.0897 19.3286L22.2439 19.4407C23.8931 18.2121 25.8691 17.4419 27.9152 17.2126C29.1389 17.096 30.3768 17.1468 31.5818 17.4087C32.6587 17.6466 33.6977 18.0317 34.6694 18.5532C35.1367 18.8105 35.5804 19.1 36.0149 19.4033C36.7485 18.852 37.5706 18.3944 38.4163 18.0396C40.037 17.3527 41.8449 17.0677 43.6061 17.1708C44.1716 17.2126 44.7461 17.2921 45.2971 17.4087C46.6161 17.697 47.8745 18.214 49.0152 18.9364C49.2628 19.0948 49.5198 19.2681 49.7533 19.4407C50.8898 18.6036 52.1664 17.9757 53.5233 17.5865C54.5509 17.2921 55.5926 17.1614 56.6624 17.1472L57.2694 17.1614L57.8719 17.2085L58.4602 17.2832C59.0331 17.3824 59.6007 17.5101 60.1609 17.6657C60.6999 17.8432 61.2285 18.0507 61.7443 18.2872C62.2423 18.5371 62.7258 18.8148 63.1925 19.1191C63.6407 19.441 64.0706 19.7772 64.4864 20.1466C64.8843 20.5235 65.2603 20.9228 65.6126 21.3426C65.9518 21.7763 66.2667 22.2285 66.5557 22.697L66.8269 23.183L67.0794 23.6783L67.2987 24.1874L67.4996 24.7103L67.6726 25.2475L67.8216 25.7891C67.9479 26.355 68.0461 26.9104 68.116 27.4897C68.1578 28.0784 68.1716 28.6667 68.1578 29.2554C68.1151 29.8335 68.0418 30.4089 67.9382 30.9792L67.8074 31.5399L67.6535 32.0819L67.4712 32.6138C67.2677 33.1363 67.0369 33.6479 66.7798 34.1463C66.4118 34.7867 65.9965 35.3987 65.5375 35.9773C65.1776 36.399 64.7956 36.8012 64.393 37.1823L63.9724 37.5424L63.5384 37.8827Z" fill="black"/>
<path fill-rule="evenodd" clip-rule="evenodd" d="M22.445 35.1225C20.7447 33.4218 19.778 31.2453 19.778 28.6664C19.778 26.2094 20.698 24.0231 22.2534 22.3418C23.7811 24.0093 24.7246 26.2329 24.7246 28.6664C24.7246 30.3574 24.3978 31.7824 23.6033 33.1507C24.7855 29.3952 24.4441 26.751 22.9963 24.6536C23.2578 25.0227 23.9679 27.092 23.8371 28.6661C23.8371 30.4086 23.3045 32.0297 22.3979 33.3748L22.445 35.1225ZM67.8172 28.6668C67.8172 34.8099 62.8048 39.8122 56.6666 39.8122C54.0975 39.8122 51.7245 38.9385 49.7858 37.4537C47.8431 38.9206 45.4555 39.8122 42.8632 39.8122C40.3031 39.8122 37.9394 38.9385 35.9918 37.4955C34.0438 38.9531 31.6947 39.8122 29.1532 39.8122C26.5841 39.8122 24.2114 38.9385 22.2724 37.4537C20.3338 38.9206 17.9421 39.8122 15.3543 39.8122C9.21123 39.8122 4.19922 34.8095 4.19922 28.6668C4.19922 22.5241 9.21123 17.5117 15.3543 17.5117C17.9421 17.5117 20.3338 18.4045 22.2485 19.899C24.1688 18.4045 26.565 17.5117 29.1532 17.5117C31.741 17.5117 34.1002 18.3992 36.0198 19.8567C37.9757 18.334 40.3844 17.5086 42.8632 17.5117C45.4555 17.5117 47.8431 18.4045 49.7582 19.899C51.6822 18.4045 54.0788 17.5117 56.6666 17.5117C63.0383 17.5117 67.8172 22.5103 67.8172 28.6668ZM56.6666 18.6798C54.7792 18.6798 53.0419 19.2169 51.5422 20.1559C53.9944 18.1983 57.9321 17.7736 62.4545 19.3525C60.8244 18.3623 58.7221 17.7224 56.6666 17.7224C54.0553 17.7224 51.6356 18.6704 49.7485 20.212L49.7765 21.4685C47.978 19.7451 45.5396 18.6801 42.8629 18.6801C41.0523 18.677 39.2782 19.189 37.7477 20.1563C40.1914 18.1986 44.134 17.7739 48.6507 19.3529C47.0202 18.3626 44.9229 17.7228 42.8629 17.7228C40.2605 17.7228 37.9069 18.6009 36.0194 20.147V21.4689C34.2261 19.7454 31.8295 18.6805 29.1528 18.6805C27.3409 18.6773 25.5653 19.1893 24.0332 20.1567C26.4806 18.199 30.4187 17.7743 34.9403 19.3532C33.3098 18.363 31.2129 17.7231 29.1528 17.7231C26.546 17.7231 24.1266 18.6712 22.2347 20.2127L22.2631 21.4693C20.4694 19.7458 18.0306 18.6809 15.3543 18.6809C13.541 18.6783 11.7642 19.1901 10.2302 20.1571C12.6824 18.1994 16.6202 17.7747 21.1418 19.3536C19.5117 18.3634 17.4095 17.7235 15.3543 17.7235C9.32815 17.7235 4.40952 22.647 4.40952 28.6679C4.40952 30.7608 5.1379 33.0494 6.37577 34.8947C3.87686 29.9667 5.1379 26.2202 6.73137 23.8894C6.11916 25.258 5.32055 27.089 5.36276 28.6679C5.51703 34.1009 9.85632 38.6554 15.3547 38.6554C18.1431 38.6554 20.4974 37.6651 22.3475 35.7964C24.1785 37.707 26.323 38.6554 29.1536 38.6554C30.4386 38.6556 31.7108 38.4001 32.8961 37.9037C34.0813 37.4073 35.1559 36.6798 36.0571 35.7639C37.8378 37.5482 40.1589 38.6554 42.8636 38.6554C45.6572 38.6554 48.0071 37.6651 49.8564 35.7964C51.6923 37.707 53.8319 38.6554 56.667 38.6554C62.1653 38.6554 66.6496 34.1663 66.6496 28.6679C66.6492 23.2062 62.1276 18.6798 56.6666 18.6798ZM34.7024 35.0807C33.1633 36.4186 31.1925 37.1553 29.1532 37.1549C27.1492 37.1216 26.252 36.7716 25.3974 36.3514C27.8451 38.2572 33.2826 37.5191 34.6695 36.323C33.1563 37.4115 31.2547 38.0379 29.1528 38.0379C26.574 38.0379 24.4019 37.0944 22.6926 35.4079C24.449 33.6187 25.3365 31.3719 25.3365 28.6672C25.3365 26.0372 24.3044 23.632 22.6273 21.8428C23.9118 20.5534 26.453 19.2923 29.1532 19.2923C31.6103 19.2923 33.9224 20.4088 35.6044 21.9687H34.3662C32.7828 23.8651 31.9274 26.0189 31.9274 28.6672C31.9274 30.7601 32.6562 33.0487 33.8896 34.8939C31.3906 29.9659 32.6562 26.2194 34.2448 23.8886C33.6326 25.2572 32.8433 27.0931 32.8807 28.6672C32.9371 31.1104 34.0438 33.3759 35.5432 35.1322L34.7024 35.0807ZM36.0149 34.9219C34.436 33.2403 33.4974 31.1239 33.4974 28.6668C33.4974 26.2097 34.4547 23.963 36.0194 22.2858C37.6125 23.9581 38.5236 26.1769 38.5236 28.6668C38.5236 30.3578 38.1964 31.7828 37.4022 33.151C38.5841 29.3956 38.2427 26.7513 36.7949 24.654C37.0567 25.023 37.7668 27.0924 37.6405 28.6664C37.6405 30.4605 37.0754 32.1373 36.1177 33.5107L36.0149 34.9219ZM36.5009 35.4165C38.1549 33.6508 39.1399 31.292 39.1399 28.6664C39.1399 26.0364 38.178 23.7665 36.5009 21.9679C38.1825 20.3147 40.3314 19.2916 42.8632 19.2916C45.3065 19.2916 47.5951 20.2116 49.2629 21.758L48.1886 21.7629C46.5917 23.7091 45.7199 26.1493 45.7218 28.6668C45.7218 30.7597 46.4506 33.0483 47.6885 34.8935C45.1896 29.9656 46.451 26.2191 48.0437 23.8882C47.4315 25.2569 46.637 27.0834 46.6747 28.6668C46.7307 31.2826 47.6093 33.4364 49.2999 35.2439L48.3332 35.1416C46.857 36.3892 44.9419 37.1553 42.8629 37.1553C40.8589 37.122 40.0412 36.7253 39.1119 36.3518C41.5548 38.2575 46.9922 37.5195 48.3795 36.3234C46.866 37.4119 44.9647 38.0383 42.8629 38.0383C40.1678 38.0375 38.2341 36.9677 36.5009 35.4165ZM38.1078 35.3328C39.4436 36.295 41.1065 36.8557 42.8629 36.8557C44.624 36.8557 46.3475 36.2621 47.6974 35.3141C46.3662 33.4689 45.5112 31.1101 45.5112 28.6668C45.5112 26.2146 46.3102 23.9398 47.6691 22.071C46.283 21.0305 44.5957 20.4698 42.8625 20.4738C41.1061 20.4738 39.4802 21.0109 38.1444 21.9683C39.4286 23.781 40.2978 26.2519 40.2978 28.6668C40.2986 31.1101 39.4391 33.4876 38.1078 35.3328ZM36.0482 33.0767C36.8955 31.7622 37.3448 30.2308 37.3421 28.6668C37.3421 27.0132 36.8838 25.4672 36.0198 24.2199C35.1883 25.5325 34.6747 27.0461 34.6747 28.6668C34.6747 30.2551 35.2537 31.8104 36.0482 33.0767ZM33.8989 35.2999C32.5351 33.4035 31.7126 31.1239 31.7126 28.6668C31.712 26.2663 32.4906 23.9305 33.9314 22.0105C32.5953 21.0808 30.8905 20.4738 29.1577 20.4738C27.0786 20.3569 24.8087 21.5481 24.477 22.1084C25.7104 23.8882 26.5041 26.3076 26.5041 28.6668C26.5041 31.1052 25.7104 33.3666 24.3459 35.2391C25.6775 36.267 27.3498 36.8557 29.1528 36.8557C30.914 36.8557 32.5587 36.295 33.8989 35.2999ZM21.7865 35.2439L20.8194 35.1416C19.3432 36.3892 17.433 37.1553 15.3543 37.1553C13.3503 37.122 12.7564 36.6458 11.5936 36.3518C14.0421 38.2575 19.4788 37.5195 20.8709 36.3234C19.3529 37.4119 17.4517 38.0383 15.3543 38.0383C10.1974 38.0383 5.97909 33.8294 5.97909 28.6676C5.97909 23.5058 10.1925 19.2927 15.3543 19.2927C17.7972 19.2927 20.0862 20.2127 21.754 21.7591L20.6748 21.764C19.1381 23.6462 18.2084 26.0566 18.2084 28.6679C18.2084 30.7608 18.9417 33.0494 20.1751 34.8947C17.6762 29.9667 18.942 26.2202 20.5303 23.8894C19.9184 25.258 19.1288 27.0845 19.1665 28.6679C19.2218 31.2826 20.0955 33.436 21.7865 35.2439ZM22.2862 33.0065C23.108 31.7081 23.5436 30.2029 23.5424 28.6664C23.5424 27.0692 23.0804 25.5699 22.2721 24.2894C21.4734 25.5415 20.9598 27.0692 20.9598 28.6664C20.9598 30.2315 21.5153 31.7731 22.2862 33.0065ZM20.1889 35.3141C18.8576 33.4689 17.9978 31.1101 17.9978 28.6668C17.9978 26.2146 18.7971 23.9398 20.156 22.071C18.7718 21.0305 17.086 20.4697 15.3543 20.4738C10.8417 20.4738 7.16093 24.1546 7.16093 28.6668C7.16093 33.1798 10.8417 36.8557 15.3543 36.8557C17.111 36.8557 18.8393 36.2621 20.1889 35.3141ZM49.9588 35.1225C48.2585 33.4218 47.2914 31.2453 47.2914 28.6664C47.2914 26.2094 48.2118 24.0231 49.7623 22.3418C51.2945 24.0093 52.2332 26.2329 52.2332 28.6664C52.2332 30.3574 51.9067 31.7824 51.1122 33.1507C52.2989 29.3952 51.9531 26.751 50.5097 24.6536C50.7667 25.0227 51.4817 27.092 51.3506 28.6661C51.3506 30.4086 50.8183 32.0297 49.9117 33.3748L49.9588 35.1225ZM50.2061 35.4075C51.9579 33.6183 52.8503 31.3715 52.8503 28.6668C52.8503 26.0368 51.8175 23.6316 50.1358 21.8424C51.4253 20.553 53.9619 19.292 56.6662 19.292C61.8236 19.292 66.0317 23.505 66.0317 28.6668C66.0317 30.3578 65.7098 31.7828 64.9156 33.151C66.0975 29.3956 65.7516 26.7513 64.3087 24.654C64.5656 25.023 65.2802 27.0924 65.1491 28.6664C65.1491 33.3423 61.3376 37.1545 56.6662 37.1545C54.6623 37.1213 53.7654 36.7713 52.9059 36.3511C55.354 38.2568 60.7908 37.5187 62.1784 36.3227C60.6649 37.4111 58.7636 38.0375 56.6662 38.0375C54.0882 38.0375 51.9157 37.094 50.2061 35.4075ZM51.8552 35.2391C53.1909 36.267 54.8632 36.8557 56.6666 36.8557C61.174 36.8557 64.8555 33.1794 64.8555 28.6668C64.8555 24.1546 61.1744 20.4738 56.6666 20.4738C54.5879 20.3569 52.3176 21.5481 51.9863 22.1084C53.2193 23.8882 54.0138 26.3076 54.0138 28.6668C54.0134 31.1048 53.2193 33.3662 51.8552 35.2391ZM49.8 33.0065C50.5938 31.7406 51.0562 30.2551 51.0562 28.6664C51.0562 27.0692 50.5893 25.5699 49.7858 24.2894C48.9824 25.5415 48.4729 27.0692 48.4729 28.6664C48.4729 30.2315 49.0246 31.7731 49.8 33.0065Z" fill="black"/>
</svg>
