<svg width="98" height="32" viewBox="0 0 98 32" fill="none" xmlns="http://www.w3.org/2000/svg">
<g clip-path="url(#clip0)">
<path d="M37.5109 27.9099C33.8762 25.5685 28.9435 25.1577 20.9884 27.3647C12.5077 29.3577 9.68013 30.6352 5.9667 28.0706C4.54008 26.8108 4.0286 24.7823 4.41053 21.8605C5.29637 17.0973 7.69026 12.5136 11.9425 7.42908C14.3159 4.78415 16.5176 2.51431 19.4247 1.60283C21.6528 1.03104 21.4445 2.78208 21.1749 3.0325C20.8904 3.0325 20.4125 3.07731 20.0431 3.31834C19.7434 3.55082 18.9205 4.30149 18.8763 5.31126C18.8126 6.85705 20.4122 6.53531 21.1022 5.68659C21.8459 4.73018 22.9451 2.89868 22.0805 1.19172C21.7181 0.584152 21.092 0.164249 20.3146 0.0212702C17.6525 -0.130867 15.1734 1.13812 12.8853 2.54105C7.88135 6.01712 3.87854 10.8337 1.61358 16.106C0.307842 19.2871 -0.87311 23.8439 0.896975 27.5526C2.26645 30.126 5.10931 31.4929 8.50113 31.2071C10.88 30.9572 13.7566 30.1883 15.6912 29.7241C17.626 29.259 27.5293 25.8548 30.7833 31.7798C30.7833 31.7798 31.8654 29.6793 34.5695 29.6345C36.7927 29.4293 40 30.278 42.3356 31.9934C41.5574 30.8232 39.3513 29.0986 37.5109 27.9099Z" fill="#E61A27"/>
<path d="M21.9979 8.02662C20.1457 6.81135 16.4228 9.13468 13.441 13.1199C10.7143 16.6946 9.53686 20.8493 10.8183 22.7706C12.7243 25.0313 16.2629 21.743 17.7676 19.9829L17.9618 19.7772C18.9851 18.678 19.7756 17.3554 20.5409 16.0863C20.5409 16.0863 21.2442 14.9247 21.2778 14.8709C21.7124 14.7908 22.236 14.6657 22.826 14.4958C22.8176 14.5225 20.5687 18.3024 20.7982 20.1786C20.8696 20.751 20.8151 22.842 22.8565 23.4763C25.5774 23.9324 27.75 21.8232 29.6668 19.9466C29.6668 19.9466 29.9934 19.6342 30.1781 19.4558C30.1314 19.6429 30.0704 19.8926 30.0704 19.8926C29.2739 22.6628 30.3476 23.2441 31.0193 23.4585C33.0492 24.0487 35.4742 21.0996 35.4822 21.0996C35.4192 22.0286 35.2354 22.797 36.2146 23.4137C37.1388 23.7446 38.0742 23.2401 38.7853 22.7664C41.3464 20.9615 43.4096 18.1364 45.0761 15.6945H44.0131C44.0005 15.6945 41.3901 19.4781 39.695 20.3005C39.6923 20.3005 39.3838 20.4589 39.2061 20.3336C38.9859 20.1459 39.0728 19.7556 39.2087 19.4791C39.2172 19.4612 45.7537 8.1243 45.7537 8.1243H42.6675C42.6675 8.1243 42.3304 8.66972 42.3029 8.70549C42.2822 8.68767 42.2327 8.59389 42.1985 8.54896C40.2864 5.90403 35.9564 9.97241 32.6964 14.6904C31.4414 16.5045 29.8435 18.5471 28.1866 20.0215C28.1866 20.0215 25.7319 22.2716 24.6831 20.6549C24.2997 19.9757 24.4177 18.9827 24.6339 18.3305C25.8551 14.8543 27.9592 11.6996 30.3537 9.79621C31.0295 9.26935 31.7643 9.11697 32.1288 9.34041C32.4763 9.54628 32.5323 10.0552 32.3126 10.4038C31.7549 10.386 31.308 10.5554 30.9449 10.9308C30.2294 11.6814 29.9808 12.4054 30.2083 13.0846C31.3134 14.6573 33.5174 11.5475 33.4109 9.65311C33.3728 8.97387 33.0105 8.33065 32.4696 8.01758C31.6636 7.53529 30.4341 7.66019 29.6383 8.04469C28.573 8.44664 26.8869 9.84945 25.9027 10.9398C24.6636 12.3072 22.5385 13.8261 21.874 13.656C22.0912 13.0751 23.8862 9.40256 21.9979 8.02662ZM36.8772 13.4596C37.4775 12.6287 39.2249 10.4035 39.6509 10.0283C41.0836 8.76789 41.6563 9.32247 41.7059 9.71538C40.3687 12.1101 38.7906 14.8536 37.3068 17.32C37.3099 17.3112 36.8425 18.0259 36.8425 18.0259C36.1872 19.0264 35.5273 19.8844 34.451 20.4829C34.2975 20.528 34.0446 20.5459 33.8762 20.4203C33.6735 20.2862 33.5935 20.0628 33.6164 19.8304C33.6809 19.0622 34.4631 16.7125 36.8772 13.4596ZM20.0878 14.8982C20.0878 14.8982 20.0608 14.9789 20.0476 15.0053C20.0442 15.0053 18.7019 17.1943 18.7019 17.1943C17.8919 18.2757 16.8806 19.6343 15.6163 20.2863C15.2416 20.4114 14.7236 20.4921 14.4596 20.1617C13.9 19.4913 14.1884 18.5619 14.4227 17.8115L14.5057 17.5433C15.1775 15.7206 16.2433 14.1118 17.2809 12.6195C17.2939 12.6107 17.3229 12.6018 17.3334 12.6018C17.336 12.6107 17.3402 12.6107 17.3419 12.6287C17.9929 13.8795 19.2137 14.4601 20.1266 14.7286C20.1321 14.7286 20.1381 14.7375 20.1381 14.7554C20.1382 14.7821 20.1233 14.8181 20.0878 14.8982ZM21.3593 12.316C21.3533 12.3338 20.7615 13.6921 20.7615 13.6921C20.6759 13.7635 20.5406 13.7278 20.3856 13.6921L20.1199 13.6471C19.2856 13.3882 18.6563 12.8341 18.4623 12.1729C18.1947 10.8861 19.294 9.87631 19.7783 9.51013C20.243 9.18816 20.9654 9.01844 21.385 9.34921C21.6437 9.65311 21.7417 10.0462 21.7417 10.4753C21.7419 11.0559 21.5626 11.7082 21.3593 12.316ZM60.3752 16.4619C60.0775 15.8187 59.3712 15.4076 58.6183 15.4521C56.1735 15.6757 53.7822 17.6862 52.5265 20.5723C51.8676 22.0558 51.5081 23.2799 51.2723 25.2278C52.0326 24.3524 53.5833 22.9138 55.343 22.1274C55.343 22.1274 55.5824 20.2598 56.8034 18.5977C57.2654 17.9094 58.19 16.8015 59.2282 17.0962C60.1354 17.4001 59.8165 19.9112 58.6109 22.3413C57.7188 24.1287 56.3537 25.9164 54.9725 27.1492C53.7514 28.1857 51.9447 29.4368 50.364 28.4718C49.3684 27.8823 48.8606 26.6487 48.9678 25.0582C49.4435 20.5458 51.4977 16.7033 54.4372 12.3248C57.4683 8.25897 60.8094 4.08596 65.3104 1.86056C66.2284 1.39597 67.0786 1.28876 67.8135 1.57472C67.8135 1.57472 63.5884 3.89804 61.5744 8.19634C61.062 9.28669 60.3494 10.7607 61.067 12.0654C61.442 12.7444 62.1077 12.7982 62.6438 12.7624C65.1126 12.1904 66.7076 9.88498 68.0107 7.77631C68.7663 6.1768 69.4378 4.5862 69.4378 2.81685C69.4378 2.60244 69.4267 2.3166 69.4087 2.10195C70.588 1.47667 73.0067 2.58449 73.0067 2.58449C74.8967 3.21025 78.921 6.29328 80.2785 6.88278C80.9407 6.11441 82.0288 4.95287 82.6416 4.37191L81.7546 3.82674C80.3346 2.95995 78.8336 2.13772 77.3563 1.32466C74.0011 -0.506965 71.27 0.136259 69.8801 0.636747C69.3338 0.833207 68.8347 1.00305 68.8347 1.00305C67.8032 -0.122838 66.1114 -0.015878 64.8648 0.288151C60.382 1.57484 56.22 4.71123 51.7579 10.1534C48.4773 14.4159 46.4424 18.0976 45.3577 21.7343C44.5217 24.1827 44.2676 27.7838 46.3082 29.9195C48.0431 31.7331 50.3436 31.3402 51.968 30.6882C55.4878 28.9546 58.6513 25.2192 60.2276 20.9209C60.6081 19.6432 61.0302 17.8382 60.3752 16.4619ZM68.4689 2.99572C68.0029 8.33944 63.8492 11.4762 62.8214 11.726C62.1985 11.8509 61.1358 11.5741 62.0846 9.3315C63.4817 6.31086 65.8671 3.74652 68.4264 2.43284C68.4888 2.65628 68.4871 2.7989 68.4689 2.99572ZM93.1084 3.6746C90.8741 4.94371 88.5579 5.76556 85.7542 5.47973C84.9773 6.35568 84.2206 7.25812 83.5233 8.1873C87.4585 9.18816 91.6303 6.96312 93.957 4.84554C96.4184 2.70976 97.6805 0.0202637 97.6805 0.0202637C97.6805 0.0202637 95.8355 2.12893 93.1084 3.6746ZM50.883 8.12454H47.9521L46.2989 10.8107H49.2292L50.883 8.12454Z" fill="#E61A27"/>
<path d="M85.7423 28.1575C85.4272 28.3719 84.9845 28.2071 85.1499 27.7158C85.5624 26.4647 87.2017 23.9153 87.2017 23.9153L91.7677 15.8169H88.6401C88.4914 16.0611 88.1736 16.6217 88.1736 16.6217C88.0289 16.3807 87.5962 15.8448 87.418 15.7289C86.6539 15.246 85.5329 15.4744 84.7596 15.9121C81.3971 17.8783 78.9437 21.7629 77.0088 24.7923C77.0088 24.7923 74.9721 28.1598 73.8415 28.4103C72.9589 28.4818 73.05 27.2928 73.0882 27.0158C73.4295 25.0138 74.222 23.1106 75.0204 21.386C76.6446 20.2601 78.4979 18.7857 80.1823 17.1684C83.8377 13.6741 86.9194 9.71551 87.3698 8.8309C87.3698 8.8309 86.8823 8.92931 86.3066 8.94702C83.4944 12.8698 77.7396 18.5712 75.9949 19.4199C76.7678 17.5608 81.7614 8.6878 86.0107 4.44335L86.6795 3.79976C87.7135 2.79 88.7848 1.75349 89.6197 1.58365C89.7079 1.57473 89.8215 1.58365 89.9195 1.78951C89.9567 2.57571 89.6641 3.15666 89.3283 3.81783L88.8577 4.78304C88.8577 4.78304 89.5243 4.65788 89.9621 4.51454C90.4699 3.55886 91.0326 2.48621 90.8251 1.20868C90.756 0.797565 90.4583 0.484867 90.0694 0.413316C88.8018 0.172046 87.4204 1.11002 86.3086 1.86985L86.2638 1.89647C80.5493 6.37339 75.7241 12.8252 71.5053 21.636C71.1995 21.868 70.0182 22.1453 69.8175 22.0111C70.2341 21.1535 70.7586 20.0005 71.021 18.7495C71.0665 18.3918 71.1087 18.0258 71.1087 17.6684C71.1087 16.8993 70.9241 16.1757 70.2352 15.6756C69.4274 15.2734 68.429 15.4612 67.7557 15.7647C64.7402 17.0158 62.4864 20.1078 60.8599 22.6542C59.9852 24.272 59.113 26.0048 58.8715 27.9889C58.7014 29.5435 59.0477 30.5445 59.9317 31.0449C60.8406 31.5093 61.9847 31.0266 62.4341 30.7945C65.4892 29.186 67.6239 25.9603 69.3064 23.0114C69.3733 23.0026 70.292 22.976 70.987 22.797C70.9961 22.797 71 22.797 71.0154 22.8062C70.9756 22.9398 70.6165 24.0125 70.6165 24.0125C69.5501 27.1397 69.0569 29.2667 70.0643 30.5265C71.5037 32.3048 73.8868 30.4642 75.8254 28.0332C75.4093 30.9462 76.9189 31.4022 78.0698 31.179C79.3918 30.8217 80.865 29.4095 81.5486 28.686C81.3291 29.5347 81.3886 31.0541 82.5913 31.2057C83.4155 31.3581 84.0325 30.9098 84.7461 30.5254C87.3064 29.1313 90.3713 24.4857 91.167 23.1426H90.1236C88.9924 24.8524 87.553 27.0937 85.7423 28.1575ZM62.761 27.8464C62.5986 27.605 62.5448 27.3413 62.5394 27.0561C62.5083 25.3038 64.3935 22.1661 65.724 20.4567H65.7268C66.2843 21.6777 67.5471 22.4625 68.3093 22.7933C67.3627 24.9023 64.1157 29.4191 62.761 27.8464ZM68.8438 21.8504C68.7536 21.9134 67.1613 21.3769 66.8535 19.9026C66.5925 18.6332 67.4666 17.6414 68.3123 17.1415C68.6753 16.8553 69.222 16.7574 69.6231 16.8998C69.9954 17.1504 70.0963 17.5976 70.0963 18.0793C70.0963 18.3747 70.0571 18.6783 70.0225 18.9552L70.0149 19.018C69.7482 20.0086 69.3546 20.9607 68.8438 21.8504ZM81.615 27.2835C81.6137 27.2835 81.3128 27.5515 81.3128 27.5515C80.8833 27.9357 80.4413 28.3466 79.9077 28.141C79.7603 28.0876 79.6567 27.8911 79.6317 27.7387C79.6074 26.6396 80.1023 25.6211 80.5824 24.6293L80.7055 24.3701C82.0862 22.0647 83.6911 19.3482 86.0481 17.463C86.4453 17.1764 86.8763 16.9357 87.3312 17.1235C87.4359 17.2216 87.5577 17.3915 87.5577 17.5611C87.5577 17.6149 87.5099 17.7578 87.4824 17.8023C86.824 18.8662 86.1972 19.9829 85.5875 21.0552C84.3961 23.173 83.1601 25.3619 81.615 27.2835Z" fill="#E61A27"/>
</g>
<defs>
<clipPath id="clip0">
<rect width="97.6801" height="32" fill="white"/>
</clipPath>
</defs>
</svg>
