<svg width="140" height="28" viewBox="0 0 140 28" fill="none" xmlns="http://www.w3.org/2000/svg">
<g clip-path="url(#clip0)">
<path opacity="0.75" d="M16.1822 5.1786L8.09109 10.3431L16.1822 15.5076L8.09109 20.6722L0 15.4646L8.09109 10.3001L0 5.1786L8.09109 0.0140686L16.1822 5.1786ZM8.04806 22.3076L16.1391 17.1431L24.2302 22.3076L16.1391 27.4721L8.04806 22.3076ZM16.1822 15.4646L24.2733 10.3001L16.1822 5.1786L24.2302 0.0140686L32.3213 5.1786L24.2302 10.3431L32.3213 15.5076L24.2302 20.6722L16.1822 15.4646Z" fill="white"/>
<path d="M38.6477 5.17724H45.1894C49.3641 5.17724 52.8071 7.58735 52.8071 13.0962V14.2582C52.8071 19.8101 49.5793 22.3063 45.3186 22.3063H38.6477V5.17724ZM42.3059 8.27596V19.1645H45.1034C47.4704 19.1645 49.0628 17.6151 49.0628 14.1721V13.2683C49.0628 9.82532 47.3844 8.27596 44.9743 8.27596H42.3059ZM54.7438 8.44811H57.6704L58.1438 11.6759C58.7033 9.48101 60.1235 8.31899 62.7058 8.31899H63.6096V12.0202H62.1033C59.1337 12.0202 58.402 13.0531 58.402 15.9797V22.3493H54.7869V8.44811H54.7438ZM64.3412 15.6784V15.2911C64.3412 10.643 67.3108 8.10381 71.3564 8.10381C75.488 8.10381 78.3715 10.643 78.3715 15.2911V15.6784C78.3715 20.2404 75.5741 22.6936 71.3564 22.6936C66.8805 22.6506 64.3412 20.2404 64.3412 15.6784ZM74.6703 15.6354V15.2911C74.6703 12.7088 73.3792 11.1595 71.3133 11.1595C69.2906 11.1595 67.9564 12.5797 67.9564 15.2911V15.6354C67.9564 18.1316 69.2475 19.5518 71.3133 19.5518C73.3792 19.5088 74.6703 18.1316 74.6703 15.6354ZM80.2652 8.44811H83.2778L83.6221 11.0734C84.3538 9.30886 85.9031 8.10381 88.1841 8.10381C91.7132 8.10381 94.0373 10.643 94.0373 15.3341V15.7215C94.0373 20.2835 91.455 22.6936 88.1841 22.6936C85.9892 22.6936 84.4829 21.7037 83.7513 20.1113V27.1265H80.2222L80.2652 8.44811ZM90.3791 15.6354V15.3341C90.3791 12.5797 88.9588 11.2025 87.0652 11.2025C85.0424 11.2025 83.7082 12.7519 83.7082 15.3341V15.5924C83.7082 18.0455 84.9993 19.5949 87.0221 19.5949C89.0879 19.5518 90.3791 18.2177 90.3791 15.6354ZM99.3739 19.767L99.0727 22.3063H95.974V3.80003H99.5031V10.9013C100.278 9.09367 101.827 8.10381 104.022 8.10381C107.336 8.14684 109.789 10.4278 109.789 15.0329V15.4633C109.789 20.0683 107.465 22.6936 103.936 22.6936C101.612 22.6506 100.106 21.5746 99.3739 19.767ZM106.088 15.4633V15.119C106.088 12.5797 104.711 11.1595 102.774 11.1595C100.794 11.1595 99.417 12.7519 99.417 15.162V15.4633C99.417 18.0455 100.751 19.5518 102.731 19.5518C104.84 19.5518 106.088 18.2177 106.088 15.4633ZM111.338 15.6784V15.2911C111.338 10.643 114.308 8.10381 118.354 8.10381C122.485 8.10381 125.369 10.643 125.369 15.2911V15.6784C125.369 20.2404 122.528 22.6936 118.354 22.6936C113.878 22.6506 111.338 20.2404 111.338 15.6784ZM121.711 15.6354V15.2911C121.711 12.7088 120.419 11.1595 118.354 11.1595C116.331 11.1595 114.997 12.5797 114.997 15.2911V15.6354C114.997 18.1316 116.288 19.5518 118.354 19.5518C120.419 19.5088 121.711 18.1316 121.711 15.6354ZM130.103 15.119L125.24 8.44811H129.414L132.212 12.6228L135.052 8.44811H139.184L134.235 15.0759L139.442 22.3063H135.353L132.169 17.7012L129.07 22.3063H124.809L130.103 15.119Z" fill="white"/>
</g>
<defs>
<clipPath id="clip0">
<rect width="139.442" height="28" fill="white"/>
</clipPath>
</defs>
</svg>
