<svg width="105" height="22" viewBox="0 0 105 22" fill="none" xmlns="http://www.w3.org/2000/svg">
<path d="M54.1988 10.8066C53.3426 10.8066 52.7254 11.0873 52.0996 11.3734V17.8456C52.6991 17.9027 53.0427 17.9027 53.6114 17.9027C55.6664 17.9027 55.9481 16.9616 55.9481 15.6476V12.5564C55.9481 11.586 55.6261 10.8066 54.1988 10.8066ZM40.5508 10.4534C39.1249 10.4534 38.7995 11.2361 38.7995 12.2056V12.7503H42.3001V12.2056C42.3001 11.2361 41.9747 10.4534 40.5508 10.4534ZM14.1118 17.19C14.1118 17.957 14.4736 18.3553 15.2722 18.3553C16.1289 18.3553 16.6362 18.076 17.2615 17.789V16.2537H15.3884C14.5015 16.2537 14.1118 16.4188 14.1118 17.19ZM67.4749 10.8066C66.0467 10.8066 65.5519 11.586 65.5519 12.5564V16.0977C65.5519 17.0705 66.0467 17.8523 67.4749 17.8523C68.8993 17.8523 69.398 17.0705 69.398 16.0977V12.5564C69.3975 11.586 68.8989 10.8066 67.4749 10.8066ZM7.11258 21.1609H2.91421V10.999H0.816467V7.49751H2.91469V5.39448C2.91469 2.5375 4.09866 0.83905 7.46388 0.83905H10.2657V4.34153H8.51444C7.20425 4.34153 7.11786 4.83105 7.11786 5.74435L7.11258 7.49703H10.2849L9.91389 10.9985H7.11258V21.1609ZM21.4608 21.1873H17.9617L17.8105 20.3023C16.2129 21.1873 14.787 21.3308 13.8464 21.3308C11.2802 21.3308 9.91437 19.6165 9.91437 17.2457C9.91437 14.4487 11.5082 13.4505 14.3594 13.4505H17.2615V12.8458C17.2615 11.418 17.0979 10.999 14.9022 10.999H11.3124L11.6632 7.49751H15.5871C20.4045 7.49751 21.4608 9.01934 21.4608 12.8741V21.1873ZM33.3596 11.2558C31.1822 10.8824 30.5568 10.8003 29.5092 10.8003C27.6274 10.8003 27.0587 11.2155 27.0587 12.8136V15.8367C27.0587 17.4348 27.6274 17.8519 29.5092 17.8519C30.5568 17.8519 31.1822 17.7683 33.3596 17.3935V20.8091C31.4524 21.2368 30.2098 21.3491 29.1598 21.3491C24.6523 21.3491 22.8608 18.9787 22.8608 15.5545V13.1016C22.8608 9.67444 24.6523 7.29978 29.1598 7.29978C30.2098 7.29978 31.4524 7.41256 33.3596 7.84209V11.2558ZM46.498 15.5545H38.799V15.8367C38.799 17.4348 39.3682 17.8519 41.2495 17.8519C42.9408 17.8519 43.9731 17.7683 46.1467 17.3935V20.8091C44.0504 21.2368 42.958 21.3491 40.9016 21.3491C36.3937 21.3491 34.6011 18.9787 34.6011 15.5545V12.7498C34.6011 9.75363 35.931 7.29978 40.5503 7.29978C45.1695 7.29978 46.498 9.72531 46.498 12.7498V15.5545ZM60.1455 15.6192C60.1455 18.9288 59.1996 21.3428 53.4693 21.3428C51.3999 21.3428 50.1862 21.1609 47.9022 20.8096V1.89104L52.0991 1.19083V7.8085C53.0062 7.47159 54.1801 7.30026 55.2484 7.30026C59.4458 7.30026 60.1451 9.18204 60.1451 12.206V15.6192H60.1455ZM73.5992 15.6912C73.5992 18.5463 72.4205 21.3155 67.4888 21.3155C62.5548 21.3155 61.354 18.5463 61.354 15.6912V12.9346C61.354 10.0781 62.5548 7.30842 67.4888 7.30842C72.4205 7.30842 73.5992 10.0781 73.5992 12.9346V15.6912ZM87.0438 15.6912C87.0438 18.5463 85.8637 21.3155 80.9329 21.3155C75.9988 21.3155 74.7981 18.5463 74.7981 15.6912V12.9346C74.7981 10.0781 75.9988 7.30842 80.9329 7.30842C85.8637 7.30842 87.0438 10.0781 87.0438 12.9346V15.6912ZM100.841 21.1609H96.2919L92.4444 14.7381V21.1609H88.246V1.89056L92.4444 1.19035V13.5959L96.2919 7.49751H100.841L96.6408 14.1526L100.841 21.1609ZM80.9185 10.8066C79.4927 10.8066 78.9979 11.586 78.9979 12.5564V16.0977C78.9979 17.0705 79.4927 17.8523 80.9185 17.8523C82.3425 17.8523 82.8464 17.0705 82.8464 16.0977V12.5564C82.8464 11.586 82.3425 10.8066 80.9185 10.8066ZM103.237 18.7642C103.944 18.7642 104.507 19.3406 104.507 20.0605C104.507 20.7914 103.944 21.3615 103.232 21.3615C102.524 21.3615 101.949 20.7914 101.949 20.0605C101.949 19.3406 102.524 18.7642 103.232 18.7642H103.237ZM103.232 18.9658C102.662 18.9658 102.196 19.4558 102.196 20.0605C102.196 20.6762 102.663 21.16 103.237 21.16C103.812 21.1657 104.272 20.6762 104.272 20.0662C104.272 19.4562 103.812 18.9658 103.237 18.9658H103.232ZM102.991 20.8149H102.76V19.3684C102.881 19.3516 102.996 19.3348 103.169 19.3348C103.388 19.3348 103.531 19.3809 103.619 19.4438C103.704 19.5076 103.749 19.605 103.749 19.7428C103.749 19.9338 103.624 20.0485 103.469 20.095V20.1061C103.595 20.1296 103.681 20.2438 103.71 20.4564C103.744 20.6815 103.779 20.7674 103.801 20.8144H103.56C103.526 20.7674 103.491 20.6354 103.462 20.4449C103.428 20.2611 103.335 20.192 103.151 20.192H102.991V20.8149H102.991ZM102.991 20.0144H103.158C103.347 20.0144 103.508 19.9448 103.508 19.7658C103.508 19.6391 103.416 19.5129 103.158 19.5129C103.082 19.5129 103.03 19.5186 102.991 19.5239V20.0144Z" fill="#1977F3"/>
</svg>
