<svg width="48" height="48" viewBox="0 0 48 48" fill="none" xmlns="http://www.w3.org/2000/svg">
<circle opacity="0.05" cx="24" cy="24" r="24" fill="white"/>
<path d="M24 18C20.685 18 18 20.7547 18 24.1523C18 26.871 19.719 29.1765 22.1025 29.9894C22.4025 30.0473 22.5125 29.8569 22.5125 29.6936C22.5125 29.5475 22.5075 29.1604 22.505 28.6475C20.836 29.0184 20.484 27.8221 20.484 27.8221C20.211 27.112 19.8165 26.9221 19.8165 26.9221C19.273 26.5407 19.8585 26.5486 19.8585 26.5486C20.461 26.5913 20.7775 27.1825 20.7775 27.1825C21.3125 28.1232 22.182 27.8513 22.525 27.6943C22.579 27.2962 22.7335 27.0254 22.905 26.8715C21.5725 26.7176 20.172 26.1886 20.172 23.8314C20.172 23.1599 20.4045 22.6111 20.7895 22.1806C20.722 22.0252 20.5195 21.3996 20.842 20.5523C20.842 20.5523 21.3445 20.3874 22.492 21.1831C22.972 21.0464 23.482 20.9786 23.992 20.9754C24.502 20.9786 25.012 21.0464 25.492 21.1831C26.632 20.3874 27.1345 20.5523 27.1345 20.5523C27.457 21.3996 27.2545 22.0252 27.1945 22.1806C27.577 22.6111 27.8095 23.1599 27.8095 23.8314C27.8095 26.1948 26.407 26.715 25.072 26.8663C25.282 27.051 25.477 27.4282 25.477 28.0047C25.477 28.828 25.4695 29.4896 25.4695 29.6894C25.4695 29.8506 25.5745 30.0431 25.882 29.9816C28.2825 29.1739 30 26.8668 30 24.1523C30 20.7547 27.3135 18 24 18Z" fill="white"/>
</svg>
