<svg width="98" height="32" viewBox="0 0 98 32" fill="none" xmlns="http://www.w3.org/2000/svg">
<g clip-path="url(#clip0)">
<path d="M12.0696 0.00213623H12.9411C15.9666 0.0679343 18.9428 1.2852 21.0803 3.44009C20.2911 4.24611 19.4854 5.01924 18.7126 5.82527C17.5122 4.7396 16.0652 3.90067 14.4867 3.60458C12.1518 3.1111 9.63605 3.55523 7.67934 4.88764C5.54175 6.28585 4.09477 8.65458 3.78236 11.1878C3.43706 13.6881 4.1441 16.3201 5.77196 18.2611C7.33404 20.1528 9.71826 21.3372 12.1847 21.4194C14.4867 21.551 16.8874 20.8437 18.5646 19.2316C19.88 18.0966 20.4884 16.3694 20.6857 14.6916C17.9562 14.6916 15.2267 14.708 12.4971 14.6916V11.303H23.9907C24.5827 14.9383 23.7277 19.0342 20.9652 21.6333C19.1236 23.4756 16.575 24.5613 13.977 24.7751C11.4612 25.0219 8.86323 24.5448 6.62699 23.3276C3.94679 21.8964 1.8092 19.4784 0.756854 16.6326C-0.229723 14.0171 -0.246166 11.0562 0.67464 8.42429C1.51323 6.02266 3.12464 3.90067 5.19645 2.42022C7.18605 0.956208 9.60316 0.150182 12.0696 0.00213623Z" fill="#3780FF"/>
<path d="M78.0056 0.858215H81.5243V24.3481C80.3569 24.3481 79.173 24.3646 78.0056 24.3317C78.0221 16.5182 78.0056 8.68819 78.0056 0.858215Z" fill="#38B137"/>
<path d="M31.8168 9.00072C33.9873 8.58948 36.3386 9.05007 38.1309 10.3496C39.7588 11.501 40.8933 13.3105 41.2386 15.2844C41.6826 17.5709 41.1235 20.0712 39.6437 21.8807C38.0487 23.904 35.4343 24.9896 32.8856 24.8251C30.5507 24.6935 28.2816 23.5256 26.9003 21.6175C25.3383 19.5119 24.9601 16.6168 25.8151 14.1494C26.6701 11.501 29.0873 9.47775 31.8168 9.00072ZM32.3101 12.1261C31.4222 12.3564 30.6 12.8663 30.0081 13.5901C28.4131 15.4983 28.5118 18.6072 30.2712 20.3838C31.2742 21.4036 32.7869 21.8807 34.1846 21.601C35.4836 21.3707 36.6181 20.4989 37.243 19.3474C38.3282 17.39 38.0158 14.6922 36.3551 13.1624C35.2863 12.1755 33.7242 11.7642 32.3101 12.1261Z" fill="#FA3913"/>
<path d="M49.2462 9.00077C51.7291 8.52373 54.4422 9.21461 56.3003 10.9583C59.3258 13.6724 59.6547 18.7553 57.0731 21.8808C55.511 23.8547 52.9788 24.9404 50.4795 24.8252C48.0952 24.7594 45.7439 23.5751 44.3298 21.6176C42.7348 19.4627 42.3895 16.5018 43.2938 13.985C44.1982 11.4188 46.566 9.46136 49.2462 9.00077ZM49.7395 12.1262C48.8516 12.3565 48.0294 12.8664 47.4375 13.5737C45.859 15.449 45.9247 18.5086 47.6184 20.3016C48.6214 21.3708 50.1835 21.8972 51.6305 21.6011C52.913 21.3544 54.0641 20.499 54.6889 19.3475C55.7577 17.3736 55.4453 14.6759 53.7681 13.1461C52.6993 12.1591 51.1372 11.7643 49.7395 12.1262Z" fill="#FCBD06"/>
<path d="M64.0288 9.9548C65.9198 8.77044 68.4355 8.44145 70.4745 9.46132C71.1158 9.74096 71.6419 10.218 72.1517 10.695C72.1681 10.2509 72.1517 9.79031 72.1681 9.32972C73.2698 9.34617 74.3715 9.32972 75.4896 9.34617V23.8547C75.4731 26.0424 74.9141 28.3618 73.3355 29.9574C71.609 31.7175 68.9617 32.2604 66.5775 31.8985C64.0288 31.5201 61.809 29.6613 60.8225 27.3091C61.809 26.832 62.8449 26.4537 63.8644 26.0095C64.4399 27.3584 65.6074 28.5099 67.0708 28.7731C68.5342 29.0363 70.2278 28.6744 71.1815 27.4571C72.201 26.2069 72.201 24.4962 72.1517 22.9664C71.3953 23.7066 70.5238 24.3646 69.4715 24.6113C67.1859 25.2529 64.6701 24.4633 62.9107 22.917C61.1349 21.3708 60.0825 18.9856 60.1812 16.6169C60.2305 13.9356 61.7433 11.353 64.0288 9.9548ZM67.4325 12.0603C66.4295 12.2248 65.4923 12.7841 64.851 13.5573C63.3053 15.3996 63.3053 18.3441 64.8674 20.1535C65.7553 21.2227 67.1859 21.8149 68.5671 21.6669C69.8661 21.5353 71.0664 20.7128 71.7077 19.5778C72.7929 17.6532 72.6121 15.0377 71.1486 13.3599C70.2443 12.3235 68.7973 11.8136 67.4325 12.0603Z" fill="#3780FF"/>
<path d="M85.7507 10.7937C87.7239 8.9514 90.7658 8.32631 93.2981 9.29684C95.6988 10.2016 97.228 12.488 98.0008 14.8403C94.4326 16.3208 90.8809 17.7848 87.3128 19.2652C87.8061 20.2029 88.5624 21.0582 89.5819 21.4037C91.0125 21.9136 92.7226 21.7327 93.9229 20.7786C94.3997 20.4167 94.7779 19.9397 95.1397 19.4791C96.0441 20.0877 96.9484 20.6799 97.8528 21.2885C96.5702 23.2131 94.4162 24.562 92.0977 24.7758C89.5326 25.0884 86.803 24.1014 85.1423 22.0946C82.4127 18.9362 82.6758 13.6395 85.7507 10.7937ZM87.5101 13.8369C86.951 14.6429 86.7208 15.6299 86.7373 16.6004C89.1215 15.6134 91.5058 14.6265 93.89 13.6231C93.4954 12.7019 92.5417 12.1426 91.5715 11.9946C90.0094 11.7149 88.3816 12.5538 87.5101 13.8369Z" fill="#FA3913"/>
</g>
<defs>
<clipPath id="clip0">
<rect width="98" height="32" fill="white"/>
</clipPath>
</defs>
</svg>
