<svg width="48" height="48" viewBox="0 0 48 48" fill="none" xmlns="http://www.w3.org/2000/svg">
<circle opacity="0.05" cx="24" cy="24" r="24" fill="white"/>
<path fill-rule="evenodd" clip-rule="evenodd" d="M21.0671 17.4546H26.9328C28.9249 17.4546 30.5456 19.0753 30.5455 21.0672V26.9329C30.5455 28.9248 28.9249 30.5455 26.9328 30.5455H21.0671C19.0752 30.5455 17.4546 28.9249 17.4546 26.9329V21.0672C17.4546 19.0753 19.0752 17.4546 21.0671 17.4546ZM26.9329 29.384C28.2845 29.384 29.3841 28.2845 29.3841 26.9329H29.384V21.0672C29.384 19.7157 28.2844 18.6161 26.9328 18.6161H21.0671C19.7156 18.6161 18.6161 19.7157 18.6161 21.0672V26.9329C18.6161 28.2845 19.7156 29.3841 21.0671 29.384H26.9329ZM20.5715 24.0001C20.5715 22.1095 22.1095 20.5715 24.0001 20.5715C25.8906 20.5715 27.4286 22.1095 27.4286 24.0001C27.4286 25.8906 25.8906 27.4286 24.0001 27.4286C22.1095 27.4286 20.5715 25.8906 20.5715 24.0001ZM21.752 24C21.752 25.2396 22.7605 26.248 24 26.248C25.2395 26.248 26.2481 25.2396 26.2481 24C26.2481 22.7604 25.2396 21.752 24 21.752C22.7605 21.752 21.752 22.7604 21.752 24Z" fill="white"/>
<mask id="mask0" style="mask-type:alpha" maskUnits="userSpaceOnUse" x="17" y="17" width="14" height="14">
<path fill-rule="evenodd" clip-rule="evenodd" d="M21.0671 17.4546H26.9328C28.9249 17.4546 30.5456 19.0753 30.5455 21.0672V26.9329C30.5455 28.9248 28.9249 30.5455 26.9328 30.5455H21.0671C19.0752 30.5455 17.4546 28.9249 17.4546 26.9329V21.0672C17.4546 19.0753 19.0752 17.4546 21.0671 17.4546ZM26.9329 29.384C28.2845 29.384 29.3841 28.2845 29.3841 26.9329H29.384V21.0672C29.384 19.7157 28.2844 18.6161 26.9328 18.6161H21.0671C19.7156 18.6161 18.6161 19.7157 18.6161 21.0672V26.9329C18.6161 28.2845 19.7156 29.3841 21.0671 29.384H26.9329ZM20.5715 24.0001C20.5715 22.1095 22.1095 20.5715 24.0001 20.5715C25.8906 20.5715 27.4286 22.1095 27.4286 24.0001C27.4286 25.8906 25.8906 27.4286 24.0001 27.4286C22.1095 27.4286 20.5715 25.8906 20.5715 24.0001ZM21.752 24C21.752 25.2396 22.7605 26.248 24 26.248C25.2395 26.248 26.2481 25.2396 26.2481 24C26.2481 22.7604 25.2396 21.752 24 21.752C22.7605 21.752 21.752 22.7604 21.752 24Z" fill="white"/>
</mask>
<g mask="url(#mask0)">
</g>
</svg>
