<svg width="129" height="48" viewBox="0 0 129 48" fill="none" xmlns="http://www.w3.org/2000/svg">
<path opacity="0.35" d="M12 12L36 36M12 36L36 12" stroke="#00CBA6" stroke-width="6" stroke-linecap="round" stroke-linejoin="round"/>
<circle cx="36" cy="24" r="3" fill="#00CBA6"/>
<circle cx="24" cy="36" r="3" fill="#00CBA6"/>
<circle cx="12" cy="24" r="3" fill="#00CBA6"/>
<circle cx="24" cy="12" r="3" fill="#00CBA6"/>
<path d="M56.448 32.712H57.932L64.288 14.456H66.948L73.276 32.712H74.76V34H68.152V32.712H70.672L68.936 27.644H61.32L59.584 32.712H62.104V34H56.448V32.712ZM61.712 26.3H68.516L65.24 16.5H65.072L61.712 26.3ZM82.3386 34.336C81.2933 34.336 80.3599 34.1587 79.5386 33.804C78.7359 33.4307 78.0546 32.9173 77.4946 32.264C76.9346 31.592 76.5053 30.7987 76.2066 29.884C75.9079 28.9507 75.7586 27.9147 75.7586 26.776C75.7586 25.6187 75.9173 24.5733 76.2346 23.64C76.5706 22.7067 77.0373 21.9133 77.6346 21.26C78.2319 20.6067 78.9413 20.1027 79.7626 19.748C80.6026 19.3933 81.5266 19.216 82.5346 19.216C84.0466 19.216 85.2413 19.5427 86.1186 20.196C87.0146 20.8307 87.4626 21.6427 87.4626 22.632C87.4626 23.2293 87.3039 23.696 86.9866 24.032C86.6879 24.368 86.2679 24.536 85.7266 24.536C85.1479 24.536 84.7186 24.368 84.4386 24.032C84.1586 23.696 84.0186 23.2947 84.0186 22.828C84.0186 22.4173 84.1213 22.0627 84.3266 21.764C84.5319 21.4653 84.8213 21.232 85.1946 21.064V20.98C84.9519 20.8307 84.6346 20.7187 84.2426 20.644C83.8693 20.5693 83.3839 20.532 82.7866 20.532C82.1333 20.532 81.5266 20.6533 80.9666 20.896C80.4253 21.1387 79.9586 21.484 79.5666 21.932C79.1746 22.3613 78.8666 22.8747 78.6426 23.472C78.4186 24.0507 78.3066 24.6853 78.3066 25.376V27.448C78.3066 28.2133 78.4093 28.9133 78.6146 29.548C78.8199 30.164 79.1093 30.696 79.4826 31.144C79.8746 31.592 80.3319 31.9373 80.8546 32.18C81.3959 32.4227 82.0026 32.544 82.6746 32.544C83.8133 32.544 84.7093 32.3107 85.3626 31.844C86.0159 31.3587 86.5386 30.7333 86.9306 29.968L87.8266 30.556C87.6586 31.0413 87.4159 31.5173 87.0986 31.984C86.7813 32.432 86.3986 32.8333 85.9506 33.188C85.5026 33.524 84.9706 33.7947 84.3546 34C83.7573 34.224 83.0853 34.336 82.3386 34.336ZM89.7761 32.712H91.8481V21.372L89.7761 21.008V20.056L94.0881 19.216V21.736H94.2281C94.3588 21.4373 94.5174 21.1387 94.7041 20.84C94.9094 20.5413 95.1521 20.2707 95.4321 20.028C95.7308 19.7853 96.0668 19.5893 96.4401 19.44C96.8321 19.2907 97.2801 19.216 97.7841 19.216C98.6054 19.216 99.2588 19.412 99.7441 19.804C100.248 20.196 100.5 20.7653 100.5 21.512C100.5 22.072 100.36 22.5107 100.08 22.828C99.8001 23.1453 99.4361 23.304 98.9881 23.304C98.4841 23.304 98.0828 23.1733 97.7841 22.912C97.4854 22.632 97.3361 22.2773 97.3361 21.848C97.3361 21.4747 97.4108 21.176 97.5601 20.952C97.7281 20.7093 97.9148 20.5693 98.1201 20.532V20.476C98.0454 20.4573 97.9521 20.448 97.8401 20.448C97.7281 20.4293 97.5881 20.42 97.4201 20.42C97.0281 20.42 96.6361 20.5227 96.2441 20.728C95.8521 20.9147 95.4974 21.1667 95.1801 21.484C94.8814 21.7827 94.6294 22.128 94.4241 22.52C94.2374 22.912 94.1441 23.304 94.1441 23.696V32.712H96.7761V34H89.7761V32.712ZM108.126 32.964C108.817 32.964 109.414 32.852 109.918 32.628C110.441 32.3853 110.861 32.0587 111.178 31.648C111.514 31.2187 111.757 30.724 111.906 30.164C112.074 29.5853 112.158 28.96 112.158 28.288V25.264C112.158 24.592 112.074 23.976 111.906 23.416C111.757 22.8373 111.514 22.3427 111.178 21.932C110.861 21.5027 110.441 21.176 109.918 20.952C109.414 20.7093 108.817 20.588 108.126 20.588C107.417 20.588 106.81 20.7093 106.306 20.952C105.802 21.176 105.382 21.5027 105.046 21.932C104.729 22.3427 104.486 22.8373 104.318 23.416C104.169 23.976 104.094 24.592 104.094 25.264V28.288C104.094 28.96 104.169 29.5853 104.318 30.164C104.486 30.724 104.729 31.2187 105.046 31.648C105.382 32.0587 105.802 32.3853 106.306 32.628C106.81 32.852 107.417 32.964 108.126 32.964ZM108.126 34.336C107.137 34.336 106.231 34.1587 105.41 33.804C104.589 33.4493 103.889 32.9453 103.31 32.292C102.731 31.62 102.283 30.8267 101.966 29.912C101.649 28.9787 101.49 27.9333 101.49 26.776C101.49 25.6373 101.649 24.6013 101.966 23.668C102.283 22.7347 102.731 21.9413 103.31 21.288C103.889 20.616 104.589 20.1027 105.41 19.748C106.231 19.3933 107.137 19.216 108.126 19.216C109.115 19.216 110.021 19.3933 110.842 19.748C111.663 20.1027 112.363 20.616 112.942 21.288C113.521 21.9413 113.969 22.7347 114.286 23.668C114.603 24.6013 114.762 25.6373 114.762 26.776C114.762 27.9333 114.603 28.9787 114.286 29.912C113.969 30.8267 113.521 31.62 112.942 32.292C112.363 32.9453 111.663 33.4493 110.842 33.804C110.021 34.1587 109.115 34.336 108.126 34.336ZM122.531 34.336C121.654 34.336 120.888 34.1587 120.235 33.804C119.582 33.4307 119.152 33.02 118.947 32.572H118.835V34H117.155V29.66H118.835V30.248C118.835 31.0507 119.087 31.704 119.591 32.208C120.095 32.712 120.926 32.964 122.083 32.964C123.147 32.964 123.968 32.7773 124.547 32.404C125.144 32.012 125.443 31.396 125.443 30.556C125.443 29.2493 124.65 28.4187 123.063 28.064L121.383 27.7C120.002 27.4013 118.956 26.8973 118.247 26.188C117.556 25.4787 117.211 24.508 117.211 23.276C117.211 22.0067 117.65 21.0173 118.527 20.308C119.404 19.58 120.58 19.216 122.055 19.216C122.951 19.216 123.679 19.356 124.239 19.636C124.818 19.916 125.2 20.28 125.387 20.728H125.499V19.552H127.179V23.892H125.499V22.828C125.499 21.3347 124.454 20.588 122.363 20.588C121.411 20.588 120.664 20.7747 120.123 21.148C119.6 21.5027 119.339 22.072 119.339 22.856C119.339 23.5093 119.554 24.06 119.983 24.508C120.412 24.9373 121 25.236 121.747 25.404L123.315 25.74C124.752 26.0387 125.826 26.5333 126.535 27.224C127.263 27.9147 127.627 28.876 127.627 30.108C127.627 30.7053 127.506 31.2653 127.263 31.788C127.039 32.292 126.703 32.74 126.255 33.132C125.826 33.5053 125.294 33.7947 124.659 34C124.043 34.224 123.334 34.336 122.531 34.336Z" fill="#2B3031"/>
</svg>
