<svg width="74" height="28" viewBox="0 0 74 28" fill="none" xmlns="http://www.w3.org/2000/svg">
<g clip-path="url(#clip0)">
<path d="M64.1409 0C58.4579 0 54.747 3.89249 54.747 10.3281C54.747 18.3207 60.4301 20.6042 64.5042 20.6042C69.6423 20.6042 72.5746 17.1529 72.5746 17.1529L69.9537 14.532C68.5524 15.7776 66.9435 16.5301 64.5561 16.5301C61.3902 16.5301 59.2623 14.6877 59.2623 12.1446H73.3791C73.3531 12.1186 75.8184 0 64.1409 0V0ZM59.2623 8.66728C59.2623 5.24189 61.8573 3.60704 64.6339 3.60704C67.4106 3.60704 69.9277 5.29379 69.9277 8.66728H59.2623ZM12.1631 8.32993C10.3466 8.09638 5.1307 8.30398 5.1307 5.91658C5.1307 4.51529 7.31049 3.73679 9.33459 3.73679C12.5524 3.73679 14.7062 5.03429 15.3031 5.44949L18.0278 2.72474C17.2234 2.10194 14.2391 0 9.33459 0C4.8712 0 0.848953 2.33549 0.848953 6.07228C0.848953 11.8072 7.77759 11.8072 10.658 12.0927C12.4226 12.2743 14.0056 12.3781 14.0056 14.0908C14.0056 15.6997 11.5663 16.582 9.67194 16.582C6.58389 16.582 4.74145 15.57 2.92495 13.9351L0.0185547 16.8675C2.6914 19.4624 6.09084 20.6042 9.43839 20.6042C14.6284 20.6042 18.3911 18.3207 18.3911 13.7275C18.3911 10.6654 16.3411 8.84893 12.1631 8.32993ZM27.0584 0C22.5691 0 19.6367 2.28359 19.1177 2.75069L21.8425 5.47544C22.3874 5.03429 24.2299 3.76274 27.1103 3.76274C30.5617 3.76274 31.5997 5.13809 31.5997 6.69508V8.64133H25.4495C23.1659 8.64133 18.7025 9.21223 18.7025 14.2206C18.7025 17.9055 20.8045 20.6042 25.8388 20.6042C28.3559 20.6042 30.2762 19.7738 31.5997 18.2169V20.215H36.063V7.00648C36.0371 2.38739 33.2085 0 27.0584 0ZM31.6256 13.0009C31.6256 16.8156 28.9009 16.608 26.4875 16.608C24.0223 16.608 22.4653 15.9592 22.4653 14.2465C22.4653 12.6636 23.7368 12.1186 26.3837 12.1186H31.6256V13.0009ZM49.8165 0.415199V2.62094C48.3114 0.882298 46.4949 0 44.0037 0C39.7739 0 37.5941 2.36144 36.8675 4.90454C36.582 5.83873 36.5042 7.62928 36.5042 10.2762C36.5042 12.7674 36.5301 15.051 37.3865 16.7896C38.6061 19.2289 41.5385 20.6042 44.0037 20.6042C46.3911 20.6042 48.4152 19.67 49.8165 18.0871V19.3327C49.8165 20.7859 49.3235 21.746 48.3893 22.4986C47.4551 23.2511 46.2873 23.7182 44.6525 23.7182C43.1733 23.7182 41.772 22.9138 40.9676 22.3429L37.9574 25.3531C39.9036 26.936 42.2391 28 44.7303 28.0259C47.3772 28.0519 49.5311 27.2474 51.3995 25.7683C53.19 24.367 54.3318 21.6941 54.3318 18.8916V0.415199H49.8165ZM49.8165 10.2762C49.8165 11.8072 49.7906 12.949 49.6608 13.5199C49.3754 14.7915 47.9222 16.4782 45.2753 16.4782C44.6006 16.4782 41.2271 16.089 40.8378 13.1566C40.76 12.5598 40.7081 11.7813 40.7081 10.2502C40.7081 7.96663 40.8119 7.24003 40.9157 6.64318C41.1492 5.50139 42.6543 3.78869 45.2753 3.78869C48.4671 3.78869 49.5051 5.96848 49.6608 6.82483C49.7906 7.44763 49.8165 8.74513 49.8165 10.2762Z" fill="#3FAE2A"/>
</g>
<defs>
<clipPath id="clip0">
<rect width="73.6067" height="28" fill="white"/>
</clipPath>
</defs>
</svg>
