<svg width="111" height="28" viewBox="0 0 111 28" fill="none" xmlns="http://www.w3.org/2000/svg">
<g clip-path="url(#clip0)">
<path fill-rule="evenodd" clip-rule="evenodd" d="M35.4006 22.0468L36.7816 18.8378C38.2732 19.9532 40.2606 20.5331 42.2214 20.5331C43.6687 20.5331 44.585 19.9754 44.585 19.13C44.5628 16.7664 35.9141 18.6165 35.8477 12.6899C35.8255 9.68008 38.499 7.36076 42.2878 7.36076C44.5407 7.36076 46.7892 7.91846 48.3959 9.18878L47.1034 12.4641C45.634 11.5258 43.8059 10.8574 42.0665 10.8574C40.8847 10.8574 40.1057 11.4151 40.1057 12.1278C40.1278 14.4471 48.8429 13.1768 48.9315 18.8378C48.9315 21.914 46.3244 24.0784 42.5799 24.0784C39.8357 24.074 37.3172 23.4278 35.4006 22.0468ZM88.4307 17.6782C87.7402 18.8821 86.4477 19.7054 84.9517 19.7054C82.743 19.7054 80.9637 17.9216 80.9637 15.7174C80.9637 13.5132 82.7475 11.7294 84.9517 11.7294C86.4433 11.7294 87.7402 12.5527 88.4307 13.7566L92.2416 11.6409C90.8164 9.10025 88.0722 7.36076 84.9517 7.36076C80.3352 7.36076 76.5906 11.1053 76.5906 15.7218C76.5906 20.3383 80.3352 24.0829 84.9517 24.0829C88.0943 24.0829 90.8164 22.3655 92.2416 19.8028L88.4307 17.6782ZM50.848 0.424942H55.6194V23.7642H50.848V0.424942ZM94.1139 0.424942V23.7642H98.8853V16.762L104.546 23.7642H110.655L103.453 15.4474L110.119 7.6883H104.276L98.8809 14.1284V0.424942H94.1139Z" fill="white"/>
<path d="M69.7965 17.7224C69.106 18.8599 67.6808 19.7053 66.0741 19.7053C63.8654 19.7053 62.0861 17.9215 62.0861 15.7173C62.0861 13.5131 63.8698 11.7293 66.0741 11.7293C67.6808 11.7293 69.106 12.619 69.7965 13.7786V17.7224ZM69.7965 7.69264V9.58705C69.0175 8.27247 67.0788 7.35625 65.0472 7.35625C60.8556 7.35625 57.5581 11.0565 57.5581 15.6952C57.5581 20.3338 60.8556 24.0784 65.0472 24.0784C67.0744 24.0784 69.013 23.1666 69.7965 21.8476V23.742H74.5679V7.69264H69.7965Z" fill="white"/>
<path opacity="0.5" fill-rule="evenodd" clip-rule="evenodd" d="M5.90928 17.7002C5.90928 19.3291 4.5947 20.6436 2.96587 20.6436C1.33704 20.6436 0.0224609 19.3246 0.0224609 17.7002C0.0224609 16.0758 1.33704 14.7568 2.96587 14.7568H5.90928V17.7002ZM7.37877 17.7002C7.37877 16.0714 8.69334 14.7568 10.3222 14.7568C11.951 14.7568 13.2656 16.0714 13.2656 17.7002V25.0565C13.2656 26.6854 11.951 27.9999 10.3222 27.9999C8.69334 27.9999 7.37877 26.6854 7.37877 25.0565V17.7002Z" fill="white"/>
<path fill-rule="evenodd" clip-rule="evenodd" d="M10.3218 5.88682C8.69301 5.88682 7.37844 4.57224 7.37844 2.94341C7.37844 1.31457 8.69301 0 10.3218 0C11.9507 0 13.2653 1.31457 13.2653 2.94341V5.88682H10.3218ZM10.3218 7.37844C11.9507 7.37844 13.2653 8.69301 13.2653 10.3218C13.2653 11.9507 11.9507 13.2653 10.3218 13.2653H2.94341C1.31457 13.2653 0 11.9463 0 10.3218C0 8.69744 1.31457 7.37844 2.94341 7.37844H10.3218Z" fill="white"/>
<path opacity="0.75" fill-rule="evenodd" clip-rule="evenodd" d="M22.1131 10.3218C22.1131 8.69301 23.4277 7.37844 25.0566 7.37844C26.6854 7.37844 28 8.69301 28 10.3218C28 11.9507 26.6854 13.2653 25.0566 13.2653H22.1131V10.3218ZM20.6437 10.3218C20.6437 11.9507 19.3291 13.2653 17.7002 13.2653C16.0714 13.2653 14.7568 11.9507 14.7568 10.3218V2.94341C14.7568 1.31457 16.0714 0 17.7002 0C19.3291 0 20.6437 1.31457 20.6437 2.94341V10.3218Z" fill="white"/>
<path fill-rule="evenodd" clip-rule="evenodd" d="M17.7002 22.1131C19.3291 22.1131 20.6437 23.4277 20.6437 25.0565C20.6437 26.6854 19.3291 27.9999 17.7002 27.9999C16.0714 27.9999 14.7568 26.6854 14.7568 25.0565V22.1131H17.7002ZM17.7002 20.6436C16.0714 20.6436 14.7568 19.3291 14.7568 17.7002C14.7568 16.0714 16.0714 14.7568 17.7002 14.7568H25.0787C26.7075 14.7568 28.0221 16.0714 28.0221 17.7002C28.0221 19.3291 26.7075 20.6436 25.0787 20.6436H17.7002Z" fill="white"/>
</g>
<defs>
<clipPath id="clip0">
<rect width="110.654" height="28" fill="white"/>
</clipPath>
</defs>
</svg>
