<svg width="111" height="28" viewBox="0 0 111 28" fill="none" xmlns="http://www.w3.org/2000/svg">
<g clip-path="url(#clip0)">
<path fill-rule="evenodd" clip-rule="evenodd" d="M35.4009 22.0468L36.7818 18.8378C38.2735 19.9532 40.2608 20.533 42.2216 20.533C43.669 20.533 44.5852 19.9753 44.5852 19.1299C44.5631 16.7664 35.9143 18.6165 35.8479 12.6898C35.8258 9.68005 38.4992 7.36074 42.288 7.36074C44.5409 7.36074 46.7894 7.91844 48.3961 9.18875L47.1037 12.4641C45.6342 11.5258 43.8062 10.8574 42.0667 10.8574C40.8849 10.8574 40.1059 11.4151 40.1059 12.1277C40.128 14.447 48.8432 13.1767 48.9317 18.8378C48.9317 21.914 46.3247 24.0784 42.5801 24.0784C39.8359 24.074 37.3174 23.4277 35.4009 22.0468ZM88.4309 17.6781C87.7404 18.8821 86.448 19.7053 84.9519 19.7053C82.7433 19.7053 80.964 17.9216 80.964 15.7174C80.964 13.5131 82.7477 11.7294 84.9519 11.7294C86.4436 11.7294 87.7404 12.5526 88.4309 13.7566L92.2419 11.6408C90.8166 9.10022 88.0724 7.36074 84.9519 7.36074C80.3354 7.36074 76.5909 11.1053 76.5909 15.7218C76.5909 20.3383 80.3354 24.0828 84.9519 24.0828C88.0945 24.0828 90.8166 22.3655 92.2419 19.8027L88.4309 17.6781ZM50.8482 0.424927H55.6197V23.7641H50.8482V0.424927ZM94.1141 0.424927V23.7641H98.8856V16.7619L104.547 23.7641H110.655L103.453 15.4474L110.119 7.68827H104.277L98.8811 14.1284V0.424927H94.1141Z" fill="black"/>
<path d="M69.7961 17.7224C69.1056 18.86 67.6804 19.7054 66.0737 19.7054C63.865 19.7054 62.0856 17.9216 62.0856 15.7174C62.0856 13.5131 63.8694 11.7294 66.0737 11.7294C67.6804 11.7294 69.1056 12.619 69.7961 13.7787V17.7224ZM69.7961 7.69271V9.58712C69.0171 8.27254 67.0784 7.35632 65.0468 7.35632C60.8551 7.35632 57.5576 11.0566 57.5576 15.6952C57.5576 20.3339 60.8551 24.0784 65.0468 24.0784C67.074 24.0784 69.0127 23.1666 69.7961 21.8476V23.742H74.5676V7.69271H69.7961Z" fill="black"/>
<path fill-rule="evenodd" clip-rule="evenodd" d="M5.90879 17.7003C5.90879 19.3291 4.59421 20.6437 2.96538 20.6437C1.33655 20.6437 0.0219727 19.3247 0.0219727 17.7003C0.0219727 16.0758 1.33655 14.7568 2.96538 14.7568H5.90879V17.7003ZM7.37828 17.7003C7.37828 16.0714 8.69285 14.7568 10.3217 14.7568C11.9505 14.7568 13.2651 16.0714 13.2651 17.7003V25.0566C13.2651 26.6854 11.9505 28 10.3217 28C8.69285 28 7.37828 26.6854 7.37828 25.0566V17.7003Z" fill="#E01E5A"/>
<path fill-rule="evenodd" clip-rule="evenodd" d="M10.3218 5.88682C8.69301 5.88682 7.37844 4.57224 7.37844 2.94341C7.37844 1.31457 8.69301 0 10.3218 0C11.9507 0 13.2653 1.31457 13.2653 2.94341V5.88682H10.3218ZM10.3218 7.37844C11.9507 7.37844 13.2653 8.69301 13.2653 10.3218C13.2653 11.9507 11.9507 13.2653 10.3218 13.2653H2.94341C1.31457 13.2653 0 11.9463 0 10.3218C0 8.69744 1.31457 7.37844 2.94341 7.37844H10.3218Z" fill="#36C5F0"/>
<path fill-rule="evenodd" clip-rule="evenodd" d="M22.1127 10.3218C22.1127 8.69301 23.4273 7.37844 25.0561 7.37844C26.685 7.37844 27.9995 8.69301 27.9995 10.3218C27.9995 11.9507 26.685 13.2653 25.0561 13.2653H22.1127V10.3218ZM20.6432 10.3218C20.6432 11.9507 19.3286 13.2653 17.6998 13.2653C16.0709 13.2653 14.7563 11.9507 14.7563 10.3218V2.94341C14.7563 1.31457 16.0709 0 17.6998 0C19.3286 0 20.6432 1.31457 20.6432 2.94341V10.3218Z" fill="#2EB67D"/>
<path fill-rule="evenodd" clip-rule="evenodd" d="M17.6998 22.1132C19.3286 22.1132 20.6432 23.4277 20.6432 25.0566C20.6432 26.6854 19.3286 28 17.6998 28C16.0709 28 14.7563 26.6854 14.7563 25.0566V22.1132H17.6998ZM17.6998 20.6437C16.0709 20.6437 14.7563 19.3291 14.7563 17.7003C14.7563 16.0714 16.0709 14.7568 17.6998 14.7568H25.0782C26.7071 14.7568 28.0217 16.0714 28.0217 17.7003C28.0217 19.3291 26.7071 20.6437 25.0782 20.6437H17.6998Z" fill="#ECB22E"/>
</g>
<defs>
<clipPath id="clip0">
<rect width="110.654" height="28" fill="white"/>
</clipPath>
</defs>
</svg>
