<svg width="34" height="48" viewBox="0 0 34 48" fill="none" xmlns="http://www.w3.org/2000/svg">
<g clip-path="url(#clip0)">
<path d="M0 0.00408936H33.1968V47.9957H0V0.00408936Z" fill="#E31937"/>
<path d="M25.5896 38.7123V40.8158H26.2641V39.4153H28.7189V40.8158H29.3929V38.716L25.5896 38.7123ZM26.1889 38.0319H28.7825C29.1427 37.9603 29.4106 37.6423 29.4861 37.3347H25.4854C25.5601 37.6425 25.832 37.9603 26.1889 38.0319Z" fill="white"/>
<path d="M23.5457 40.8168C23.8858 40.6726 24.0688 40.4232 24.1389 40.1314H21.1137L21.1158 37.3367L20.4376 37.3386V40.8168H23.5457ZM15.3948 38.0226H17.79C18.151 37.9176 18.4543 37.6426 18.5282 37.3376H14.7233V39.3931H17.8374V40.1144L15.3947 40.1164C15.0119 40.2231 14.6873 40.4802 14.5254 40.8197L14.7233 40.816H18.5065V38.7098H15.3947V38.0226" fill="white"/>
<path d="M9.48324 38.0292H12.0759C12.4366 37.9573 12.7047 37.6396 12.7798 37.3318H8.7793C8.85397 37.6396 9.12599 37.9573 9.48324 38.0292ZM9.48324 39.4039H12.0759C12.4366 39.3327 12.7047 39.0147 12.7798 38.7067H8.7793C8.85397 39.0149 9.12599 39.3327 9.48324 39.4039ZM9.48324 40.8164H12.0759C12.4366 40.7447 12.7047 40.4268 12.7798 40.1192H8.7793C8.85397 40.4271 9.12599 40.7447 9.48324 40.8164Z" fill="white"/>
<path d="M2.73828 37.3403C2.81622 37.6443 3.0795 37.9549 3.4405 38.0329H4.53183L4.5875 38.0549V40.8088H5.26899V38.0549L5.33099 38.0329H6.42328C6.78841 37.9388 7.04583 37.6443 7.12243 37.3403V37.3336H2.73828V37.3403Z" fill="white"/>
<path d="M16.6196 30.4596L20.0248 11.309C23.2704 11.309 24.2942 11.6649 24.4421 13.1176C24.4421 13.1176 26.6195 12.3058 27.7175 10.657C23.4322 8.67127 19.1265 8.58172 19.1265 8.58172L16.614 11.6419L16.6197 11.6415L14.1071 8.58124C14.1071 8.58124 9.80131 8.67089 5.5166 10.6566C6.61379 12.3054 8.79195 13.1172 8.79195 13.1172C8.94063 11.6644 9.96314 11.3085 13.187 11.3062L16.6196 30.4596Z" fill="white"/>
<path d="M16.6182 7.69783C20.0823 7.67134 24.0472 8.23371 28.1062 10.0028C28.6487 9.02635 28.7882 8.5948 28.7882 8.5948C24.351 6.83935 20.1958 6.23858 16.6177 6.22351C13.0397 6.23858 8.88471 6.83944 4.44824 8.5948C4.44824 8.5948 4.64616 9.12636 5.12973 10.0028C9.18792 8.23371 13.1537 7.67134 16.6178 7.69783H16.6182Z" fill="white"/>
</g>
<defs>
<clipPath id="clip0">
<rect width="33.1968" height="48" fill="white"/>
</clipPath>
</defs>
</svg>
