<svg width="78" height="28" viewBox="0 0 78 28" fill="none" xmlns="http://www.w3.org/2000/svg">
<g clip-path="url(#clip0)">
<path d="M11.3213 0.00976562C11.5066 0.0962228 11.6239 0.275313 11.7721 0.41735C12.013 0.627317 12.1921 0.905215 12.4268 1.12136C12.7171 1.39926 12.9023 1.75126 13.1432 2.06621C13.5631 2.70229 13.9336 3.3816 14.1251 4.12266C14.3227 4.62905 14.3536 5.17867 14.3412 5.72212C14.3536 6.21616 14.2177 6.70402 13.9953 7.14866C13.6125 7.82179 12.9208 8.2726 12.1983 8.51345C11.2966 8.72959 10.3024 8.76664 9.43162 8.38376C9.11661 8.21085 8.75849 8.09351 8.50529 7.82179C7.91862 7.3401 7.57897 6.55581 7.69013 5.79622C7.86304 4.44378 8.67203 3.28279 9.53661 2.28235C9.61689 2.43057 9.54889 2.60348 9.60454 2.75787C9.67864 3.08517 9.79598 3.431 10.043 3.66567C10.3456 3.38777 10.6668 3.10987 10.9262 2.78875C11.1608 2.44292 11.3522 2.06004 11.4325 1.65245C11.4511 1.13371 11.5005 0.590263 11.3028 0.0962224L11.3213 0.00976562ZM0.0077884 6.1791C1.45286 6.19145 2.9041 6.16675 4.34924 6.19145C4.34924 7.63035 4.36153 9.06924 4.343 10.5081C5.3682 10.5267 6.39327 10.5143 7.42458 10.5143C7.43693 10.6255 7.44311 10.7366 7.44311 10.8478C7.43076 12.0335 7.44928 13.213 7.43076 14.3987C6.39945 14.4111 5.37431 14.3987 4.343 14.4049C4.36153 16.5354 4.33682 18.6598 4.35535 20.7904C4.3924 20.9756 4.4171 21.1609 4.41093 21.3523C4.39234 21.5253 4.49732 21.6674 4.53444 21.8279C4.61472 22.1984 4.81851 22.5319 5.05312 22.8222C5.39901 23.168 5.84359 23.4088 6.3191 23.5138C6.75139 23.5818 7.18367 23.6188 7.6222 23.5879C7.64684 23.662 7.65925 23.7361 7.65925 23.8164C7.65307 24.928 7.65307 26.0396 7.65925 27.145C7.65925 27.2994 7.62837 27.4537 7.60367 27.6019C6.97994 27.6019 6.35628 27.6451 5.73249 27.6019C5.36196 27.5216 4.96679 27.5587 4.60855 27.3981C3.61429 27.1634 2.66326 26.6694 1.95308 25.9222C0.909414 24.9156 0.347442 23.4952 0.118948 22.0872C0.0571926 21.9328 0.0942456 21.7537 0.0694818 21.587C-0.0169136 21.2474 0.0200777 20.8891 0.00772668 20.5433C0.00161292 15.7573 0.00161289 10.9651 0.0077884 6.1791ZM21.1033 10.1808C21.3627 10.1129 21.6406 10.1623 21.8999 10.1067C22.4434 10.0388 22.9806 10.1253 23.5179 10.1438C23.8946 10.1376 24.259 10.2488 24.6295 10.3229C26.0066 10.6564 27.3097 11.3912 28.2545 12.4658C28.4213 12.7437 28.6745 12.9475 28.835 13.2315C29.2364 13.8676 29.502 14.5778 29.7304 15.2942C29.8725 15.8191 29.9466 16.3625 30.0145 16.8998C30.0454 18.0917 30.0269 19.2897 30.0331 20.4816C30.0269 22.8592 30.0392 25.2367 30.0269 27.6143C28.5818 27.5958 27.1429 27.6081 25.704 27.602C25.6917 27.5958 25.6608 27.5711 25.6485 27.5587C25.6423 24.2302 25.6485 20.9015 25.6485 17.5791C25.6546 17.1715 25.5805 16.7763 25.4941 16.3872C25.3397 15.992 25.1421 15.6153 24.8703 15.2942C24.7097 15.1027 24.4875 14.9792 24.3083 14.8125C24.0304 14.6272 23.7031 14.5407 23.3882 14.4543C23.2215 14.4419 23.0547 14.4543 22.9004 14.3987C22.2396 14.3555 21.5664 14.4111 20.9489 14.6643C20.498 14.8804 20.0781 15.1768 19.7817 15.5906C19.2939 16.1711 19.1333 16.9615 19.1456 17.7026C19.1456 21.0003 19.1518 24.3042 19.1456 27.602C17.6882 27.6143 16.2308 27.5958 14.7734 27.6143C14.7487 24.4339 14.7734 21.2474 14.761 18.067C14.7672 17.6593 14.7549 17.2518 14.7857 16.8442C14.866 16.6404 14.8104 16.4181 14.8721 16.2204C14.9833 15.467 15.2674 14.7507 15.5823 14.0652C15.8911 13.4661 16.2616 12.8918 16.7433 12.4163C17.1201 12.0334 17.5091 11.632 17.9846 11.3665C18.9049 10.7243 19.9918 10.3352 21.1033 10.1808ZM72.8541 10.1438C73.3914 10.1314 73.9225 10.0264 74.4598 10.1129C74.75 10.15 75.0465 10.1438 75.3366 10.1561C75.3922 10.6934 75.349 11.2368 75.3613 11.7741V13.9355C75.3613 14.0714 75.3799 14.2134 75.3243 14.3431C75.1822 14.2382 74.9908 14.2752 74.8303 14.232C74.1756 14.1765 73.5025 14.2073 72.885 14.4544C72.1501 14.7075 71.5078 15.2448 71.1496 15.9427C71.0446 16.0723 71.0446 16.2576 70.9273 16.3811C70.7358 17.0728 70.7235 17.7953 70.7358 18.5055C70.7296 21.5438 70.7544 24.576 70.7235 27.6144C69.2845 27.5958 67.8395 27.6144 66.3944 27.602C66.382 27.5897 66.3635 27.565 66.3511 27.5526V17.6409C66.3326 17.2272 66.4253 16.8257 66.4191 16.4182C66.518 16.2205 66.4932 15.9921 66.555 15.7883C66.8638 14.2259 67.6851 12.7499 68.9326 11.7433C69.1734 11.4716 69.5192 11.3419 69.8033 11.1258C70.7236 10.5637 71.792 10.292 72.8541 10.1438ZM8.84495 10.5081C10.3024 10.5328 11.7598 10.502 13.2172 10.5205C13.2172 16.1711 13.211 21.8154 13.2172 27.4599C13.2172 27.5155 13.2172 27.6267 13.1308 27.6081H8.85736C8.82025 26.6756 8.85112 25.737 8.83877 24.8045C8.84495 20.0431 8.83877 15.2756 8.84495 10.5081ZM54.5746 21.9699C54.9452 21.8279 55.3033 21.6426 55.68 21.513C56.2234 21.303 56.7545 21.0498 57.298 20.8398C58.4219 20.3212 59.5829 19.8889 60.7192 19.4009C60.9909 19.2527 61.2996 19.1848 61.5652 19.0242C61.8678 18.9069 62.1704 18.8019 62.4669 18.666C62.7262 18.5116 63.0227 18.4498 63.2882 18.314C63.6402 18.1719 63.9799 18.0114 64.3381 17.8818C64.7024 17.6779 65.11 17.5792 65.4743 17.3815C65.5732 17.3136 65.7337 17.3321 65.7954 17.2147C65.6905 17.0666 65.746 16.8813 65.6905 16.7207C65.6102 16.4305 65.5299 16.1464 65.462 15.8624C65.1841 15.004 64.7827 14.1826 64.2392 13.4663C63.5785 12.5091 62.6707 11.7371 61.6641 11.169C61.0033 10.7676 60.2622 10.5391 59.5212 10.3415C59.0642 10.2859 58.6257 10.1253 58.1625 10.1315C57.7426 10.0759 57.3103 10.0512 56.8966 10.1253C56.1617 10.1377 55.4577 10.3168 54.7598 10.5205C53.5433 10.9467 52.3884 11.5951 51.4559 12.4905C51.178 12.7499 50.9495 13.0525 50.684 13.3181C50.2702 13.8492 49.8935 14.4111 49.6094 15.0163C49.208 15.9241 48.8252 16.8752 48.7819 17.8818C48.6461 18.3635 48.6893 18.8698 48.6831 19.3639C48.6708 19.6788 48.7202 19.9876 48.7819 20.2902C48.7634 20.6113 48.8869 20.9078 48.9301 21.2165C49.0351 21.8711 49.3254 22.4763 49.5909 23.0815C50.3196 24.576 51.4682 25.8728 52.9072 26.7189C53.852 27.2994 54.9019 27.7131 56.0011 27.8675C56.8966 28.0096 57.8167 28.0342 58.7183 27.917C59.0271 27.9416 59.3235 27.8057 59.6323 27.7872C60.9477 27.4784 62.2384 26.9227 63.2326 25.9902C63.5291 25.7555 63.807 25.4776 64.0417 25.1811C64.4369 24.7797 64.721 24.2919 65.0051 23.8102C65.2768 23.2976 65.4991 22.7541 65.6597 22.1922C65.5733 22.1551 65.4745 22.1675 65.388 22.1675C63.9429 22.1737 62.504 22.1613 61.059 22.1675C60.9231 22.1675 60.9231 22.3528 60.8366 22.4269C60.5896 22.7851 60.2746 23.0877 59.9411 23.3717C59.4595 23.7176 58.8913 23.9029 58.3293 24.0696C58.1811 24.0882 58.0391 24.0819 57.9032 24.1376C57.5574 24.1622 57.2054 24.1499 56.8534 24.1437C56.4643 24.0696 56.0753 23.9832 55.6986 23.8597C55.1181 23.5632 54.5499 23.2236 54.1115 22.7418C54.0003 22.606 53.8213 22.501 53.7842 22.3219C53.883 22.2787 53.9757 22.2107 54.0868 22.1922C54.2658 22.1613 54.4016 22.0193 54.5746 21.9699ZM52.796 18.8451C52.7096 18.6289 52.7898 18.3757 52.7775 18.1472C52.8764 17.8322 52.9072 17.4988 53.0245 17.1838C53.3209 16.486 53.6853 15.8006 54.2164 15.2509C54.4634 15.0471 54.6734 14.8001 54.9574 14.6457C55.1674 14.5345 55.3712 14.411 55.5873 14.3122C55.9888 14.1949 56.3778 14.0097 56.7978 14.0097C57.1806 13.917 57.5759 13.9664 57.9649 13.9725C58.9839 14.1146 60.0091 14.553 60.6698 15.362C60.7378 15.5227 60.5092 15.535 60.4166 15.5968C60.0152 15.8191 59.5644 15.9302 59.163 16.1587C58.9839 16.1896 58.8295 16.3008 58.6566 16.3563C57.3782 16.9121 56.0752 17.3999 54.8092 17.9805C54.13 18.2461 53.4569 18.5301 52.796 18.8451ZM48.1953 2.96166C46.8429 2.94931 45.4904 2.96166 44.138 2.95549C44.0391 2.96784 43.9219 2.92461 43.8415 2.99871C43.8539 5.90121 43.8415 8.80987 43.8478 11.7124C43.8415 11.8173 43.8663 11.9223 43.8231 12.0211C43.6995 12.0026 43.6378 11.8853 43.5452 11.8173C42.9214 11.2801 42.2237 10.8231 41.4455 10.5575C40.9206 10.3537 40.371 10.2488 39.8152 10.15C39.1853 10.1376 38.5492 10.1191 37.9131 10.1561C37.8452 10.1747 37.7834 10.1932 37.7155 10.1994C36.3013 10.397 34.9797 11.0578 33.8929 11.9656C33.2877 12.5337 32.6825 13.1266 32.2564 13.8429C31.7562 14.5531 31.435 15.3683 31.1263 16.1711C30.9842 16.6775 30.8421 17.1777 30.7804 17.6964C30.663 18.4931 30.7124 19.3082 30.7248 20.1111C30.7557 20.321 30.8236 20.5186 30.8298 20.7286C30.9409 21.4079 31.1386 22.0749 31.4102 22.711C31.6387 23.3223 32.0092 23.8781 32.3489 24.4339C32.5897 24.7427 32.8244 25.0638 33.1147 25.3355C33.5469 25.7617 33.973 26.2248 34.5164 26.5212C35.1587 27.0091 35.9183 27.2994 36.6593 27.5834C36.9311 27.6328 37.1843 27.7872 37.4622 27.7934C37.6968 27.8119 37.913 27.9231 38.1477 27.9107C38.2712 27.8983 38.3824 27.9848 38.512 27.9724C39.111 27.991 39.7162 27.991 40.3152 27.9724C40.414 27.9724 40.5129 27.9292 40.6178 27.923C41.0315 27.9292 41.4144 27.7686 41.8158 27.7131C42.3407 27.5216 42.9028 27.3981 43.3906 27.1141C44.1131 26.7806 44.7677 26.3113 45.3544 25.7801C46.0955 25.1379 46.6945 24.3351 47.1391 23.4581C47.3306 23.0691 47.5467 22.6924 47.6702 22.2724C47.9049 21.6919 48.0099 21.0744 48.0902 20.463C48.226 19.9257 48.1828 19.3638 48.1951 18.808C48.1953 13.528 48.1953 8.2479 48.1953 2.96166ZM43.8045 19.685C43.7675 20.3396 43.5205 20.9633 43.2302 21.55C42.7423 22.4701 41.921 23.1741 40.9885 23.6188C40.8464 23.6929 40.6611 23.6867 40.5624 23.8225C40.3895 23.8225 40.2166 23.8288 40.0498 23.8905C39.5187 23.9029 38.9691 23.9523 38.4504 23.8041C38.228 23.6991 37.981 23.6559 37.7587 23.5385C37.4808 23.3841 37.1659 23.2792 36.9374 23.0445C36.5051 22.7419 36.1717 22.3281 35.869 21.902C35.6281 21.4883 35.3873 21.0622 35.2761 20.5928C35.1526 20.3458 35.1649 20.0679 35.0971 19.8085C35.0785 19.1478 35.0415 18.4685 35.1959 17.8262C35.2639 17.6224 35.3071 17.4062 35.3811 17.2025C35.5602 16.8751 35.6714 16.5108 35.906 16.2144C36.0296 15.955 36.2457 15.7635 36.4187 15.5412C36.8818 15.0101 37.5179 14.6705 38.1601 14.4049C38.401 14.3494 38.6356 14.2259 38.8889 14.2259C39.4014 14.0962 39.9325 14.2012 40.4389 14.2939C41.1059 14.5347 41.7667 14.8682 42.2854 15.3622C42.4769 15.5413 42.6188 15.7636 42.8103 15.9427C43.6007 17.0048 43.965 18.3696 43.8045 19.685ZM72.8171 25.4405H74.4351C74.4413 25.564 74.4413 25.6875 74.4351 25.8111C74.2498 25.8358 74.0646 25.8049 73.8855 25.8296C73.8608 26.3854 73.8855 26.935 73.8732 27.4908C73.7064 27.4784 73.5397 27.4784 73.3791 27.4846C73.3605 27.0461 73.3668 26.6015 73.3729 26.1631C73.3729 26.0457 73.3976 25.9099 73.2926 25.8296C73.132 25.8049 72.9715 25.8358 72.8109 25.8111C72.8047 25.6875 72.8047 25.564 72.8171 25.4405ZM74.7315 25.4467C74.96 25.4405 75.1885 25.4281 75.4171 25.459C75.4047 25.6381 75.5528 25.7616 75.5961 25.9284C75.6578 26.1383 75.7505 26.336 75.8122 26.5459C75.8616 26.6386 75.9481 26.7189 75.9172 26.8362C76.0407 26.3544 76.2322 25.8975 76.4236 25.4467C76.6397 25.4405 76.8621 25.4344 77.0844 25.4467C77.0967 26.1074 77.0844 26.7806 77.0844 27.4414C76.9362 27.4537 76.7879 27.4537 76.6335 27.4414C76.6397 26.9782 76.6335 26.5151 76.6459 26.0581C76.5903 26.1075 76.5347 26.1507 76.4915 26.2125C76.4112 26.6324 76.195 27.0153 76.0901 27.4352C75.9666 27.4538 75.8493 27.4538 75.7258 27.4415C75.6887 27.2068 75.5219 27.0153 75.5219 26.7745C75.3552 26.5706 75.349 26.2805 75.2194 26.052C75.1329 26.2187 75.2008 26.4163 75.1823 26.5954C75.1576 26.8857 75.2131 27.1821 75.1576 27.4723C75.0094 27.4723 74.8426 27.5217 74.7253 27.4168C74.7439 26.7621 74.7253 26.1075 74.7315 25.4467Z" fill="#DF4723" stroke="#DF4723" stroke-width="0.188247"/>
</g>
<defs>
<clipPath id="clip0">
<rect width="77.0925" height="28" fill="white"/>
</clipPath>
</defs>
</svg>
