<svg width="56" height="56" viewBox="0 0 56 56" fill="none" xmlns="http://www.w3.org/2000/svg">
<circle cx="28" cy="28" r="27.5" fill="white" stroke="#00CBA6"/>
<path fill-rule="evenodd" clip-rule="evenodd" d="M29.6349 36.7275V28.7662H32.3583L32.7669 25.6627H29.6349V23.6815C29.6349 22.7832 29.8882 22.1711 31.203 22.1711L32.8771 22.1704V19.3945C32.5876 19.3576 31.5938 19.2729 30.4371 19.2729C28.0217 19.2729 26.3681 20.719 26.3681 23.3741V25.6627H23.6365V28.7662H26.3681V36.7275H29.6349Z" fill="#00CBA6"/>
<mask id="mask0" style="mask-type:alpha" maskUnits="userSpaceOnUse" x="23" y="19" width="10" height="18">
<path fill-rule="evenodd" clip-rule="evenodd" d="M29.6349 36.7275V28.7662H32.3583L32.7669 25.6627H29.6349V23.6815C29.6349 22.7832 29.8882 22.1711 31.203 22.1711L32.8771 22.1704V19.3945C32.5876 19.3576 31.5938 19.2729 30.4371 19.2729C28.0217 19.2729 26.3681 20.719 26.3681 23.3741V25.6627H23.6365V28.7662H26.3681V36.7275H29.6349Z" fill="white"/>
</mask>
<g mask="url(#mask0)">
</g>
</svg>
