<svg width="56" height="56" viewBox="0 0 56 56" fill="none" xmlns="http://www.w3.org/2000/svg">
<circle cx="28" cy="28" r="27.5" fill="white" stroke="#00CBA6"/>
<path fill-rule="evenodd" clip-rule="evenodd" d="M23.6007 18.1816H32.3992C35.3874 18.1816 37.8184 20.6126 37.8182 23.6006V32.3991C37.8182 35.387 35.3874 37.818 32.3992 37.818H23.6007C20.6128 37.818 18.1819 35.3871 18.1819 32.3991V23.6006C18.1819 20.6126 20.6128 18.1816 23.6007 18.1816ZM32.3993 36.0758C34.4267 36.0758 36.0761 34.4265 36.0761 32.3991H36.076V23.6006C36.076 21.5733 34.4266 19.9239 32.3992 19.9239H23.6007C21.5734 19.9239 19.9241 21.5733 19.9241 23.6006V32.3991C19.9241 34.4265 21.5734 36.0759 23.6007 36.0758H32.3993ZM22.8572 27.9999C22.8572 25.1641 25.1643 22.857 28.0001 22.857C30.8359 22.857 33.1429 25.1641 33.1429 27.9999C33.1429 30.8357 30.8359 33.1427 28.0001 33.1427C25.1643 33.1427 22.8572 30.8357 22.8572 27.9999ZM24.628 27.9998C24.628 29.8591 26.1408 31.3717 28.0001 31.3717C29.8593 31.3717 31.3721 29.8591 31.3721 27.9998C31.3721 26.1404 29.8594 24.6277 28.0001 24.6277C26.1407 24.6277 24.628 26.1404 24.628 27.9998Z" fill="#00CBA6"/>
<mask id="mask0" style="mask-type:alpha" maskUnits="userSpaceOnUse" x="18" y="18" width="20" height="20">
<path fill-rule="evenodd" clip-rule="evenodd" d="M23.6007 18.1816H32.3992C35.3874 18.1816 37.8184 20.6126 37.8182 23.6006V32.3991C37.8182 35.387 35.3874 37.818 32.3992 37.818H23.6007C20.6128 37.818 18.1819 35.3871 18.1819 32.3991V23.6006C18.1819 20.6126 20.6128 18.1816 23.6007 18.1816ZM32.3993 36.0758C34.4267 36.0758 36.0761 34.4265 36.0761 32.3991H36.076V23.6006C36.076 21.5733 34.4266 19.9239 32.3992 19.9239H23.6007C21.5734 19.9239 19.9241 21.5733 19.9241 23.6006V32.3991C19.9241 34.4265 21.5734 36.0759 23.6007 36.0758H32.3993ZM22.8572 27.9999C22.8572 25.1641 25.1643 22.857 28.0001 22.857C30.8359 22.857 33.1429 25.1641 33.1429 27.9999C33.1429 30.8357 30.8359 33.1427 28.0001 33.1427C25.1643 33.1427 22.8572 30.8357 22.8572 27.9999ZM24.628 27.9998C24.628 29.8591 26.1408 31.3717 28.0001 31.3717C29.8593 31.3717 31.3721 29.8591 31.3721 27.9998C31.3721 26.1404 29.8594 24.6277 28.0001 24.6277C26.1407 24.6277 24.628 26.1404 24.628 27.9998Z" fill="white"/>
</mask>
<g mask="url(#mask0)">
</g>
</svg>
