<svg width="56" height="56" viewBox="0 0 56 56" fill="none" xmlns="http://www.w3.org/2000/svg">
<rect opacity="0.1" width="56" height="56" rx="4" fill="#00CBA6"/>
<path fill-rule="evenodd" clip-rule="evenodd" d="M27.9434 18.7393C23.7028 18.7249 20.2534 22.1509 20.239 26.3915V26.4176C20.3092 28.4599 21.0144 30.4296 22.2564 32.0523C23.6499 33.9133 25.3601 35.5145 27.3086 36.7828C27.6581 37.0851 28.1765 37.0851 28.526 36.7828C29.833 35.939 31.0381 34.9469 32.1173 33.8263C34.0042 31.835 35.5434 29.2871 35.5955 26.5306V26.4437C35.6099 22.2031 32.1839 18.7537 27.9434 18.7393ZM27.9999 30.0002C29.9329 30.0002 31.4999 28.4332 31.4999 26.5002C31.4999 24.5672 29.9329 23.0002 27.9999 23.0002C26.0669 23.0002 24.4999 24.5672 24.4999 26.5002C24.4999 28.4332 26.0669 30.0002 27.9999 30.0002Z" fill="#00CBA6"/>
<path d="M20.239 26.3915L19.489 26.3889V26.3915H20.239ZM27.9434 18.7393L27.9408 19.4893L27.9434 18.7393ZM20.239 26.4176H19.489C19.489 26.4261 19.4892 26.4347 19.4895 26.4433L20.239 26.4176ZM22.2564 32.0523L22.8568 31.6028L22.852 31.5965L22.2564 32.0523ZM27.3086 36.7828L27.7992 36.2155C27.7735 36.1933 27.7462 36.1728 27.7177 36.1542L27.3086 36.7828ZM28.526 36.7828L28.1192 36.1527C28.0898 36.1717 28.0618 36.1927 28.0353 36.2155L28.526 36.7828ZM32.1173 33.8263L32.6575 34.3465L32.6617 34.3421L32.1173 33.8263ZM35.5955 26.5306L36.3454 26.5448C36.3455 26.5401 36.3455 26.5353 36.3455 26.5306H35.5955ZM35.5955 26.4437L34.8455 26.4411V26.4437H35.5955ZM20.989 26.394C21.002 22.5677 24.1144 19.4763 27.9408 19.4893L27.9459 17.9893C23.2911 17.9735 19.5048 21.7341 19.489 26.3889L20.989 26.394ZM20.989 26.4176V26.3915H19.489V26.4176H20.989ZM22.852 31.5965C21.7047 30.0976 21.0534 28.2783 20.9886 26.3918L19.4895 26.4433C19.565 28.6415 20.324 30.7615 21.6608 32.5082L22.852 31.5965ZM27.7177 36.1542C25.843 34.9339 24.1975 33.3933 22.8567 31.6028L21.6561 32.5019C23.1024 34.4333 24.8772 36.0951 26.8994 37.4114L27.7177 36.1542ZM28.0353 36.2155C27.9675 36.2742 27.867 36.2742 27.7992 36.2155L26.8179 37.35C27.4491 37.896 28.3854 37.896 29.0166 37.35L28.0353 36.2155ZM31.577 33.306C30.538 34.385 29.3777 35.3402 28.1192 36.1527L28.9327 37.4129C30.2884 36.5377 31.5383 35.5088 32.6575 34.3465L31.577 33.306ZM34.8457 26.5164C34.7985 29.0068 33.3986 31.3837 31.5729 33.3104L32.6617 34.3421C34.6099 32.2862 36.2882 29.5674 36.3454 26.5448L34.8457 26.5164ZM34.8455 26.4437V26.5306H36.3455V26.4437H34.8455ZM27.9408 19.4893C31.7672 19.5023 34.8585 22.6147 34.8455 26.4411L36.3455 26.4462C36.3613 21.7914 32.6007 18.0051 27.9459 17.9893L27.9408 19.4893ZM30.7499 26.5002C30.7499 28.019 29.5187 29.2502 27.9999 29.2502V30.7502C30.3471 30.7502 32.2499 28.8475 32.2499 26.5002H30.7499ZM27.9999 23.7502C29.5187 23.7502 30.7499 24.9815 30.7499 26.5002H32.2499C32.2499 24.153 30.3471 22.2502 27.9999 22.2502V23.7502ZM25.2499 26.5002C25.2499 24.9815 26.4811 23.7502 27.9999 23.7502V22.2502C25.6527 22.2502 23.7499 24.153 23.7499 26.5002H25.2499ZM27.9999 29.2502C26.4811 29.2502 25.2499 28.019 25.2499 26.5002H23.7499C23.7499 28.8475 25.6527 30.7502 27.9999 30.7502V29.2502Z" fill="#00CBA6"/>
</svg>
