<svg width="56" height="56" viewBox="0 0 56 56" fill="none" xmlns="http://www.w3.org/2000/svg">
<rect opacity="0.1" width="56" height="56" rx="4" fill="#00CBA6"/>
<path fill-rule="evenodd" clip-rule="evenodd" d="M18.9903 20.8725C19.3067 20.3488 21.0495 18.4438 22.2932 18.5013C22.665 18.5321 22.9936 18.757 23.2607 19.0178C23.8738 19.6166 25.629 21.881 25.7286 22.3575C25.971 23.5262 24.5783 24.1999 25.0045 25.3778C26.0911 28.0366 27.9634 29.9088 30.6233 30.9943C31.8003 31.4205 32.474 30.0279 33.6428 30.2713C34.1183 30.3709 36.3839 32.126 36.9826 32.7391C37.2425 33.0051 37.4684 33.3347 37.4992 33.7065C37.5454 35.0159 35.5222 36.7833 35.1278 37.0092C34.1974 37.6747 32.9834 37.6634 31.5035 36.9753C27.3739 35.2572 20.7743 28.7822 19.0242 24.4967C18.3546 23.0251 18.3084 21.803 18.9903 20.8725Z" fill="#00CBA6"/>
</svg>
