<svg width="56" height="56" viewBox="0 0 56 56" fill="none" xmlns="http://www.w3.org/2000/svg">
<circle cx="28" cy="28" r="27.5" fill="white" stroke="#00CBA6"/>
<path fill-rule="evenodd" clip-rule="evenodd" d="M37.8181 22.1461C37.1356 22.4486 36.4032 22.6537 35.6336 22.7453C36.4194 22.2747 37.0208 21.5284 37.3059 20.6419C36.5689 21.0776 35.7553 21.394 34.8885 21.5655C34.1943 20.825 33.2069 20.3638 32.1118 20.3638C30.0108 20.3638 28.3072 22.0673 28.3072 24.1672C28.3072 24.465 28.3408 24.7559 28.4057 25.034C25.2443 24.8753 22.441 23.3606 20.5648 21.0591C20.2369 21.62 20.0503 22.2736 20.0503 22.9712C20.0503 24.2912 20.7224 25.4559 21.7423 26.1373C21.1188 26.1164 20.5324 25.9449 20.019 25.6598V25.7073C20.019 27.5499 21.3309 29.0877 23.0703 29.4377C22.7516 29.5235 22.4156 29.571 22.0679 29.571C21.8222 29.571 21.5846 29.5467 21.3517 29.5003C21.8361 31.0126 23.2407 32.1124 24.9048 32.1426C23.6034 33.1624 21.9624 33.7685 20.1801 33.7685C19.873 33.7685 19.5705 33.7499 19.2727 33.7163C20.9566 34.7976 22.9556 35.428 25.1042 35.428C32.1026 35.428 35.928 29.6313 35.928 24.6041L35.9153 24.1116C36.6627 23.5785 37.3094 22.9086 37.8181 22.1461Z" fill="#00CBA6"/>
<mask id="mask0" style="mask-type:alpha" maskUnits="userSpaceOnUse" x="19" y="20" width="19" height="16">
<path fill-rule="evenodd" clip-rule="evenodd" d="M37.8181 22.1461C37.1356 22.4486 36.4032 22.6537 35.6336 22.7453C36.4194 22.2747 37.0208 21.5284 37.3059 20.6419C36.5689 21.0776 35.7553 21.394 34.8885 21.5655C34.1943 20.825 33.2069 20.3638 32.1118 20.3638C30.0108 20.3638 28.3072 22.0673 28.3072 24.1672C28.3072 24.465 28.3408 24.7559 28.4057 25.034C25.2443 24.8753 22.441 23.3606 20.5648 21.0591C20.2369 21.62 20.0503 22.2736 20.0503 22.9712C20.0503 24.2912 20.7224 25.4559 21.7423 26.1373C21.1188 26.1164 20.5324 25.9449 20.019 25.6598V25.7073C20.019 27.5499 21.3309 29.0877 23.0703 29.4377C22.7516 29.5235 22.4156 29.571 22.0679 29.571C21.8222 29.571 21.5846 29.5467 21.3517 29.5003C21.8361 31.0126 23.2407 32.1124 24.9048 32.1426C23.6034 33.1624 21.9624 33.7685 20.1801 33.7685C19.873 33.7685 19.5705 33.7499 19.2727 33.7163C20.9566 34.7976 22.9556 35.428 25.1042 35.428C32.1026 35.428 35.928 29.6313 35.928 24.6041L35.9153 24.1116C36.6627 23.5785 37.3094 22.9086 37.8181 22.1461Z" fill="white"/>
</mask>
<g mask="url(#mask0)">
</g>
</svg>
