<svg width="155" height="56" viewBox="0 0 155 56" fill="none" xmlns="http://www.w3.org/2000/svg">
<rect width="155" height="56" rx="2" fill="#2B3031"/>
<path d="M40.3494 26.7951C40.3735 24.9207 41.3562 23.1893 42.9531 22.2075C41.9411 20.7622 40.3069 19.8787 38.5433 19.8235C36.688 19.6288 34.8893 20.9338 33.9438 20.9338C32.98 20.9338 31.5243 19.8429 29.9568 19.8751C27.8943 19.9417 26.0181 21.086 25.0147 22.8891C22.8779 26.5887 24.4718 32.026 26.5187 35.0165C27.5428 36.4809 28.7397 38.1166 30.3058 38.0586C31.8384 37.995 32.4108 37.0813 34.2607 37.0813C36.0934 37.0813 36.6304 38.0586 38.2283 38.0217C39.8728 37.995 40.9089 36.5508 41.8971 35.0726C42.633 34.0292 43.1992 32.876 43.5748 31.6557C41.6217 30.8296 40.3517 28.9158 40.3494 26.7951Z" fill="white"/>
<path d="M37.3293 17.8568C38.2259 16.7804 38.6677 15.3968 38.5607 14C37.1908 14.1439 35.9254 14.7986 35.0167 15.8337C34.1193 16.8549 33.6647 18.191 33.753 19.5477C35.1412 19.5619 36.4594 18.9387 37.3293 17.8568Z" fill="white"/>
<path fill-rule="evenodd" clip-rule="evenodd" d="M53.7051 34.4983H58.7344L59.9411 38.0645H62.1076L57.344 24.8704H55.1308L50.3672 38.0645H52.4974L53.7051 34.4983ZM58.2125 32.8526H54.226L56.1923 27.0649H56.2473L58.2125 32.8526Z" fill="white"/>
<path fill-rule="evenodd" clip-rule="evenodd" d="M68.3828 38.1649C70.7973 38.1649 72.3973 36.2443 72.3973 33.255C72.3973 30.274 70.788 28.3441 68.3465 28.3441C67.0902 28.3036 65.9134 28.957 65.2835 30.0447H65.2472V28.4447H63.3359V41.2466H65.3105V36.4819H65.3562C65.9592 37.5765 67.1348 38.2302 68.3828 38.1649ZM67.8242 30.0269C69.3599 30.0269 70.3663 31.3073 70.3663 33.2548H70.3663C70.3663 35.22 69.3599 36.4911 67.8242 36.4911C66.3156 36.4911 65.3008 35.1931 65.3008 33.2548C65.3008 31.3342 66.3156 30.0269 67.8242 30.0269Z" fill="white"/>
<path fill-rule="evenodd" clip-rule="evenodd" d="M78.9685 38.1652C81.383 38.1652 82.9835 36.2446 82.9835 33.2553C82.9835 30.2742 81.3737 28.3443 78.9322 28.3443C77.6759 28.3038 76.4991 28.9572 75.8692 30.0449H75.8329V28.445H73.9216V41.2468H75.8962V36.4822H75.9419C76.5449 37.5768 77.7205 38.2305 78.9685 38.1652ZM78.4099 30.0271C79.9456 30.0271 80.952 31.3075 80.952 33.2551C80.952 35.2203 79.9456 36.4913 78.4099 36.4913C76.9012 36.4913 75.8865 35.1933 75.8865 33.2551C75.8865 31.3345 76.9012 30.0271 78.4099 30.0271Z" fill="white"/>
<path d="M89.9783 34.3883C90.1246 35.6967 91.3957 36.5558 93.1326 36.5558C94.7969 36.5558 95.9943 35.6967 95.9943 34.5169C95.9943 33.4928 95.2721 32.8796 93.5622 32.4594L91.8522 32.0474C89.4294 31.4622 88.3047 30.3292 88.3047 28.4905C88.3047 26.2141 90.2886 24.6504 93.1046 24.6504C95.8937 24.6504 97.8049 26.2141 97.8693 28.4905H95.876C95.7567 27.1738 94.6682 26.379 93.0776 26.379C91.487 26.379 90.3985 27.1832 90.3985 28.3536C90.3985 29.2864 91.0937 29.8353 92.7943 30.2555L94.248 30.6124C96.9551 31.2526 98.0788 32.34 98.0788 34.2699C98.0788 36.7384 96.1136 38.2844 92.9863 38.2844C90.0602 38.2844 88.0847 36.7747 87.957 34.3882L89.9783 34.3883Z" fill="white"/>
<path d="M102.344 26.1685V28.4449H104.173V30.0086H102.344V35.3118C102.344 36.1356 102.71 36.5195 103.514 36.5195C103.732 36.5157 103.948 36.5005 104.164 36.4738V38.0282C103.802 38.0957 103.435 38.1263 103.067 38.1195C101.12 38.1195 100.36 37.388 100.36 35.5224V30.0086H98.9614V28.4449H100.36V26.1685H102.344Z" fill="white"/>
<path fill-rule="evenodd" clip-rule="evenodd" d="M109.793 28.3267C107.013 28.3267 105.23 30.2286 105.23 33.2552C105.23 36.2902 106.995 38.1838 109.793 38.1838C112.591 38.1838 114.356 36.2902 114.356 33.2552C114.356 30.2285 112.582 28.3267 109.793 28.3267ZM109.793 29.9536C111.393 29.9536 112.344 31.179 112.344 33.2552H112.344C112.344 35.3398 111.393 36.5559 109.793 36.5559C108.193 36.5559 107.241 35.3398 107.241 33.2552C107.241 31.1884 108.193 29.9536 109.793 29.9536Z" fill="white"/>
<path d="M115.985 28.4449H117.869V30.0822H117.914C118.177 29.0282 119.143 28.3028 120.228 28.3442C120.456 28.3434 120.683 28.3681 120.905 28.4179V30.2648C120.617 30.177 120.318 30.1367 120.017 30.1455C119.437 30.1219 118.875 30.3533 118.48 30.7788C118.084 31.2043 117.894 31.7814 117.96 32.3587V38.0644H115.985L115.985 28.4449Z" fill="white"/>
<path fill-rule="evenodd" clip-rule="evenodd" d="M125.866 38.1838C128.042 38.1838 129.743 36.9854 130.008 35.2391L128.134 35.2391C127.774 36.1317 126.87 36.6819 125.912 36.5922C125.194 36.6186 124.498 36.3351 124.003 35.8138C123.508 35.2925 123.261 34.5836 123.324 33.8674V33.7481H130.118V33.0716C130.118 30.1549 128.445 28.3267 125.783 28.3267C123.077 28.3267 121.331 30.2836 121.331 33.3009C121.331 36.3089 123.068 38.1838 125.866 38.1838ZM128.144 32.3683L123.335 32.3683C123.333 31.7188 123.591 31.0956 124.051 30.6371C124.511 30.1786 125.135 29.9229 125.785 29.9268C126.429 29.913 127.05 30.1686 127.498 30.632C127.946 31.0955 128.18 31.7248 128.144 32.3683Z" fill="white"/>
<path fill-rule="evenodd" clip-rule="evenodd" d="M56.573 16.072C55.9903 15.4567 55.1623 15.1351 54.317 15.1957H52.0078V21.5888H54.317C56.2213 21.5888 57.3252 20.4148 57.3252 18.3724C57.4318 17.5316 57.1557 16.6874 56.573 16.072ZM54.2061 20.6847H53.0007V16.0992H54.2061C54.807 16.0658 55.3913 16.3028 55.7993 16.7452C56.2073 17.1876 56.3962 17.7892 56.3144 18.3854C56.4026 18.9841 56.2164 19.5907 55.8074 20.0367C55.3984 20.4828 54.8102 20.7208 54.2061 20.6847Z" fill="white"/>
<path fill-rule="evenodd" clip-rule="evenodd" d="M59.5184 17.0149C58.7802 17.473 58.3656 18.3099 58.4483 19.1746C58.364 20.0403 58.7783 20.8789 59.5171 21.3379C60.2559 21.7969 61.1912 21.7969 61.93 21.3379C62.6688 20.8789 63.083 20.0403 62.9987 19.1746C63.0815 18.3099 62.6668 17.473 61.9287 17.0149C61.1905 16.5569 60.2565 16.5569 59.5184 17.0149ZM60.7268 17.5171C61.5513 17.5171 62.0211 18.1287 62.0211 19.1745H62.0211C62.0211 20.2244 61.5513 20.8355 60.7268 20.8355C59.8992 20.8355 59.4336 20.2286 59.4336 19.1745C59.4336 18.1287 59.8992 17.5171 60.7268 17.5171Z" fill="white"/>
<path d="M69.0449 21.5887H68.0572L67.0601 18.0354H66.9847L65.9918 21.5887H65.0135L63.6836 16.7642H64.6493L65.5136 20.4456H65.5848L66.5767 16.7642H67.4901L68.482 20.4456H68.5573L69.4174 16.7642H70.3696L69.0449 21.5887Z" fill="white"/>
<path d="M71.4893 16.7642H72.4058V17.5306H72.477C72.7244 16.9663 73.3026 16.6211 73.9167 16.671C74.3922 16.6353 74.8582 16.8177 75.1831 17.1668C75.5079 17.5159 75.6564 17.9937 75.5866 18.4655V21.5887H74.6345V18.7046C74.6345 17.9292 74.2976 17.5437 73.5934 17.5437C73.2709 17.5286 72.9579 17.6552 72.7364 17.8902C72.515 18.1252 72.4072 18.4452 72.4414 18.7663V21.5887H71.4893L71.4893 16.7642Z" fill="white"/>
<path d="M77.1026 14.8809H78.0548V21.5888H77.1026V14.8809Z" fill="white"/>
<path fill-rule="evenodd" clip-rule="evenodd" d="M80.4482 17.0144C79.71 17.4725 79.2953 18.3094 79.378 19.1743C79.2938 20.04 79.7081 20.8785 80.447 21.3375C81.1858 21.7965 82.1211 21.7965 82.8599 21.3375C83.5988 20.8785 84.0131 20.04 83.9289 19.1743C84.0116 18.3094 83.5969 17.4725 82.8587 17.0144C82.1205 16.5564 81.1864 16.5564 80.4482 17.0144ZM81.6565 17.5171C82.481 17.5171 82.9508 18.1287 82.9508 19.1745H82.9508C82.9508 20.2244 82.481 20.8355 81.6565 20.8355C80.8289 20.8355 80.3633 20.2286 80.3633 19.1745C80.3633 18.1287 80.8289 17.5171 81.6565 17.5171Z" fill="white"/>
<path fill-rule="evenodd" clip-rule="evenodd" d="M86.7273 18.7842C85.5795 18.8553 84.9329 19.356 84.9329 20.2244C84.9345 20.6362 85.1102 21.0281 85.4166 21.3032C85.723 21.5783 86.1315 21.7109 86.5411 21.6683C87.1253 21.6953 87.6789 21.406 87.9902 20.9108H88.0655V21.5888H88.9821V18.2924C88.9821 17.2733 88.2999 16.6711 87.0904 16.6711C85.9959 16.6711 85.2164 17.2027 85.1191 18.0314H86.0409C86.1466 17.6903 86.5149 17.4951 87.0464 17.4951C87.6972 17.4951 88.0341 17.7828 88.0341 18.2924V18.7088L86.7273 18.7842ZM88.0342 19.4088V19.8122C88.0134 20.1197 87.8686 20.4055 87.6331 20.6043C87.3976 20.8032 87.0915 20.8979 86.7849 20.8668C86.2669 20.8668 85.8903 20.6142 85.8903 20.1799C85.8903 19.7546 86.1916 19.5286 86.856 19.4841L88.0342 19.4088Z" fill="white"/>
<path fill-rule="evenodd" clip-rule="evenodd" d="M92.236 16.6842C91.0171 16.6842 90.2334 17.65 90.2334 19.1744C90.2334 20.7026 91.0087 21.6684 92.2361 21.6683C92.8583 21.6912 93.4419 21.367 93.7511 20.8265H93.8265V21.5888H94.7388V14.8809H93.7867V17.5306H93.7155C93.428 16.9857 92.8516 16.6558 92.236 16.6842ZM92.506 20.8135C91.6992 20.8135 91.2169 20.1977 91.2169 19.1744H91.2169C91.2169 18.1595 91.7044 17.5396 92.506 17.5396C93.3032 17.5396 93.8044 18.1731 93.8044 19.1786C93.8044 20.1888 93.3085 20.8135 92.506 20.8135Z" fill="white"/>
<path fill-rule="evenodd" clip-rule="evenodd" d="M99.7484 17.0147C99.0102 17.4727 98.5956 18.3096 98.6783 19.1744C98.594 20.0401 99.0083 20.8786 99.7471 21.3377C100.486 21.7967 101.421 21.7967 102.16 21.3377C102.899 20.8786 103.313 20.0401 103.229 19.1744C103.311 18.3096 102.897 17.4727 102.159 17.0147C101.42 16.5566 100.486 16.5566 99.7484 17.0147ZM100.957 17.5168C101.781 17.5168 102.251 18.1284 102.251 19.1742C102.251 20.2242 101.781 20.8352 100.957 20.8352C100.129 20.8352 99.6636 20.2284 99.6636 19.1742C99.6636 18.1284 100.129 17.5168 100.957 17.5168Z" fill="white"/>
<path d="M104.508 16.7644H105.424V17.5308H105.496C105.743 16.9665 106.321 16.6214 106.935 16.6713C107.411 16.6355 107.877 16.8179 108.202 17.167C108.526 17.5161 108.675 17.994 108.605 18.4657V21.5889H107.653V18.7048C107.653 17.9295 107.316 17.5439 106.612 17.5439C106.289 17.5289 105.976 17.6555 105.755 17.8905C105.534 18.1255 105.426 18.4455 105.46 18.7665V21.589H104.508V16.7644Z" fill="white"/>
<path d="M113.984 15.563V16.7861H115.029V17.5881H113.984V20.069C113.984 20.5743 114.192 20.7956 114.666 20.7956C114.787 20.7952 114.909 20.7879 115.029 20.7736V21.5667C114.858 21.5973 114.685 21.6136 114.511 21.6154C113.452 21.6154 113.031 21.2429 113.031 20.3127V17.5881H112.265V16.7861H113.031V15.563H113.984Z" fill="white"/>
<path d="M116.328 14.8809H117.272V17.5396H117.347C117.607 16.9703 118.195 16.6247 118.818 16.6753C119.291 16.6496 119.751 16.836 120.072 17.1838C120.393 17.5316 120.543 18.0046 120.48 18.4739V21.5888H119.527V18.7088C119.527 17.9382 119.168 17.5479 118.495 17.5479C118.164 17.5207 117.837 17.6412 117.603 17.877C117.369 18.1128 117.251 18.44 117.28 18.7711V21.5888H116.328L116.328 14.8809Z" fill="white"/>
<path fill-rule="evenodd" clip-rule="evenodd" d="M123.945 21.6818C124.887 21.784 125.768 21.1961 126.035 20.286L125.119 20.286C124.89 20.6957 124.437 20.9268 123.971 20.8709C123.611 20.8749 123.267 20.7271 123.023 20.464C122.778 20.2008 122.656 19.8467 122.686 19.4887V19.4354H126.093V19.1031C126.093 17.5881 125.283 16.671 123.94 16.671C123.295 16.6655 122.68 16.9401 122.253 17.4237C121.826 17.9073 121.63 18.5523 121.716 19.1916C121.628 19.8291 121.825 20.473 122.254 20.9526C122.683 21.4321 123.301 21.6988 123.945 21.6818ZM125.124 18.7311H122.688C122.683 18.3984 122.813 18.0781 123.049 17.8428C123.284 17.6074 123.604 17.4771 123.937 17.4813C124.265 17.4737 124.581 17.6052 124.807 17.8432C125.034 18.0812 125.149 18.4037 125.124 18.7311Z" fill="white"/>
</svg>
