<svg width="48" height="48" viewBox="0 0 48 48" fill="none" xmlns="http://www.w3.org/2000/svg">
<rect width="48" height="48" rx="4" fill="#E6FAF6"/>
<g clip-path="url(#clip0)">
<path d="M24.5438 21.54V22.7466C24.5438 23.1299 24.6204 23.4514 24.7714 23.7019C24.9798 24.0476 25.3219 24.2457 25.7102 24.2457C26.0907 24.2457 26.4688 24.0604 26.8339 23.6953L30.8194 19.7098C31.6945 18.8348 31.6945 17.4109 30.8194 16.5359L26.8339 12.5504C26.4688 12.1851 26.0907 12 25.7102 12C25.1296 12 24.5438 12.4636 24.5438 13.4991V14.595C18.8855 14.9291 14.2013 19.2715 13.5051 24.9567C13.4661 25.2742 13.6467 25.5782 13.9442 25.6959C14.0285 25.7292 14.1162 25.7454 14.2028 25.7454C14.4221 25.7454 14.6349 25.6426 14.7704 25.4575C16.6377 22.9061 19.6359 21.3829 22.7904 21.3829C23.3749 21.3829 23.9627 21.4356 24.5438 21.54Z" fill="#00CBA6"/>
<path d="M34.0432 22.3041C33.7456 22.1862 33.4061 22.2843 33.217 22.5427C31.3499 25.0939 28.3517 26.6172 25.1972 26.6172C24.6127 26.6172 24.0249 26.5644 23.4437 26.4601V25.2534C23.4437 24.2179 22.8578 23.7543 22.2774 23.7543C21.8969 23.7543 21.5187 23.9396 21.1535 24.3049L17.168 28.2902C16.2931 29.1652 16.2931 30.5891 17.1682 31.4643L21.1535 35.4496C21.5187 35.8149 21.8969 36 22.2774 36C22.8578 36 23.4437 35.5364 23.4437 34.5009V33.4051C29.1022 33.0709 33.7863 28.7285 34.4824 23.0435C34.5214 22.7258 34.3409 22.4218 34.0432 22.3041Z" fill="#00CBA6"/>
</g>
<defs>
<clipPath id="clip0">
<rect width="24" height="24" fill="white" transform="translate(12 12)"/>
</clipPath>
</defs>
</svg>
