<svg width="48" height="48" viewBox="0 0 48 48" fill="none" xmlns="http://www.w3.org/2000/svg">
<rect width="48" height="48" rx="4" fill="#E6FAF6"/>
<path fill-rule="evenodd" clip-rule="evenodd" d="M29.8573 32.4168C31.7323 32.4168 33.2503 30.8978 33.2503 29.0238V26.3238C32.0103 26.3238 31.0103 25.3238 31.0103 24.0848C31.0103 22.8448 32.0103 21.8458 33.2503 21.8458L33.2483 19.1428C33.2483 17.2688 31.7303 15.7498 29.8563 15.7498H18.1443C16.2703 15.7498 14.7513 17.2688 14.7513 19.1428L14.7503 21.9328C15.9893 21.9328 16.9893 22.8448 16.9893 24.0848C16.9893 25.3238 15.9893 26.3238 14.7503 26.3238V29.0238C14.7503 30.8978 16.2683 32.4168 18.1423 32.4168H29.8573Z" fill="#00CBA6" stroke="#00CBA6" stroke-width="1.5" stroke-linecap="round" stroke-linejoin="round"/>
<path fill-rule="evenodd" clip-rule="evenodd" d="M23.9998 25.8543L25.7398 26.7693C25.9028 26.8543 26.0938 26.7163 26.0628 26.5353L25.7298 24.5963L27.1388 23.2253C27.2708 23.0963 27.1978 22.8733 27.0158 22.8463L25.0698 22.5633L24.1988 20.7993C24.1178 20.6343 23.8828 20.6343 23.8008 20.7993L22.9298 22.5633L20.9848 22.8463C20.8028 22.8733 20.7298 23.0963 20.8618 23.2253L22.2698 24.5963L21.9368 26.5353C21.9058 26.7163 22.0968 26.8543 22.2598 26.7693L23.9998 25.8543Z" fill="white" stroke="white" stroke-width="1.5" stroke-linecap="round" stroke-linejoin="round"/>
</svg>
