<svg width="155" height="56" viewBox="0 0 155 56" fill="none" xmlns="http://www.w3.org/2000/svg">
<rect width="155" height="56" rx="2" fill="#2B3031"/>
<path d="M57.4205 18.2402C57.4502 18.9806 57.1798 19.7018 56.6705 20.2402C56.0952 20.8323 55.2955 21.1522 54.4705 21.1202C53.6411 21.1386 52.841 20.8128 52.2605 20.2202C51.0486 18.9805 51.0486 16.9998 52.2605 15.7602C53.1701 14.8676 54.5279 14.611 55.7005 15.1102C56.0599 15.2605 56.3811 15.4895 56.6405 15.7802L56.1105 16.3102C55.7079 15.8251 55.1001 15.5583 54.4705 15.5902C53.145 15.5902 52.0705 16.6647 52.0705 17.9902C52.0705 19.3156 53.145 20.3902 54.4705 20.3902C55.0869 20.3909 55.6791 20.1504 56.1205 19.7202C56.4267 19.3857 56.6039 18.9533 56.6205 18.5002H54.4705V17.7802H57.3805C57.4038 17.9325 57.4171 18.0861 57.4205 18.2402Z" fill="white" stroke="white" stroke-width="0.512821"/>
<path d="M61.9986 15.7402H59.2986V17.6402H61.7586V18.3602H59.2986V20.2602H61.9986V21.0002H58.5186V15.0002H61.9986V15.7402Z" fill="white" stroke="white" stroke-width="0.512821"/>
<path d="M65.2786 21.0002H64.5086V15.7402H62.8286V15.0002H66.9986V15.7402H65.2786V21.0002Z" fill="white" stroke="white" stroke-width="0.512821"/>
<path d="M69.9387 21.0002V15.0002H70.7087V21.0002H69.9387Z" fill="white" stroke="white" stroke-width="0.512821"/>
<path d="M74.1297 21H73.3597V15.74H71.6797V15H75.7997V15.74H74.1297V21Z" fill="white" stroke="white" stroke-width="0.512821"/>
<path fill-rule="evenodd" clip-rule="evenodd" d="M81.4084 21.136C82.2345 21.136 83.0264 20.8063 83.6084 20.22C84.1963 19.6337 84.5149 18.8299 84.4884 18C84.5078 17.1714 84.1903 16.3703 83.6084 15.78C83.032 15.1862 82.2359 14.8569 81.4084 14.87C80.5796 14.8496 79.7806 15.1801 79.2084 15.78C78.0399 17.0294 78.0399 18.9707 79.2084 20.22C79.7904 20.8063 80.5823 21.136 81.4084 21.136ZM81.3968 20.3913C80.7891 20.3913 80.2063 20.1498 79.7768 19.7199C78.8869 18.7458 78.8869 17.2539 79.7768 16.2798C80.2063 15.8499 80.7891 15.6084 81.3968 15.6084C82.0045 15.6084 82.5873 15.8499 83.0168 16.2798C83.9067 17.2539 83.9067 18.7458 83.0168 19.7199C82.5873 20.1498 82.0045 20.3913 81.3968 20.3913Z" fill="white"/>
<path d="M83.6084 20.22L83.4273 20.0385L83.4264 20.0394L83.6084 20.22ZM84.4884 18L84.2321 17.994L84.2319 18.0011L84.2321 18.0082L84.4884 18ZM83.6084 15.78L83.4244 15.9586L83.4258 15.96L83.6084 15.78ZM81.4084 14.87L81.4021 15.1266L81.4125 15.1264L81.4084 14.87ZM79.2084 15.78L79.0228 15.6031L79.0211 15.6049L79.2084 15.78ZM79.2084 20.22L79.0211 20.3953L79.0264 20.4007L79.2084 20.22ZM79.7768 19.7199L79.5873 19.893L79.5954 19.9011L79.7768 19.7199ZM79.7768 16.2798L79.5952 16.0984L79.5875 16.1069L79.7768 16.2798ZM83.0168 16.2798L83.2063 16.1067L83.1982 16.0986L83.0168 16.2798ZM83.0168 19.7199L83.1984 19.9013L83.2061 19.8928L83.0168 19.7199ZM83.4264 20.0394C82.8926 20.5771 82.1662 20.8796 81.4084 20.8796V21.3924C82.3028 21.3924 83.1602 21.0354 83.7904 20.4007L83.4264 20.0394ZM84.2321 18.0082C84.2564 18.7672 83.965 19.5023 83.4273 20.0385L83.7895 20.4016C84.4276 19.7651 84.7735 18.8927 84.7447 17.9918L84.2321 18.0082ZM83.4258 15.96C83.9589 16.5009 84.2499 17.2348 84.2321 17.994L84.7447 18.0061C84.7658 17.108 84.4217 16.2398 83.791 15.6L83.4258 15.96ZM81.4125 15.1264C82.1692 15.1144 82.8973 15.4156 83.4244 15.9586L83.7924 15.6014C83.1667 14.9569 82.3025 14.5994 81.4044 14.6137L81.4125 15.1264ZM79.394 15.957C79.9163 15.4094 80.6455 15.1077 81.4021 15.1264L81.4147 14.6137C80.5136 14.5915 79.645 14.9508 79.0229 15.6031L79.394 15.957ZM79.3957 20.0449C78.3194 18.8941 78.3194 17.106 79.3957 15.9552L79.0211 15.6049C77.7604 16.9528 77.7604 19.0473 79.0211 20.3952L79.3957 20.0449ZM81.4084 20.8796C80.6506 20.8796 79.9242 20.5771 79.3904 20.0394L79.0264 20.4007C79.6566 21.0354 80.514 21.3924 81.4084 21.3924V20.8796ZM79.5954 19.9011C80.073 20.3791 80.7211 20.6477 81.3968 20.6477V20.1349C80.8571 20.1349 80.3396 19.9204 79.9582 19.5386L79.5954 19.9011ZM79.5875 16.1069C78.6081 17.1788 78.6081 18.8209 79.5875 19.8928L79.9661 19.5469C79.1657 18.6708 79.1657 17.3289 79.9661 16.4528L79.5875 16.1069ZM81.3968 15.352C80.7211 15.352 80.073 15.6206 79.5954 16.0986L79.9582 16.4611C80.3396 16.0793 80.8571 15.8648 81.3968 15.8648V15.352ZM83.1982 16.0986C82.7206 15.6206 82.0725 15.352 81.3968 15.352V15.8648C81.9365 15.8648 82.454 16.0793 82.8354 16.4611L83.1982 16.0986ZM83.2061 19.8928C84.1855 18.8209 84.1855 17.1788 83.2061 16.1069L82.8275 16.4528C83.6279 17.3289 83.6279 18.6708 82.8275 19.5469L83.2061 19.8928ZM81.3968 20.6477C82.0725 20.6477 82.7206 20.3791 83.1982 19.9011L82.8354 19.5386C82.454 19.9204 81.9365 20.1349 81.3968 20.1349V20.6477Z" fill="white"/>
<path d="M85.5786 21.0002V15.0002H86.5086L89.4286 19.6702V15.0002H90.1986V21.0002H89.3986L86.3486 16.1102V21.0002H85.5786Z" fill="white" stroke="white" stroke-width="0.512821"/>
<path fill-rule="evenodd" clip-rule="evenodd" d="M57.7385 31.0602V32.8602H62.0585C61.9907 33.708 61.6383 34.508 61.0585 35.1302C60.18 36.0199 58.9678 36.499 57.7185 36.4502C55.0675 36.4502 52.9185 34.3012 52.9185 31.6502C52.9185 28.9992 55.0675 26.8502 57.7185 26.8502C58.9387 26.8331 60.1168 27.2965 60.9985 28.1402L62.2685 26.8702C61.0651 25.6784 59.4319 25.0222 57.7385 25.0502C54.1026 24.9277 51.0511 27.7662 50.9108 31.4015C50.7704 35.0367 53.594 38.102 57.2285 38.2602C57.3983 38.2702 57.5686 38.2702 57.7385 38.2602C59.3863 38.355 60.9972 37.7481 62.1729 36.5896C63.3485 35.4311 63.979 33.8292 63.9085 32.1802C63.9085 31.8051 63.8784 31.4305 63.8185 31.0602H57.7385ZM68.8198 29.75C66.4671 29.7555 64.5643 31.6673 64.5698 34.02C64.5754 36.3727 66.4871 38.2755 68.8398 38.27C71.1925 38.2645 73.0953 36.3527 73.0898 34C73.1234 31.7011 71.2983 29.8046 68.9998 29.75H68.8198ZM73.8901 34.02C73.8846 31.6673 75.7874 29.7555 78.1401 29.75H78.2801C79.3914 29.7658 80.4509 30.2225 81.2255 31.0195C82 31.8166 82.4262 32.8887 82.4101 34C82.4156 36.3527 80.5129 38.2645 78.1601 38.27C75.8074 38.2755 73.8957 36.3727 73.8901 34.02ZM75.6465 35.1599C76.1132 36.094 77.0969 36.6547 78.1384 36.5802H78.1884C78.8411 36.5491 79.4547 36.2597 79.8937 35.7757C80.3327 35.2916 80.561 34.6528 80.5284 34.0002C80.5337 33.9437 80.5337 33.8867 80.5284 33.8302C80.457 32.7885 79.7646 31.8925 78.7746 31.5606C77.7846 31.2287 76.6921 31.5262 76.0071 32.3144C75.3222 33.1025 75.1798 34.2258 75.6465 35.1599ZM66.3265 35.1599C66.7932 36.094 67.7769 36.6547 68.8184 36.5802H68.8684C69.5211 36.5491 70.1346 36.2597 70.5736 35.7757C71.0126 35.2916 71.241 34.6528 71.2084 34.0002C71.2137 33.9437 71.2137 33.8867 71.2084 33.8302C71.1369 32.7885 70.4446 31.8925 69.4546 31.5606C68.4646 31.2287 67.3721 31.5262 66.6871 32.3144C66.0022 33.1025 65.8598 34.2258 66.3265 35.1599ZM98.6708 29.7972C100.589 29.4764 102.452 30.6097 103.048 32.4602L103.248 32.9002L97.5585 35.2502C97.9106 36.0663 98.7305 36.5797 99.6185 36.5402C100.473 36.5465 101.267 36.1018 101.708 35.3702L103.158 36.3702C102.126 37.9349 100.186 38.633 98.3927 38.0854C96.5996 37.5377 95.3809 35.875 95.3985 34.0002C95.3935 33.9136 95.3935 33.8268 95.3985 33.7402C95.3604 31.7962 96.7531 30.1181 98.6708 29.7972ZM97.2502 33.8803C97.1701 32.5926 98.1432 31.4811 99.4302 31.3903C100.089 31.3501 100.708 31.7087 101 32.3003L97.2502 33.8803ZM94.4984 38.0002H92.6284V25.5002H94.4984V38.0002ZM89.5702 30.7002H89.5002C88.9302 30.0629 88.1153 29.6991 87.2602 29.7002C84.9904 29.8103 83.2065 31.6827 83.2065 33.9552C83.2065 36.2277 84.9904 38.1001 87.2602 38.2102C88.1189 38.2288 88.9408 37.8619 89.5002 37.2102H89.5702V37.8202C89.5702 39.4502 88.7002 40.3202 87.3002 40.3202C86.3428 40.3019 85.4923 39.7046 85.1502 38.8102L83.5302 39.4802C84.1434 41.0202 85.6428 42.0225 87.3002 42.0002C89.4902 42.0002 91.3002 40.7102 91.3002 37.5702V30.0002H89.5702V30.7002ZM84.999 34.0052C84.999 35.3678 86.0585 36.4954 87.4184 36.5802L87.5284 36.5702C88.8369 36.4589 89.808 35.3089 89.6984 34.0002V33.9202C89.7282 33.2872 89.5043 32.6684 89.0763 32.201C88.6484 31.7336 88.0516 31.4562 87.4184 31.4302C86.0585 31.515 84.999 32.6427 84.999 34.0052ZM111.808 25.5002H107.328V38.0002H109.198V33.2602H111.808C113.951 33.4149 115.814 31.8031 115.968 29.6602C116.123 27.5174 114.511 25.6549 112.368 25.5002C112.182 25.4902 111.995 25.4902 111.808 25.5002ZM109.198 31.5002H111.808L111.848 31.5202C113.03 31.5202 113.988 30.5621 113.988 29.3802C113.988 28.1983 113.03 27.2402 111.848 27.2402H109.198V31.5002ZM123.348 29.7102C121.949 29.6161 120.63 30.3684 119.998 31.6202L121.648 32.3102C122.105 31.6336 122.918 31.2906 123.722 31.4357C124.525 31.5807 125.167 32.1866 125.358 32.9802V33.1302C124.758 32.8126 124.088 32.6478 123.408 32.6502C121.628 32.6502 119.808 33.6502 119.808 35.4702C119.879 37.0589 121.219 38.2923 122.808 38.2302H122.898C123.87 38.2981 124.8 37.8253 125.318 37.0002H125.378V38.0002H127.178V33.1902C127.178 31.0002 125.518 29.7302 123.388 29.7302L123.348 29.7102ZM121.66 35.5003C121.66 36.2503 122.51 36.5603 123.12 36.5603L123.16 36.5803C124.29 36.5578 125.23 35.7034 125.36 34.5803C124.84 34.2934 124.253 34.1486 123.66 34.1603C122.72 34.1603 121.66 34.5003 121.66 35.5003ZM133.74 30L131.6 35.42H131.54L129.32 30H127.32L130.65 37.58L128.75 41.79H130.7L135.82 30H133.74ZM118.797 38H116.937V25.5H118.797V38Z" fill="white"/>
<path d="M20.4387 15.5402C20.1091 15.9298 19.941 16.4307 19.9687 16.9402V39.0602C19.9346 39.5706 20.1035 40.0738 20.4387 40.4602L20.5087 40.5402L32.8987 28.1502V27.8502L20.5087 15.4702L20.4387 15.5402Z" fill="url(#paint0_linear)"/>
<path d="M36.9984 32.2802L32.8984 28.1502V27.8502L36.9984 23.7202L37.0884 23.7802L41.9984 26.5602C43.3984 27.3502 43.3984 28.6502 41.9984 29.4502L37.1084 32.2302L36.9984 32.2802Z" fill="url(#paint1_linear)"/>
<path d="M37.1175 32.22L32.8975 28L20.4375 40.46C21.0205 40.979 21.8907 41.0084 22.5075 40.53L37.1175 32.22Z" fill="url(#paint2_linear)"/>
<path d="M37.1175 23.7801L22.5075 15.4801C21.8959 14.9907 21.0198 15.0161 20.4375 15.5401L32.8975 28.0001L37.1175 23.7801Z" fill="url(#paint3_linear)"/>
<path opacity="0.2" d="M36.9975 32.1299L22.5075 40.3799C21.9168 40.83 21.0982 40.83 20.5075 40.3799L20.4375 40.4499L20.5075 40.5299C21.0982 40.98 21.9168 40.98 22.5075 40.5299L37.1175 32.2199L36.9975 32.1299Z" fill="#444444"/>
<path opacity="0.12" d="M20.4385 40.3202C20.1173 39.9235 19.9599 39.4191 19.9985 38.9102V39.0602C19.9645 39.5705 20.1334 40.0737 20.4685 40.4602L20.5385 40.3902L20.4385 40.3202Z" fill="#444444"/>
<path opacity="0.12" d="M42 29.3L37 32.13L37.09 32.22L42 29.44C42.5918 29.1921 42.9992 28.6387 43.06 28C42.9332 28.5771 42.5398 29.0596 42 29.3Z" fill="#444444"/>
<path opacity="0.25" d="M22.5088 15.6202L41.9988 26.7002C42.5385 26.9406 42.932 27.4231 43.0588 28.0002C42.9979 27.3615 42.5906 26.8081 41.9988 26.5602L22.5088 15.4802C21.1187 14.6802 19.9688 15.3402 19.9688 16.9402V17.0902C19.9988 15.4902 21.1187 14.8302 22.5088 15.6202Z" fill="black"/>
<defs>
<linearGradient id="paint0_linear" x1="27.47" y1="0.448237" x2="7.62927" y2="5.72947" gradientUnits="userSpaceOnUse">
<stop stop-color="#00A0FF"/>
<stop offset="0.01" stop-color="#00A1FF"/>
<stop offset="0.26" stop-color="#00BEFF"/>
<stop offset="0.51" stop-color="#00D2FF"/>
<stop offset="0.76" stop-color="#00DFFF"/>
<stop offset="1" stop-color="#00E3FF"/>
</linearGradient>
<linearGradient id="paint1_linear" x1="43.8284" y1="17.7999" x2="19.6384" y2="17.7999" gradientUnits="userSpaceOnUse">
<stop stop-color="#FFE000"/>
<stop offset="0.41" stop-color="#FFBD00"/>
<stop offset="0.78" stop-color="#FFA500"/>
<stop offset="1" stop-color="#FF9C00"/>
</linearGradient>
<linearGradient id="paint2_linear" x1="20.075" y1="21.5094" x2="4.11352" y2="48.3086" gradientUnits="userSpaceOnUse">
<stop stop-color="#FF3A44"/>
<stop offset="1" stop-color="#C31162"/>
</linearGradient>
<linearGradient id="paint3_linear" x1="10.714" y1="12.1" x2="17.8392" y2="24.0669" gradientUnits="userSpaceOnUse">
<stop stop-color="#32A071"/>
<stop offset="0.07" stop-color="#2DA771"/>
<stop offset="0.48" stop-color="#15CF74"/>
<stop offset="0.8" stop-color="#06E775"/>
<stop offset="1" stop-color="#00F076"/>
</linearGradient>
</defs>
</svg>
