<svg width="48" height="48" viewBox="0 0 48 48" fill="none" xmlns="http://www.w3.org/2000/svg">
<rect width="48" height="48" rx="4" fill="#E6FAF6"/>
<path fill-rule="evenodd" clip-rule="evenodd" d="M28.3344 14.7502H19.6654C16.6444 14.7502 14.7504 16.8892 14.7504 19.9162V28.0842C14.7504 31.1112 16.6354 33.2502 19.6654 33.2502H28.3334C31.3644 33.2502 33.2504 31.1112 33.2504 28.0842V19.9162C33.2504 16.8892 31.3644 14.7502 28.3344 14.7502Z" fill="#00CBA6" stroke="#00CBA6" stroke-width="1.5" stroke-linecap="round" stroke-linejoin="round"/>
<path fill-rule="evenodd" clip-rule="evenodd" d="M22.6923 24.0002C22.6923 25.0222 21.8633 25.8522 20.8403 25.8522C19.8183 25.8522 18.9893 25.0222 18.9893 24.0002C18.9893 22.9782 19.8183 22.1482 20.8403 22.1482C21.8633 22.1482 22.6923 22.9782 22.6923 24.0002Z" stroke="white" stroke-width="1.5" stroke-linecap="round" stroke-linejoin="round"/>
<path d="M22.6923 24.0002H29.0103V25.8522" stroke="white" stroke-width="1.5" stroke-linecap="round" stroke-linejoin="round"/>
<path d="M26.1816 25.8518V23.9998" stroke="white" stroke-width="1.5" stroke-linecap="round" stroke-linejoin="round"/>
</svg>
