<svg width="48" height="48" viewBox="0 0 48 48" fill="none" xmlns="http://www.w3.org/2000/svg">
<rect width="48" height="48" rx="4" fill="#E6FAF6"/>
<path d="M33.4681 13.478C33.3421 13.15 32.8581 13.078 32.6361 13.314C31.6311 14.199 30.3421 14.685 29.0011 14.685C27.1531 14.685 25.4391 13.765 24.4181 12.224C24.3251 12.084 24.1691 12 24.0011 12C23.8341 12 23.6771 12.084 23.5851 12.223C22.5611 13.764 20.8471 14.684 18.9991 14.684C17.6431 14.684 16.3411 14.187 15.3331 13.284C15.1861 13.152 14.9761 13.1199 14.7951 13.2C14.6151 13.28 14.4991 13.4589 14.4991 13.656V24.4989C14.4991 30.7429 23.3791 35.7279 23.7571 35.937C23.8321 35.979 23.9161 36 23.9991 36C24.0821 36 24.1661 35.979 24.2411 35.939C24.6191 35.73 33.4991 30.744 33.4991 24.501V13.701C33.5051 13.626 33.4951 13.55 33.4681 13.478Z" fill="#00CBA6"/>
<path d="M20.2501 23.4167L22.7501 25.9167L27.7501 20.5" stroke="white" stroke-width="1.5" stroke-linecap="round" stroke-linejoin="round"/>
</svg>
