<svg width="48" height="48" viewBox="0 0 48 48" fill="none" xmlns="http://www.w3.org/2000/svg">
<rect width="48" height="48" rx="4" fill="#E6FAF6"/>
<path d="M28.02 22.9133C29.841 22.9133 31.317 21.4373 31.317 19.6163C31.317 17.7963 29.841 16.3193 28.02 16.3193" stroke="#00CBA6" stroke-width="1.5" stroke-linecap="round" stroke-linejoin="round"/>
<path d="M29.5361 26.4963C30.0801 26.5333 30.6201 26.6113 31.1531 26.7293C31.8921 26.8763 32.7821 27.1793 33.0981 27.8423C33.3001 28.2673 33.3001 28.7623 33.0981 29.1873C32.7831 29.8503 31.8921 30.1533 31.1531 30.3053" stroke="#00CBA6" stroke-width="1.5" stroke-linecap="round" stroke-linejoin="round"/>
<path fill-rule="evenodd" clip-rule="evenodd" d="M21.5914 27.2063C25.2814 27.2063 28.4334 27.7653 28.4334 29.9983C28.4334 32.2323 25.3014 32.8103 21.5914 32.8103C17.9014 32.8103 14.7504 32.2523 14.7504 30.0183C14.7504 27.7843 17.8814 27.2063 21.5914 27.2063Z" fill="#00CBA6" stroke="#00CBA6" stroke-width="1.5" stroke-linecap="round" stroke-linejoin="round"/>
<path fill-rule="evenodd" clip-rule="evenodd" d="M21.5914 24.0188C19.1574 24.0188 17.2074 22.0678 17.2074 19.6338C17.2074 17.2008 19.1574 15.2498 21.5914 15.2498C24.0254 15.2498 25.9764 17.2008 25.9764 19.6338C25.9764 22.0678 24.0254 24.0188 21.5914 24.0188Z" fill="#00CBA6" stroke="#00CBA6" stroke-width="1.5" stroke-linecap="round" stroke-linejoin="round"/>
</svg>
