<svg width="48" height="48" viewBox="0 0 48 48" fill="none" xmlns="http://www.w3.org/2000/svg">
<circle opacity="0.05" cx="24" cy="24" r="24" fill="#00CBA6"/>
<path d="M28.8 18H19.2C18.54 18 18 18.54 18 19.2V28.8C18 29.46 18.54 30 19.2 30H28.8C29.46 30 30 29.46 30 28.8V19.2C30 18.54 29.46 18 28.8 18ZM21.6 28.2H19.8V22.8H21.6V28.2ZM20.7 21.78C20.1 21.78 19.62 21.3 19.62 20.7C19.62 20.1 20.1 19.62 20.7 19.62C21.3 19.62 21.78 20.1 21.78 20.7C21.78 21.3 21.3 21.78 20.7 21.78ZM28.2 28.2H26.4V25.02C26.4 24.54 25.98 24.12 25.5 24.12C25.02 24.12 24.6 24.54 24.6 25.02V28.2H22.8V22.8H24.6V23.52C24.9 23.04 25.56 22.68 26.1 22.68C27.24 22.68 28.2 23.64 28.2 24.78V28.2Z" fill="#00CBA6"/>
</svg>
