<svg width="48" height="48" viewBox="0 0 48 48" fill="none" xmlns="http://www.w3.org/2000/svg">
<circle opacity="0.05" cx="24" cy="24" r="24" fill="#00CBA6"/>
<path fill-rule="evenodd" clip-rule="evenodd" d="M30.5455 20.0973C30.0904 20.2989 29.6022 20.4357 29.0892 20.4967C29.613 20.183 30.014 19.6855 30.204 19.0945C29.7127 19.385 29.1703 19.5959 28.5924 19.7102C28.1296 19.2166 27.4714 18.9091 26.7413 18.9091C25.3406 18.9091 24.2049 20.0448 24.2049 21.4447C24.2049 21.6432 24.2273 21.8371 24.2706 22.0226C22.163 21.9167 20.2941 20.907 19.0433 19.3726C18.8247 19.7465 18.7003 20.1822 18.7003 20.6474C18.7003 21.5273 19.1484 22.3038 19.8282 22.758C19.4126 22.7441 19.0217 22.6298 18.6794 22.4397V22.4714C18.6794 23.6998 19.554 24.725 20.7136 24.9584C20.5012 25.0155 20.2771 25.0472 20.0453 25.0472C19.8816 25.0472 19.7232 25.031 19.5679 25.0001C19.8908 26.0083 20.8272 26.7415 21.9366 26.7616C21.069 27.4415 19.975 27.8455 18.7868 27.8455C18.5821 27.8455 18.3804 27.8332 18.1819 27.8108C19.3045 28.5316 20.6372 28.9519 22.0695 28.9519C26.7351 28.9519 29.2854 25.0874 29.2854 21.7359L29.2769 21.4076C29.7752 21.0522 30.2063 20.6056 30.5455 20.0973Z" fill="#00CBA6"/>
<mask id="mask0" style="mask-type:alpha" maskUnits="userSpaceOnUse" x="18" y="18" width="13" height="11">
<path fill-rule="evenodd" clip-rule="evenodd" d="M30.5455 20.0973C30.0904 20.2989 29.6022 20.4357 29.0892 20.4967C29.613 20.183 30.014 19.6855 30.204 19.0945C29.7127 19.385 29.1703 19.5959 28.5924 19.7102C28.1296 19.2166 27.4714 18.9091 26.7413 18.9091C25.3406 18.9091 24.2049 20.0448 24.2049 21.4447C24.2049 21.6432 24.2273 21.8371 24.2706 22.0226C22.163 21.9167 20.2941 20.907 19.0433 19.3726C18.8247 19.7465 18.7003 20.1822 18.7003 20.6474C18.7003 21.5273 19.1484 22.3038 19.8282 22.758C19.4126 22.7441 19.0217 22.6298 18.6794 22.4397V22.4714C18.6794 23.6998 19.554 24.725 20.7136 24.9584C20.5012 25.0155 20.2771 25.0472 20.0453 25.0472C19.8816 25.0472 19.7232 25.031 19.5679 25.0001C19.8908 26.0083 20.8272 26.7415 21.9366 26.7616C21.069 27.4415 19.975 27.8455 18.7868 27.8455C18.5821 27.8455 18.3804 27.8332 18.1819 27.8108C19.3045 28.5316 20.6372 28.9519 22.0695 28.9519C26.7351 28.9519 29.2854 25.0874 29.2854 21.7359L29.2769 21.4076C29.7752 21.0522 30.2063 20.6056 30.5455 20.0973Z" fill="white"/>
</mask>
<g mask="url(#mask0)">
</g>
</svg>
